<mxfile host="app.diagrams.net" modified="2022-01-28T10:04:22.176Z" agent="5.0 (Windows)" etag="pVZ-JrCONLkFmdkVehZv" version="16.4.11" type="github" pages="4">
  <diagram id="tW-zOXYRvXnUmNkwV2mj" name="TopDesign">
    <mxGraphModel dx="608" dy="608" grid="1" gridSize="10" guides="1" tooltips="1" connect="1" arrows="1" fold="1" page="1" pageScale="1" pageWidth="1169" pageHeight="827" math="0" shadow="0">
      <root>
        <mxCell id="0" />
        <mxCell id="1" parent="0" />
        <mxCell id="CK5WAitXPr3OhxXIjbmQ-1" value="&lt;div&gt;SIMPLE&lt;/div&gt;&lt;div&gt;Source&lt;br&gt;&lt;/div&gt;" style="rounded=0;whiteSpace=wrap;html=1;" parent="1" vertex="1">
          <mxGeometry x="70" y="120" width="70" height="50" as="geometry" />
        </mxCell>
        <mxCell id="CK5WAitXPr3OhxXIjbmQ-2" value="Tokenizer" style="rounded=0;whiteSpace=wrap;html=1;" parent="1" vertex="1">
          <mxGeometry x="180" y="120" width="70" height="50" as="geometry" />
        </mxCell>
        <mxCell id="CK5WAitXPr3OhxXIjbmQ-3" value="Parser" style="rounded=0;whiteSpace=wrap;html=1;" parent="1" vertex="1">
          <mxGeometry x="290" y="120" width="70" height="50" as="geometry" />
        </mxCell>
        <mxCell id="CK5WAitXPr3OhxXIjbmQ-4" value="&lt;div&gt;Relational&lt;/div&gt;&lt;div&gt;Tables&lt;br&gt;&lt;/div&gt;" style="rounded=0;whiteSpace=wrap;html=1;" parent="1" vertex="1">
          <mxGeometry x="400" y="120" width="70" height="50" as="geometry" />
        </mxCell>
        <mxCell id="CK5WAitXPr3OhxXIjbmQ-5" value="tbl-Procedure" style="rounded=0;whiteSpace=wrap;html=1;" parent="1" vertex="1">
          <mxGeometry x="520" y="150" width="110" height="30" as="geometry" />
        </mxCell>
        <mxCell id="CK5WAitXPr3OhxXIjbmQ-6" value="tbl-Variables" style="rounded=0;whiteSpace=wrap;html=1;" parent="1" vertex="1">
          <mxGeometry x="520" y="110" width="110" height="30" as="geometry" />
        </mxCell>
        <mxCell id="CK5WAitXPr3OhxXIjbmQ-7" value="tbl-ExprTree" style="rounded=0;whiteSpace=wrap;html=1;" parent="1" vertex="1">
          <mxGeometry x="560" y="200" width="110" height="30" as="geometry" />
        </mxCell>
        <mxCell id="CK5WAitXPr3OhxXIjbmQ-8" value="tbl-Abstraction" style="rounded=0;whiteSpace=wrap;html=1;" parent="1" vertex="1">
          <mxGeometry x="560" y="240" width="110" height="30" as="geometry" />
        </mxCell>
        <mxCell id="CK5WAitXPr3OhxXIjbmQ-9" value="" style="endArrow=classic;html=1;rounded=0;exitX=1;exitY=0.5;exitDx=0;exitDy=0;entryX=0;entryY=0.5;entryDx=0;entryDy=0;" parent="1" source="CK5WAitXPr3OhxXIjbmQ-1" target="CK5WAitXPr3OhxXIjbmQ-2" edge="1">
          <mxGeometry width="50" height="50" relative="1" as="geometry">
            <mxPoint x="510" y="340" as="sourcePoint" />
            <mxPoint x="560" y="290" as="targetPoint" />
          </mxGeometry>
        </mxCell>
        <mxCell id="CK5WAitXPr3OhxXIjbmQ-10" value="" style="endArrow=classic;html=1;rounded=0;exitX=1;exitY=0.5;exitDx=0;exitDy=0;entryX=0;entryY=0.5;entryDx=0;entryDy=0;" parent="1" source="CK5WAitXPr3OhxXIjbmQ-2" target="CK5WAitXPr3OhxXIjbmQ-3" edge="1">
          <mxGeometry width="50" height="50" relative="1" as="geometry">
            <mxPoint x="310" y="270" as="sourcePoint" />
            <mxPoint x="350" y="270" as="targetPoint" />
          </mxGeometry>
        </mxCell>
        <mxCell id="CK5WAitXPr3OhxXIjbmQ-11" value="" style="endArrow=classic;html=1;rounded=0;exitX=1;exitY=0.5;exitDx=0;exitDy=0;entryX=0;entryY=0.5;entryDx=0;entryDy=0;" parent="1" source="CK5WAitXPr3OhxXIjbmQ-3" target="CK5WAitXPr3OhxXIjbmQ-4" edge="1">
          <mxGeometry width="50" height="50" relative="1" as="geometry">
            <mxPoint x="320" y="280" as="sourcePoint" />
            <mxPoint x="360" y="280" as="targetPoint" />
          </mxGeometry>
        </mxCell>
        <mxCell id="CK5WAitXPr3OhxXIjbmQ-12" value="" style="endArrow=classic;html=1;rounded=0;exitX=1;exitY=0.5;exitDx=0;exitDy=0;entryX=0;entryY=0.5;entryDx=0;entryDy=0;" parent="1" source="CK5WAitXPr3OhxXIjbmQ-4" target="CK5WAitXPr3OhxXIjbmQ-6" edge="1">
          <mxGeometry width="50" height="50" relative="1" as="geometry">
            <mxPoint x="330" y="290" as="sourcePoint" />
            <mxPoint x="370" y="290" as="targetPoint" />
          </mxGeometry>
        </mxCell>
        <mxCell id="CK5WAitXPr3OhxXIjbmQ-13" value="" style="endArrow=classic;html=1;rounded=0;exitX=1;exitY=0.5;exitDx=0;exitDy=0;entryX=0;entryY=0.5;entryDx=0;entryDy=0;" parent="1" source="CK5WAitXPr3OhxXIjbmQ-4" target="CK5WAitXPr3OhxXIjbmQ-5" edge="1">
          <mxGeometry width="50" height="50" relative="1" as="geometry">
            <mxPoint x="340" y="300" as="sourcePoint" />
            <mxPoint x="380" y="300" as="targetPoint" />
          </mxGeometry>
        </mxCell>
        <mxCell id="CK5WAitXPr3OhxXIjbmQ-15" value="" style="edgeStyle=elbowEdgeStyle;elbow=horizontal;endArrow=classic;html=1;rounded=0;exitX=0.25;exitY=1;exitDx=0;exitDy=0;entryX=0;entryY=0.5;entryDx=0;entryDy=0;" parent="1" source="CK5WAitXPr3OhxXIjbmQ-5" target="CK5WAitXPr3OhxXIjbmQ-7" edge="1">
          <mxGeometry width="50" height="50" relative="1" as="geometry">
            <mxPoint x="340" y="340" as="sourcePoint" />
            <mxPoint x="390" y="290" as="targetPoint" />
            <Array as="points">
              <mxPoint x="540" y="200" />
            </Array>
          </mxGeometry>
        </mxCell>
        <mxCell id="CK5WAitXPr3OhxXIjbmQ-18" value="" style="edgeStyle=elbowEdgeStyle;elbow=horizontal;endArrow=classic;html=1;rounded=0;exitX=0.25;exitY=1;exitDx=0;exitDy=0;entryX=0;entryY=0.5;entryDx=0;entryDy=0;" parent="1" source="CK5WAitXPr3OhxXIjbmQ-5" target="CK5WAitXPr3OhxXIjbmQ-8" edge="1">
          <mxGeometry width="50" height="50" relative="1" as="geometry">
            <mxPoint x="340" y="340" as="sourcePoint" />
            <mxPoint x="390" y="290" as="targetPoint" />
            <Array as="points">
              <mxPoint x="540" y="220" />
            </Array>
          </mxGeometry>
        </mxCell>
        <mxCell id="CK5WAitXPr3OhxXIjbmQ-19" value="&lt;div&gt;PQL&lt;/div&gt;&lt;div&gt;Source&lt;br&gt;&lt;/div&gt;" style="rounded=0;whiteSpace=wrap;html=1;" parent="1" vertex="1">
          <mxGeometry x="70" y="230" width="70" height="50" as="geometry" />
        </mxCell>
        <mxCell id="CK5WAitXPr3OhxXIjbmQ-20" value="Tokenizer" style="rounded=0;whiteSpace=wrap;html=1;" parent="1" vertex="1">
          <mxGeometry x="180" y="230" width="70" height="50" as="geometry" />
        </mxCell>
        <mxCell id="CK5WAitXPr3OhxXIjbmQ-21" value="Parser" style="rounded=0;whiteSpace=wrap;html=1;" parent="1" vertex="1">
          <mxGeometry x="290" y="230" width="70" height="50" as="geometry" />
        </mxCell>
        <mxCell id="CK5WAitXPr3OhxXIjbmQ-22" value="" style="endArrow=classic;html=1;rounded=0;exitX=1;exitY=0.5;exitDx=0;exitDy=0;entryX=0;entryY=0.5;entryDx=0;entryDy=0;" parent="1" source="CK5WAitXPr3OhxXIjbmQ-19" target="CK5WAitXPr3OhxXIjbmQ-20" edge="1">
          <mxGeometry width="50" height="50" relative="1" as="geometry">
            <mxPoint x="510" y="450" as="sourcePoint" />
            <mxPoint x="560" y="400" as="targetPoint" />
          </mxGeometry>
        </mxCell>
        <mxCell id="CK5WAitXPr3OhxXIjbmQ-23" value="" style="endArrow=classic;html=1;rounded=0;exitX=1;exitY=0.5;exitDx=0;exitDy=0;entryX=0;entryY=0.5;entryDx=0;entryDy=0;" parent="1" source="CK5WAitXPr3OhxXIjbmQ-20" target="CK5WAitXPr3OhxXIjbmQ-21" edge="1">
          <mxGeometry width="50" height="50" relative="1" as="geometry">
            <mxPoint x="310" y="380" as="sourcePoint" />
            <mxPoint x="350" y="380" as="targetPoint" />
          </mxGeometry>
        </mxCell>
        <mxCell id="CK5WAitXPr3OhxXIjbmQ-24" value="" style="endArrow=classic;html=1;rounded=0;exitX=1;exitY=0.5;exitDx=0;exitDy=0;entryX=0;entryY=0.5;entryDx=0;entryDy=0;" parent="1" source="CK5WAitXPr3OhxXIjbmQ-21" edge="1">
          <mxGeometry width="50" height="50" relative="1" as="geometry">
            <mxPoint x="320" y="390" as="sourcePoint" />
            <mxPoint x="400" y="255" as="targetPoint" />
          </mxGeometry>
        </mxCell>
        <mxCell id="CK5WAitXPr3OhxXIjbmQ-32" value="" style="edgeStyle=orthogonalEdgeStyle;rounded=0;orthogonalLoop=1;jettySize=auto;html=1;" parent="1" source="CK5WAitXPr3OhxXIjbmQ-25" target="CK5WAitXPr3OhxXIjbmQ-31" edge="1">
          <mxGeometry relative="1" as="geometry" />
        </mxCell>
        <mxCell id="CK5WAitXPr3OhxXIjbmQ-25" value="Evaluate" style="rounded=0;whiteSpace=wrap;html=1;" parent="1" vertex="1">
          <mxGeometry x="400" y="230" width="70" height="50" as="geometry" />
        </mxCell>
        <mxCell id="CK5WAitXPr3OhxXIjbmQ-30" value="" style="edgeStyle=orthogonalEdgeStyle;rounded=0;orthogonalLoop=1;jettySize=auto;html=1;entryX=0.5;entryY=0;entryDx=0;entryDy=0;" parent="1" source="CK5WAitXPr3OhxXIjbmQ-26" target="CK5WAitXPr3OhxXIjbmQ-25" edge="1">
          <mxGeometry relative="1" as="geometry">
            <mxPoint x="420" y="260" as="targetPoint" />
          </mxGeometry>
        </mxCell>
        <mxCell id="CK5WAitXPr3OhxXIjbmQ-26" value="" style="whiteSpace=wrap;html=1;aspect=fixed;fillColor=none;" parent="1" vertex="1">
          <mxGeometry x="490" y="80" width="210" height="210" as="geometry" />
        </mxCell>
        <mxCell id="CK5WAitXPr3OhxXIjbmQ-29" value="&lt;b&gt;Database&lt;/b&gt;" style="text;html=1;strokeColor=none;fillColor=none;align=center;verticalAlign=middle;whiteSpace=wrap;rounded=0;" parent="1" vertex="1">
          <mxGeometry x="490" y="80" width="60" height="30" as="geometry" />
        </mxCell>
        <mxCell id="CK5WAitXPr3OhxXIjbmQ-31" value="Output" style="rounded=0;whiteSpace=wrap;html=1;" parent="1" vertex="1">
          <mxGeometry x="400" y="310" width="70" height="50" as="geometry" />
        </mxCell>
        <mxCell id="CK5WAitXPr3OhxXIjbmQ-33" value="&lt;div&gt;Recursive&lt;/div&gt;&lt;div&gt;Descent&lt;/div&gt;&lt;div&gt;Parsing&lt;br&gt;&lt;/div&gt;" style="text;html=1;strokeColor=none;fillColor=none;align=center;verticalAlign=middle;whiteSpace=wrap;rounded=0;fontStyle=2" parent="1" vertex="1">
          <mxGeometry x="295" y="190" width="60" height="30" as="geometry" />
        </mxCell>
      </root>
    </mxGraphModel>
  </diagram>
  <diagram id="Dv5ufMltJwjDzr5Cj1Qd" name="Parsing">
    <mxGraphModel dx="1422" dy="791" grid="1" gridSize="10" guides="1" tooltips="1" connect="1" arrows="1" fold="1" page="1" pageScale="1" pageWidth="1169" pageHeight="827" math="0" shadow="0">
      <root>
        <mxCell id="xmY6_0Rzzx6PVl5tX0tT-0" />
        <mxCell id="xmY6_0Rzzx6PVl5tX0tT-1" parent="xmY6_0Rzzx6PVl5tX0tT-0" />
        <mxCell id="xmY6_0Rzzx6PVl5tX0tT-97" value="" style="rounded=0;whiteSpace=wrap;html=1;fontSize=13;strokeColor=default;strokeWidth=1;fillColor=none;" parent="xmY6_0Rzzx6PVl5tX0tT-1" vertex="1">
          <mxGeometry x="460" y="190" width="510" height="290" as="geometry" />
        </mxCell>
        <mxCell id="xmY6_0Rzzx6PVl5tX0tT-26" value="TOKENIZE" style="edgeStyle=orthogonalEdgeStyle;rounded=0;orthogonalLoop=1;jettySize=auto;html=1;exitX=1;exitY=0.5;exitDx=0;exitDy=0;entryX=0;entryY=0.25;entryDx=0;entryDy=0;fontSize=21;" parent="xmY6_0Rzzx6PVl5tX0tT-1" source="xmY6_0Rzzx6PVl5tX0tT-2" target="xmY6_0Rzzx6PVl5tX0tT-10" edge="1">
          <mxGeometry relative="1" as="geometry" />
        </mxCell>
        <mxCell id="xmY6_0Rzzx6PVl5tX0tT-3" value="procedure" style="rounded=0;whiteSpace=wrap;html=1;fontStyle=1;fillColor=none;" parent="xmY6_0Rzzx6PVl5tX0tT-1" vertex="1">
          <mxGeometry x="234" y="254" width="80" height="30" as="geometry" />
        </mxCell>
        <mxCell id="xmY6_0Rzzx6PVl5tX0tT-4" value="num1" style="rounded=0;whiteSpace=wrap;html=1;fontStyle=0;fillColor=none;" parent="xmY6_0Rzzx6PVl5tX0tT-1" vertex="1">
          <mxGeometry x="334" y="284" width="80" height="30" as="geometry" />
        </mxCell>
        <mxCell id="xmY6_0Rzzx6PVl5tX0tT-5" value="read" style="rounded=0;whiteSpace=wrap;html=1;fontStyle=1;fillColor=none;" parent="xmY6_0Rzzx6PVl5tX0tT-1" vertex="1">
          <mxGeometry x="264" y="284" width="70" height="30" as="geometry" />
        </mxCell>
        <mxCell id="xmY6_0Rzzx6PVl5tX0tT-6" value="echo" style="rounded=0;whiteSpace=wrap;html=1;fontStyle=0;fillColor=none;" parent="xmY6_0Rzzx6PVl5tX0tT-1" vertex="1">
          <mxGeometry x="314" y="254" width="80" height="30" as="geometry" />
        </mxCell>
        <mxCell id="xmY6_0Rzzx6PVl5tX0tT-40" value="" style="edgeStyle=orthogonalEdgeStyle;rounded=0;orthogonalLoop=1;jettySize=auto;html=1;fontSize=16;exitX=0.25;exitY=1;exitDx=0;exitDy=0;entryX=0;entryY=0.5;entryDx=0;entryDy=0;" parent="xmY6_0Rzzx6PVl5tX0tT-1" source="xmY6_0Rzzx6PVl5tX0tT-34" target="xmY6_0Rzzx6PVl5tX0tT-27" edge="1">
          <mxGeometry relative="1" as="geometry" />
        </mxCell>
        <mxCell id="xmY6_0Rzzx6PVl5tX0tT-65" value="" style="edgeStyle=orthogonalEdgeStyle;rounded=0;orthogonalLoop=1;jettySize=auto;html=1;fontSize=13;entryX=0;entryY=1;entryDx=0;entryDy=0;strokeColor=#0000FF;jumpSize=9;" parent="xmY6_0Rzzx6PVl5tX0tT-1" source="xmY6_0Rzzx6PVl5tX0tT-7" target="xmY6_0Rzzx6PVl5tX0tT-27" edge="1">
          <mxGeometry relative="1" as="geometry">
            <Array as="points">
              <mxPoint x="485" y="269" />
              <mxPoint x="485" y="280" />
            </Array>
          </mxGeometry>
        </mxCell>
        <mxCell id="xmY6_0Rzzx6PVl5tX0tT-7" value="{" style="rounded=0;whiteSpace=wrap;html=1;fontStyle=0;fillColor=none;strokeColor=#000000;" parent="xmY6_0Rzzx6PVl5tX0tT-1" vertex="1">
          <mxGeometry x="394" y="254" width="50" height="30" as="geometry" />
        </mxCell>
        <mxCell id="xmY6_0Rzzx6PVl5tX0tT-9" value="num1" style="rounded=0;whiteSpace=wrap;html=1;fontStyle=0;fillColor=none;" parent="xmY6_0Rzzx6PVl5tX0tT-1" vertex="1">
          <mxGeometry x="354" y="314" width="80" height="30" as="geometry" />
        </mxCell>
        <mxCell id="xmY6_0Rzzx6PVl5tX0tT-10" value="index" style="rounded=0;whiteSpace=wrap;html=1;fontStyle=0;fillColor=none;" parent="xmY6_0Rzzx6PVl5tX0tT-1" vertex="1">
          <mxGeometry x="264" y="314" width="70" height="30" as="geometry" />
        </mxCell>
        <mxCell id="xmY6_0Rzzx6PVl5tX0tT-11" value="=" style="rounded=0;whiteSpace=wrap;html=1;fontStyle=0;fillColor=none;" parent="xmY6_0Rzzx6PVl5tX0tT-1" vertex="1">
          <mxGeometry x="334" y="314" width="20" height="30" as="geometry" />
        </mxCell>
        <mxCell id="xmY6_0Rzzx6PVl5tX0tT-12" value="num1" style="rounded=0;whiteSpace=wrap;html=1;fontStyle=0;fillColor=none;" parent="xmY6_0Rzzx6PVl5tX0tT-1" vertex="1">
          <mxGeometry x="334" y="344" width="80" height="30" as="geometry" />
        </mxCell>
        <mxCell id="xmY6_0Rzzx6PVl5tX0tT-13" value="print" style="rounded=0;whiteSpace=wrap;html=1;fontStyle=1;fillColor=none;" parent="xmY6_0Rzzx6PVl5tX0tT-1" vertex="1">
          <mxGeometry x="264" y="344" width="70" height="30" as="geometry" />
        </mxCell>
        <mxCell id="xmY6_0Rzzx6PVl5tX0tT-66" value="" style="edgeStyle=orthogonalEdgeStyle;rounded=0;jumpSize=9;orthogonalLoop=1;jettySize=auto;html=1;fontSize=13;strokeColor=#0000FF;" parent="xmY6_0Rzzx6PVl5tX0tT-1" source="xmY6_0Rzzx6PVl5tX0tT-16" target="xmY6_0Rzzx6PVl5tX0tT-44" edge="1">
          <mxGeometry relative="1" as="geometry" />
        </mxCell>
        <mxCell id="xmY6_0Rzzx6PVl5tX0tT-16" value=";" style="rounded=0;whiteSpace=wrap;html=1;fontStyle=0;fillColor=none;fontSize=21;" parent="xmY6_0Rzzx6PVl5tX0tT-1" vertex="1">
          <mxGeometry x="414" y="284" width="20" height="30" as="geometry" />
        </mxCell>
        <mxCell id="xmY6_0Rzzx6PVl5tX0tT-67" value="" style="edgeStyle=orthogonalEdgeStyle;rounded=0;jumpSize=9;orthogonalLoop=1;jettySize=auto;html=1;fontSize=13;strokeColor=#0000FF;entryX=0;entryY=0.5;entryDx=0;entryDy=0;" parent="xmY6_0Rzzx6PVl5tX0tT-1" source="xmY6_0Rzzx6PVl5tX0tT-18" target="xmY6_0Rzzx6PVl5tX0tT-52" edge="1">
          <mxGeometry relative="1" as="geometry">
            <Array as="points">
              <mxPoint x="480" y="329" />
              <mxPoint x="480" y="375" />
            </Array>
          </mxGeometry>
        </mxCell>
        <mxCell id="xmY6_0Rzzx6PVl5tX0tT-18" value=";" style="rounded=0;whiteSpace=wrap;html=1;fontStyle=0;fillColor=none;fontSize=21;" parent="xmY6_0Rzzx6PVl5tX0tT-1" vertex="1">
          <mxGeometry x="434" y="314" width="20" height="30" as="geometry" />
        </mxCell>
        <mxCell id="xmY6_0Rzzx6PVl5tX0tT-19" value=";" style="rounded=0;whiteSpace=wrap;html=1;fontStyle=0;fillColor=none;fontSize=21;" parent="xmY6_0Rzzx6PVl5tX0tT-1" vertex="1">
          <mxGeometry x="414" y="344" width="20" height="30" as="geometry" />
        </mxCell>
        <mxCell id="xmY6_0Rzzx6PVl5tX0tT-20" value="index" style="rounded=0;whiteSpace=wrap;html=1;fontStyle=0;fillColor=none;" parent="xmY6_0Rzzx6PVl5tX0tT-1" vertex="1">
          <mxGeometry x="334" y="374" width="80" height="30" as="geometry" />
        </mxCell>
        <mxCell id="xmY6_0Rzzx6PVl5tX0tT-21" value="print" style="rounded=0;whiteSpace=wrap;html=1;fontStyle=1;fillColor=none;" parent="xmY6_0Rzzx6PVl5tX0tT-1" vertex="1">
          <mxGeometry x="264" y="374" width="70" height="30" as="geometry" />
        </mxCell>
        <mxCell id="xmY6_0Rzzx6PVl5tX0tT-22" value=";" style="rounded=0;whiteSpace=wrap;html=1;fontStyle=0;fillColor=none;fontSize=21;" parent="xmY6_0Rzzx6PVl5tX0tT-1" vertex="1">
          <mxGeometry x="414" y="374" width="20" height="30" as="geometry" />
        </mxCell>
        <mxCell id="xmY6_0Rzzx6PVl5tX0tT-23" value="}" style="rounded=0;whiteSpace=wrap;html=1;fontStyle=0;fillColor=none;strokeColor=#000000;" parent="xmY6_0Rzzx6PVl5tX0tT-1" vertex="1">
          <mxGeometry x="234" y="404" width="50" height="30" as="geometry" />
        </mxCell>
        <mxCell id="xmY6_0Rzzx6PVl5tX0tT-27" value="&lt;div style=&quot;font-size: 16px;&quot;&gt;procedure&lt;/div&gt;" style="rounded=1;whiteSpace=wrap;html=1;fontSize=16;strokeColor=#d6b656;fillColor=#fff2cc;" parent="xmY6_0Rzzx6PVl5tX0tT-1" vertex="1">
          <mxGeometry x="526" y="250" width="94" height="30" as="geometry" />
        </mxCell>
        <mxCell id="xmY6_0Rzzx6PVl5tX0tT-32" value="" style="group" parent="xmY6_0Rzzx6PVl5tX0tT-1" vertex="1" connectable="0">
          <mxGeometry x="15" y="227" width="111" height="157" as="geometry" />
        </mxCell>
        <mxCell id="xmY6_0Rzzx6PVl5tX0tT-2" value="procedure echo {&#xa;    read num1;&#xa;    index = num1;&#xa;    &#xa;    print num1;&#xa;    print index;&#xa;}" style="text;html=1;strokeColor=default;fillColor=none;align=center;verticalAlign=middle;whiteSpace=wrap;rounded=0;" parent="xmY6_0Rzzx6PVl5tX0tT-32" vertex="1">
          <mxGeometry y="27" width="110" height="130" as="geometry" />
        </mxCell>
        <mxCell id="xmY6_0Rzzx6PVl5tX0tT-31" value="Source" style="text;html=1;strokeColor=none;fillColor=none;align=center;verticalAlign=middle;whiteSpace=wrap;rounded=0;fontSize=21;" parent="xmY6_0Rzzx6PVl5tX0tT-32" vertex="1">
          <mxGeometry x="1" width="110" height="30" as="geometry" />
        </mxCell>
        <mxCell id="xmY6_0Rzzx6PVl5tX0tT-34" value="Program" style="rounded=1;whiteSpace=wrap;html=1;fontSize=16;strokeColor=default;fillColor=none;" parent="xmY6_0Rzzx6PVl5tX0tT-1" vertex="1">
          <mxGeometry x="470" y="210" width="94" height="26" as="geometry" />
        </mxCell>
        <mxCell id="xmY6_0Rzzx6PVl5tX0tT-35" value="stmtList" style="rounded=0;whiteSpace=wrap;html=1;fontStyle=0;fillColor=none;fontSize=16;" parent="xmY6_0Rzzx6PVl5tX0tT-1" vertex="1">
          <mxGeometry x="740" y="250" width="80" height="30" as="geometry" />
        </mxCell>
        <mxCell id="xmY6_0Rzzx6PVl5tX0tT-37" value="}" style="rounded=0;whiteSpace=wrap;html=1;fontStyle=0;fillColor=#f8cecc;fontSize=16;strokeColor=#b85450;" parent="xmY6_0Rzzx6PVl5tX0tT-1" vertex="1">
          <mxGeometry x="820" y="250" width="20" height="30" as="geometry" />
        </mxCell>
        <mxCell id="xmY6_0Rzzx6PVl5tX0tT-38" value="{" style="rounded=0;whiteSpace=wrap;html=1;fontStyle=0;fillColor=none;fontSize=16;" parent="xmY6_0Rzzx6PVl5tX0tT-1" vertex="1">
          <mxGeometry x="720" y="250" width="20" height="30" as="geometry" />
        </mxCell>
        <mxCell id="xmY6_0Rzzx6PVl5tX0tT-42" value="Lookahead" style="text;html=1;strokeColor=none;fillColor=none;align=center;verticalAlign=middle;whiteSpace=wrap;rounded=0;fontSize=15;fontStyle=2" parent="xmY6_0Rzzx6PVl5tX0tT-1" vertex="1">
          <mxGeometry x="593" y="224" width="60" height="30" as="geometry" />
        </mxCell>
        <mxCell id="xmY6_0Rzzx6PVl5tX0tT-50" value="" style="edgeStyle=orthogonalEdgeStyle;rounded=0;orthogonalLoop=1;jettySize=auto;html=1;fontSize=13;entryX=0.25;entryY=0;entryDx=0;entryDy=0;exitX=0.425;exitY=1.067;exitDx=0;exitDy=0;exitPerimeter=0;" parent="xmY6_0Rzzx6PVl5tX0tT-1" source="xmY6_0Rzzx6PVl5tX0tT-35" target="xmY6_0Rzzx6PVl5tX0tT-44" edge="1">
          <mxGeometry relative="1" as="geometry">
            <Array as="points">
              <mxPoint x="774" y="290" />
              <mxPoint x="570" y="290" />
            </Array>
          </mxGeometry>
        </mxCell>
        <mxCell id="xmY6_0Rzzx6PVl5tX0tT-68" value="" style="edgeStyle=orthogonalEdgeStyle;rounded=0;jumpSize=9;orthogonalLoop=1;jettySize=auto;html=1;fontSize=13;strokeColor=#000000;entryX=0.25;entryY=0;entryDx=0;entryDy=0;exitX=0.25;exitY=1;exitDx=0;exitDy=0;" parent="xmY6_0Rzzx6PVl5tX0tT-1" source="xmY6_0Rzzx6PVl5tX0tT-44" target="xmY6_0Rzzx6PVl5tX0tT-52" edge="1">
          <mxGeometry relative="1" as="geometry" />
        </mxCell>
        <mxCell id="xmY6_0Rzzx6PVl5tX0tT-44" value="read" style="rounded=1;whiteSpace=wrap;html=1;fontSize=16;strokeColor=#d6b656;fillColor=#fff2cc;strokeWidth=1;" parent="xmY6_0Rzzx6PVl5tX0tT-1" vertex="1">
          <mxGeometry x="546" y="310" width="94" height="30" as="geometry" />
        </mxCell>
        <mxCell id="xmY6_0Rzzx6PVl5tX0tT-45" value="varname" style="rounded=0;whiteSpace=wrap;html=1;fontStyle=0;fillColor=none;fontSize=16;" parent="xmY6_0Rzzx6PVl5tX0tT-1" vertex="1">
          <mxGeometry x="640" y="310" width="80" height="30" as="geometry" />
        </mxCell>
        <mxCell id="xmY6_0Rzzx6PVl5tX0tT-46" value=";" style="rounded=0;whiteSpace=wrap;html=1;fontStyle=1;fillColor=#f8cecc;fontSize=16;strokeColor=#b85450;" parent="xmY6_0Rzzx6PVl5tX0tT-1" vertex="1">
          <mxGeometry x="720" y="310" width="20" height="30" as="geometry" />
        </mxCell>
        <mxCell id="xmY6_0Rzzx6PVl5tX0tT-29" value="&lt;span&gt;&lt;b&gt;program&lt;/b&gt;: procedure+&lt;/span&gt;&lt;span&gt;&lt;br&gt;&lt;b&gt;procedure&lt;/b&gt;: ‘procedure’ proc_name ‘{‘ stmtLst ‘}’&lt;/span&gt;&lt;span&gt;&lt;/span&gt;&lt;span&gt;&lt;br&gt;&lt;b&gt;&lt;br&gt;stmtLst&lt;/b&gt;: stmt+&lt;/span&gt;&lt;span&gt;&lt;br&gt;&lt;b&gt;stmt&lt;/b&gt;: read | print | assign | while | if | call&lt;/span&gt;&lt;span&gt;&lt;/span&gt;&lt;p&gt;&lt;span&gt;&lt;b&gt;read&lt;/b&gt;: ‘read’ var_name’;’&lt;br&gt;&lt;/span&gt;&lt;span&gt;&lt;b&gt;assign&lt;/b&gt;: var_name ‘=’ expr ‘;’&lt;/span&gt;&lt;br&gt;&lt;span&gt;&lt;b&gt;expr&lt;/b&gt;: expr ‘+’ term | expr ‘-’ term | term&lt;br&gt;&lt;b&gt;term&lt;/b&gt;: term ‘*’ factor | term ‘/’ factor | term ‘%’ factor | factor&lt;br&gt;&lt;b&gt;factor&lt;/b&gt;: var_name | const_value | ‘(’ expr ‘)’&lt;/span&gt;&lt;/p&gt;&lt;p&gt;&lt;span&gt;&lt;/span&gt;&lt;/p&gt;" style="text;html=1;strokeColor=default;fillColor=none;align=left;verticalAlign=top;whiteSpace=wrap;rounded=0;labelPosition=center;verticalLabelPosition=middle;" parent="xmY6_0Rzzx6PVl5tX0tT-1" vertex="1">
          <mxGeometry x="101.12" y="43.57" width="325.88" height="166.43" as="geometry" />
        </mxCell>
        <mxCell id="xmY6_0Rzzx6PVl5tX0tT-30" value="Grammar Rules" style="text;html=1;strokeColor=none;fillColor=none;align=center;verticalAlign=middle;whiteSpace=wrap;rounded=0;fontSize=21;" parent="xmY6_0Rzzx6PVl5tX0tT-1" vertex="1">
          <mxGeometry x="101.12" y="20" width="325.8795180722891" height="22.580645161290324" as="geometry" />
        </mxCell>
        <mxCell id="xmY6_0Rzzx6PVl5tX0tT-49" value="proc_name&lt;br style=&quot;font-size: 13px;&quot;&gt;echo" style="rounded=0;whiteSpace=wrap;html=1;fontStyle=0;fillColor=none;fontSize=13;" parent="xmY6_0Rzzx6PVl5tX0tT-1" vertex="1">
          <mxGeometry x="620" y="250" width="100" height="30" as="geometry" />
        </mxCell>
        <mxCell id="xmY6_0Rzzx6PVl5tX0tT-51" value="assign =" style="rounded=1;whiteSpace=wrap;html=1;fontSize=16;strokeColor=#d6b656;fillColor=#fff2cc;" parent="xmY6_0Rzzx6PVl5tX0tT-1" vertex="1">
          <mxGeometry x="633" y="360" width="94" height="30" as="geometry" />
        </mxCell>
        <mxCell id="xmY6_0Rzzx6PVl5tX0tT-52" value="varname" style="rounded=0;whiteSpace=wrap;html=1;fontStyle=0;fillColor=none;fontSize=16;" parent="xmY6_0Rzzx6PVl5tX0tT-1" vertex="1">
          <mxGeometry x="553" y="360" width="80" height="30" as="geometry" />
        </mxCell>
        <mxCell id="xmY6_0Rzzx6PVl5tX0tT-53" value=";" style="rounded=0;whiteSpace=wrap;html=1;fontStyle=1;fillColor=#f8cecc;fontSize=16;strokeColor=#b85450;" parent="xmY6_0Rzzx6PVl5tX0tT-1" vertex="1">
          <mxGeometry x="777" y="360" width="20" height="30" as="geometry" />
        </mxCell>
        <mxCell id="xmY6_0Rzzx6PVl5tX0tT-61" value="" style="edgeStyle=orthogonalEdgeStyle;rounded=0;orthogonalLoop=1;jettySize=auto;html=1;fontSize=13;entryX=0.5;entryY=0;entryDx=0;entryDy=0;" parent="xmY6_0Rzzx6PVl5tX0tT-1" source="xmY6_0Rzzx6PVl5tX0tT-54" target="xmY6_0Rzzx6PVl5tX0tT-56" edge="1">
          <mxGeometry relative="1" as="geometry">
            <Array as="points">
              <mxPoint x="752" y="410" />
              <mxPoint x="591" y="410" />
            </Array>
          </mxGeometry>
        </mxCell>
        <mxCell id="xmY6_0Rzzx6PVl5tX0tT-54" value="expr" style="rounded=0;whiteSpace=wrap;html=1;fontStyle=0;fillColor=none;fontSize=16;" parent="xmY6_0Rzzx6PVl5tX0tT-1" vertex="1">
          <mxGeometry x="727" y="360" width="50" height="30" as="geometry" />
        </mxCell>
        <mxCell id="xmY6_0Rzzx6PVl5tX0tT-62" value="" style="edgeStyle=orthogonalEdgeStyle;rounded=0;orthogonalLoop=1;jettySize=auto;html=1;fontSize=13;" parent="xmY6_0Rzzx6PVl5tX0tT-1" source="xmY6_0Rzzx6PVl5tX0tT-56" target="xmY6_0Rzzx6PVl5tX0tT-58" edge="1">
          <mxGeometry relative="1" as="geometry" />
        </mxCell>
        <mxCell id="xmY6_0Rzzx6PVl5tX0tT-56" value="expr" style="rounded=1;whiteSpace=wrap;html=1;fontSize=16;strokeColor=#d6b656;fillColor=#fff2cc;" parent="xmY6_0Rzzx6PVl5tX0tT-1" vertex="1">
          <mxGeometry x="561" y="430" width="59" height="30" as="geometry" />
        </mxCell>
        <mxCell id="xmY6_0Rzzx6PVl5tX0tT-57" value="var_name" style="rounded=0;whiteSpace=wrap;html=1;fontStyle=0;fillColor=none;fontSize=16;" parent="xmY6_0Rzzx6PVl5tX0tT-1" vertex="1">
          <mxGeometry x="870" y="430" width="90" height="30" as="geometry" />
        </mxCell>
        <mxCell id="xmY6_0Rzzx6PVl5tX0tT-63" value="" style="edgeStyle=orthogonalEdgeStyle;rounded=0;orthogonalLoop=1;jettySize=auto;html=1;fontSize=13;" parent="xmY6_0Rzzx6PVl5tX0tT-1" source="xmY6_0Rzzx6PVl5tX0tT-58" target="xmY6_0Rzzx6PVl5tX0tT-60" edge="1">
          <mxGeometry relative="1" as="geometry" />
        </mxCell>
        <mxCell id="xmY6_0Rzzx6PVl5tX0tT-58" value="term" style="rounded=1;whiteSpace=wrap;html=1;fontSize=16;strokeColor=#d6b656;fillColor=#fff2cc;" parent="xmY6_0Rzzx6PVl5tX0tT-1" vertex="1">
          <mxGeometry x="668" y="430" width="59" height="30" as="geometry" />
        </mxCell>
        <mxCell id="xmY6_0Rzzx6PVl5tX0tT-64" value="" style="edgeStyle=orthogonalEdgeStyle;rounded=0;orthogonalLoop=1;jettySize=auto;html=1;fontSize=13;" parent="xmY6_0Rzzx6PVl5tX0tT-1" source="xmY6_0Rzzx6PVl5tX0tT-60" target="xmY6_0Rzzx6PVl5tX0tT-57" edge="1">
          <mxGeometry relative="1" as="geometry" />
        </mxCell>
        <mxCell id="xmY6_0Rzzx6PVl5tX0tT-60" value="factor" style="rounded=1;whiteSpace=wrap;html=1;fontSize=16;strokeColor=#d6b656;fillColor=#fff2cc;" parent="xmY6_0Rzzx6PVl5tX0tT-1" vertex="1">
          <mxGeometry x="770" y="430" width="59" height="30" as="geometry" />
        </mxCell>
        <mxCell id="xmY6_0Rzzx6PVl5tX0tT-69" value="Terminal" style="text;html=1;strokeColor=none;fillColor=none;align=center;verticalAlign=middle;whiteSpace=wrap;rounded=0;fontSize=15;fontStyle=2" parent="xmY6_0Rzzx6PVl5tX0tT-1" vertex="1">
          <mxGeometry x="820" y="224" width="60" height="30" as="geometry" />
        </mxCell>
        <mxCell id="xmY6_0Rzzx6PVl5tX0tT-77" value="Enum-Cat&lt;br&gt;&lt;br&gt;&lt;div&gt;Start&lt;/div&gt;&lt;div&gt;Keyword&lt;/div&gt;&lt;div&gt;Terminal&lt;/div&gt;&lt;div&gt;Operator&lt;/div&gt;&lt;div&gt;var_name&lt;/div&gt;&lt;div&gt;const_value&lt;br&gt;&lt;/div&gt;&lt;div&gt;others&lt;br&gt;proc_name&lt;br&gt;&lt;/div&gt;" style="text;html=1;strokeColor=default;fillColor=none;align=left;verticalAlign=top;whiteSpace=wrap;rounded=0;" parent="xmY6_0Rzzx6PVl5tX0tT-1" vertex="1">
          <mxGeometry x="10" y="470" width="110" height="160" as="geometry" />
        </mxCell>
        <mxCell id="xmY6_0Rzzx6PVl5tX0tT-81" value="" style="edgeStyle=orthogonalEdgeStyle;rounded=0;jumpSize=9;orthogonalLoop=1;jettySize=auto;html=1;fontSize=13;strokeColor=#000000;entryX=0.441;entryY=-0.067;entryDx=0;entryDy=0;entryPerimeter=0;" parent="xmY6_0Rzzx6PVl5tX0tT-1" target="xmY6_0Rzzx6PVl5tX0tT-79" edge="1">
          <mxGeometry relative="1" as="geometry">
            <mxPoint x="190" y="330" as="sourcePoint" />
            <mxPoint x="120" y="419" as="targetPoint" />
          </mxGeometry>
        </mxCell>
        <mxCell id="xmY6_0Rzzx6PVl5tX0tT-94" value="" style="edgeStyle=orthogonalEdgeStyle;rounded=0;jumpSize=9;orthogonalLoop=1;jettySize=auto;html=1;fontSize=13;strokeColor=#000000;entryX=0;entryY=0;entryDx=0;entryDy=0;" parent="xmY6_0Rzzx6PVl5tX0tT-1" source="xmY6_0Rzzx6PVl5tX0tT-79" target="xmY6_0Rzzx6PVl5tX0tT-73" edge="1">
          <mxGeometry relative="1" as="geometry">
            <Array as="points">
              <mxPoint x="213" y="520" />
            </Array>
          </mxGeometry>
        </mxCell>
        <mxCell id="xmY6_0Rzzx6PVl5tX0tT-79" value="Vector of TokenStruct" style="text;html=1;strokeColor=none;fillColor=none;align=center;verticalAlign=middle;whiteSpace=wrap;rounded=0;fontSize=15;fontStyle=2" parent="xmY6_0Rzzx6PVl5tX0tT-1" vertex="1">
          <mxGeometry x="120" y="460" width="186" height="30" as="geometry" />
        </mxCell>
        <mxCell id="xmY6_0Rzzx6PVl5tX0tT-98" value="Parser" style="text;html=1;strokeColor=none;fillColor=none;align=center;verticalAlign=middle;whiteSpace=wrap;rounded=0;fontSize=15;fontStyle=1" parent="xmY6_0Rzzx6PVl5tX0tT-1" vertex="1">
          <mxGeometry x="470" y="160" width="60" height="30" as="geometry" />
        </mxCell>
        <mxCell id="xmY6_0Rzzx6PVl5tX0tT-99" value="&lt;div&gt;&lt;b&gt;Parser Pseudo-code&lt;/b&gt; &lt;br&gt;&lt;/div&gt;&lt;div&gt;&lt;br&gt;&lt;/div&gt;&lt;div&gt;&lt;br&gt;&lt;/div&gt;&lt;div&gt;loop over (vector of TokenStructs)&amp;nbsp;&lt;/div&gt;&lt;div&gt;&amp;nbsp;&amp;nbsp; switch(token cat):&lt;/div&gt;&lt;div&gt;&amp;nbsp;&amp;nbsp;&amp;nbsp;&amp;nbsp;&amp;nbsp; procedure:&amp;nbsp;&amp;nbsp; call procedure()&lt;/div&gt;&lt;div&gt;&amp;nbsp;&amp;nbsp;&amp;nbsp;&amp;nbsp;&amp;nbsp;&amp;nbsp;&amp;nbsp;&amp;nbsp; ⋮&lt;/div&gt;&lt;div&gt;&lt;b&gt;&lt;br&gt;&lt;/b&gt;&lt;/div&gt;&lt;div&gt;procedure()&lt;/div&gt;&lt;div&gt;&lt;b&gt;&amp;nbsp;&amp;nbsp;&amp;nbsp;&amp;nbsp; &lt;br&gt;&lt;/b&gt;&lt;/div&gt;&lt;div&gt;&amp;nbsp;&amp;nbsp;&amp;nbsp;&amp;nbsp;&amp;nbsp;&amp;nbsp;&amp;nbsp;&amp;nbsp;&amp;nbsp;&amp;nbsp; &lt;br&gt;&lt;/div&gt;" style="whiteSpace=wrap;html=1;aspect=fixed;fontSize=13;strokeColor=default;strokeWidth=1;fillColor=none;align=left;verticalAlign=top;" parent="xmY6_0Rzzx6PVl5tX0tT-1" vertex="1">
          <mxGeometry x="414" y="510" width="246" height="246" as="geometry" />
        </mxCell>
        <mxCell id="xmY6_0Rzzx6PVl5tX0tT-101" value="string" style="rounded=0;whiteSpace=wrap;html=1;fontStyle=1;fillColor=none;container=0;" parent="xmY6_0Rzzx6PVl5tX0tT-1" vertex="1">
          <mxGeometry x="229" y="757" width="70" height="20" as="geometry" />
        </mxCell>
        <mxCell id="xmY6_0Rzzx6PVl5tX0tT-102" value="Enum-Cat" style="rounded=0;whiteSpace=wrap;html=1;fontStyle=1;fillColor=none;container=0;" parent="xmY6_0Rzzx6PVl5tX0tT-1" vertex="1">
          <mxGeometry x="229" y="777" width="70" height="20" as="geometry" />
        </mxCell>
        <mxCell id="xmY6_0Rzzx6PVl5tX0tT-103" value="read" style="rounded=0;whiteSpace=wrap;html=1;fontStyle=0;fillColor=none;container=0;" parent="xmY6_0Rzzx6PVl5tX0tT-1" vertex="1">
          <mxGeometry x="299" y="757" width="70" height="20" as="geometry" />
        </mxCell>
        <mxCell id="xmY6_0Rzzx6PVl5tX0tT-104" value="keyword" style="rounded=0;whiteSpace=wrap;html=1;fontStyle=0;fillColor=none;container=0;" parent="xmY6_0Rzzx6PVl5tX0tT-1" vertex="1">
          <mxGeometry x="299" y="777" width="70" height="20" as="geometry" />
        </mxCell>
        <mxCell id="xmY6_0Rzzx6PVl5tX0tT-72" value="string" style="rounded=0;whiteSpace=wrap;html=1;fontStyle=1;fillColor=none;container=0;" parent="xmY6_0Rzzx6PVl5tX0tT-1" vertex="1">
          <mxGeometry x="229" y="500" width="70" height="20" as="geometry" />
        </mxCell>
        <mxCell id="xmY6_0Rzzx6PVl5tX0tT-73" value="Enum-Cat" style="rounded=0;whiteSpace=wrap;html=1;fontStyle=1;fillColor=none;container=0;" parent="xmY6_0Rzzx6PVl5tX0tT-1" vertex="1">
          <mxGeometry x="229" y="520" width="70" height="20" as="geometry" />
        </mxCell>
        <mxCell id="xmY6_0Rzzx6PVl5tX0tT-75" value="procedure" style="rounded=0;whiteSpace=wrap;html=1;fontStyle=0;fillColor=none;container=0;" parent="xmY6_0Rzzx6PVl5tX0tT-1" vertex="1">
          <mxGeometry x="299" y="500" width="70" height="20" as="geometry" />
        </mxCell>
        <mxCell id="xmY6_0Rzzx6PVl5tX0tT-76" value="Keyword" style="rounded=0;whiteSpace=wrap;html=1;fontStyle=0;fillColor=none;container=0;" parent="xmY6_0Rzzx6PVl5tX0tT-1" vertex="1">
          <mxGeometry x="299" y="520" width="70" height="20" as="geometry" />
        </mxCell>
        <mxCell id="xmY6_0Rzzx6PVl5tX0tT-106" value="Lookahead" style="rounded=0;whiteSpace=wrap;html=1;fontStyle=1;fillColor=none;container=0;" parent="xmY6_0Rzzx6PVl5tX0tT-1" vertex="1">
          <mxGeometry x="229" y="540" width="70" height="20" as="geometry" />
        </mxCell>
        <mxCell id="xmY6_0Rzzx6PVl5tX0tT-107" value="proc_name" style="rounded=0;whiteSpace=wrap;html=1;fontStyle=0;fillColor=none;container=0;" parent="xmY6_0Rzzx6PVl5tX0tT-1" vertex="1">
          <mxGeometry x="299" y="540" width="70" height="20" as="geometry" />
        </mxCell>
        <mxCell id="xmY6_0Rzzx6PVl5tX0tT-84" value="string" style="rounded=0;whiteSpace=wrap;html=1;fontStyle=1;fillColor=none;container=0;" parent="xmY6_0Rzzx6PVl5tX0tT-1" vertex="1">
          <mxGeometry x="229" y="575" width="70" height="20" as="geometry" />
        </mxCell>
        <mxCell id="xmY6_0Rzzx6PVl5tX0tT-85" value="Enum-Cat" style="rounded=0;whiteSpace=wrap;html=1;fontStyle=1;fillColor=none;container=0;" parent="xmY6_0Rzzx6PVl5tX0tT-1" vertex="1">
          <mxGeometry x="229" y="595" width="70" height="20" as="geometry" />
        </mxCell>
        <mxCell id="xmY6_0Rzzx6PVl5tX0tT-86" value="echo" style="rounded=0;whiteSpace=wrap;html=1;fontStyle=0;fillColor=none;container=0;" parent="xmY6_0Rzzx6PVl5tX0tT-1" vertex="1">
          <mxGeometry x="299" y="575" width="70" height="20" as="geometry" />
        </mxCell>
        <mxCell id="xmY6_0Rzzx6PVl5tX0tT-87" value="factor" style="rounded=0;whiteSpace=wrap;html=1;fontStyle=0;fillColor=none;container=0;" parent="xmY6_0Rzzx6PVl5tX0tT-1" vertex="1">
          <mxGeometry x="299" y="595" width="70" height="20" as="geometry" />
        </mxCell>
        <mxCell id="xmY6_0Rzzx6PVl5tX0tT-108" value="Lookahead" style="rounded=0;whiteSpace=wrap;html=1;fontStyle=1;fillColor=none;container=0;" parent="xmY6_0Rzzx6PVl5tX0tT-1" vertex="1">
          <mxGeometry x="229" y="615" width="70" height="20" as="geometry" />
        </mxCell>
        <mxCell id="xmY6_0Rzzx6PVl5tX0tT-109" value="{" style="rounded=0;whiteSpace=wrap;html=1;fontStyle=0;fillColor=none;container=0;" parent="xmY6_0Rzzx6PVl5tX0tT-1" vertex="1">
          <mxGeometry x="299" y="615" width="70" height="20" as="geometry" />
        </mxCell>
        <mxCell id="xmY6_0Rzzx6PVl5tX0tT-110" value="Lookahead" style="rounded=0;whiteSpace=wrap;html=1;fontStyle=1;fillColor=none;container=0;" parent="xmY6_0Rzzx6PVl5tX0tT-1" vertex="1">
          <mxGeometry x="229" y="707" width="70" height="20" as="geometry" />
        </mxCell>
        <mxCell id="xmY6_0Rzzx6PVl5tX0tT-111" value="keyword" style="rounded=0;whiteSpace=wrap;html=1;fontStyle=0;fillColor=none;container=0;" parent="xmY6_0Rzzx6PVl5tX0tT-1" vertex="1">
          <mxGeometry x="299" y="707" width="70" height="20" as="geometry" />
        </mxCell>
        <mxCell id="xmY6_0Rzzx6PVl5tX0tT-89" value="string" style="rounded=0;whiteSpace=wrap;html=1;fontStyle=1;fillColor=none;" parent="xmY6_0Rzzx6PVl5tX0tT-1" vertex="1">
          <mxGeometry x="229" y="667" width="70" height="20" as="geometry" />
        </mxCell>
        <mxCell id="xmY6_0Rzzx6PVl5tX0tT-90" value="Enum-Cat" style="rounded=0;whiteSpace=wrap;html=1;fontStyle=1;fillColor=none;" parent="xmY6_0Rzzx6PVl5tX0tT-1" vertex="1">
          <mxGeometry x="229" y="687" width="70" height="20" as="geometry" />
        </mxCell>
        <mxCell id="xmY6_0Rzzx6PVl5tX0tT-91" value="{" style="rounded=0;whiteSpace=wrap;html=1;fontStyle=0;fillColor=none;" parent="xmY6_0Rzzx6PVl5tX0tT-1" vertex="1">
          <mxGeometry x="299" y="667" width="70" height="20" as="geometry" />
        </mxCell>
        <mxCell id="xmY6_0Rzzx6PVl5tX0tT-92" value="others" style="rounded=0;whiteSpace=wrap;html=1;fontStyle=0;fillColor=none;" parent="xmY6_0Rzzx6PVl5tX0tT-1" vertex="1">
          <mxGeometry x="299" y="687" width="70" height="20" as="geometry" />
        </mxCell>
        <mxCell id="xmY6_0Rzzx6PVl5tX0tT-112" value="Lookahead" style="rounded=0;whiteSpace=wrap;html=1;fontStyle=1;fillColor=none;container=0;" parent="xmY6_0Rzzx6PVl5tX0tT-1" vertex="1">
          <mxGeometry x="229" y="797" width="70" height="20" as="geometry" />
        </mxCell>
        <mxCell id="xmY6_0Rzzx6PVl5tX0tT-113" value="factor" style="rounded=0;whiteSpace=wrap;html=1;fontStyle=0;fillColor=none;container=0;" parent="xmY6_0Rzzx6PVl5tX0tT-1" vertex="1">
          <mxGeometry x="299" y="797" width="70" height="20" as="geometry" />
        </mxCell>
      </root>
    </mxGraphModel>
  </diagram>
  <diagram id="J1aV62pHYMWROI-onGlJ" name="SyntaxDiagram">
    <mxGraphModel dx="1127" dy="791" grid="0" gridSize="10" guides="1" tooltips="1" connect="1" arrows="1" fold="1" page="1" pageScale="1" pageWidth="1169" pageHeight="827" math="0" shadow="0">
      <root>
        <mxCell id="Nqbd7N0HCV10yQmwLvFE-0" />
        <mxCell id="Nqbd7N0HCV10yQmwLvFE-1" parent="Nqbd7N0HCV10yQmwLvFE-0" />
        <mxCell id="mw4mCr__2XpTh4b3JejW-30" value="&amp;nbsp;&amp;nbsp; print" style="rounded=0;whiteSpace=wrap;html=1;strokeWidth=1;fillColor=none;align=left;verticalAlign=top;fontStyle=1;strokeColor=#B3B3B3;" vertex="1" parent="Nqbd7N0HCV10yQmwLvFE-1">
          <mxGeometry x="560" y="494" width="275" height="114" as="geometry" />
        </mxCell>
        <mxCell id="Nqbd7N0HCV10yQmwLvFE-2" value="&lt;span&gt;&lt;b&gt;program&lt;/b&gt;: procedure+&lt;/span&gt;&lt;span&gt;&lt;br&gt;&lt;b&gt;procedure&lt;/b&gt;: ‘procedure’ proc_name ‘{‘ stmtLst ‘}’&lt;/span&gt;&lt;span&gt;&lt;/span&gt;&lt;span&gt;&lt;br&gt;&lt;b&gt;stmtLst&lt;/b&gt;: stmt+&lt;/span&gt;&lt;span&gt;&lt;br&gt;&lt;b&gt;stmt&lt;/b&gt;: read | print | assign | while | if | call&lt;/span&gt;&lt;span&gt;&lt;/span&gt;&lt;br&gt;&lt;br&gt;&lt;span&gt;&lt;b&gt;read&lt;/b&gt;: ‘read’ var_name’;’&lt;br&gt;&lt;/span&gt;&lt;b&gt;print&lt;/b&gt;: ‘print’ var_name;&lt;div&gt;&lt;span&gt;&lt;/span&gt;&lt;span&gt;&lt;b&gt;assign&lt;/b&gt;: var_name ‘=’&lt;/span&gt; factor ‘;’&lt;/div&gt;&lt;br&gt;&lt;span&gt;&lt;/span&gt;&lt;span&gt;&lt;b&gt;factor&lt;/b&gt;: var_name | const_value &lt;br&gt;&lt;/span&gt;&lt;p&gt;&lt;span&gt;&lt;/span&gt;&lt;/p&gt;" style="text;html=1;strokeColor=default;fillColor=none;align=left;verticalAlign=top;whiteSpace=wrap;rounded=0;labelPosition=center;verticalLabelPosition=middle;" vertex="1" parent="Nqbd7N0HCV10yQmwLvFE-1">
          <mxGeometry x="20" y="10" width="347" height="166.43" as="geometry" />
        </mxCell>
        <mxCell id="Nqbd7N0HCV10yQmwLvFE-21" value="&lt;span&gt;&lt;/span&gt;&lt;b&gt;NAME&lt;/b&gt; : LETTER (LETTER | DIGIT)* -- procedure names and variables are strings of letters, and digits, starting with a letter&lt;br&gt;&lt;b&gt;INTEGER&lt;/b&gt;: DIGIT+ -- constants are sequences of digits&lt;br&gt;&lt;b&gt;LETTER&lt;/b&gt; : A-Z | a-z -- capital or small letter&lt;br&gt;&lt;b&gt;DIGIT&lt;/b&gt; : 0-9&lt;br&gt;&lt;br&gt;&lt;div&gt;&lt;span&gt;&lt;b&gt;var_name&lt;/b&gt;,&lt;b&gt; proc_name&lt;/b&gt;: NAME&lt;/span&gt;&lt;/div&gt;&lt;div&gt;&lt;b&gt;const_value&lt;/b&gt;: INTEGER&lt;span&gt;&lt;/span&gt;&lt;/div&gt;&lt;p&gt;&lt;br&gt;&lt;br&gt;&lt;/p&gt;&lt;p&gt;&lt;span&gt;&lt;/span&gt;&lt;/p&gt;" style="text;html=1;strokeColor=default;fillColor=none;align=left;verticalAlign=top;whiteSpace=wrap;rounded=0;labelPosition=center;verticalLabelPosition=middle;" vertex="1" parent="Nqbd7N0HCV10yQmwLvFE-1">
          <mxGeometry x="367" y="10" width="347" height="166.43" as="geometry" />
        </mxCell>
        <mxCell id="Nqbd7N0HCV10yQmwLvFE-329" value="" style="group" vertex="1" connectable="0" parent="Nqbd7N0HCV10yQmwLvFE-1">
          <mxGeometry x="380" y="600" width="180" height="120" as="geometry" />
        </mxCell>
        <mxCell id="Nqbd7N0HCV10yQmwLvFE-20" value="&amp;nbsp;&amp;nbsp; var_name , proc_name" style="rounded=0;whiteSpace=wrap;html=1;strokeWidth=1;fillColor=none;align=left;verticalAlign=top;fontStyle=1;strokeColor=#B3B3B3;" vertex="1" parent="Nqbd7N0HCV10yQmwLvFE-329">
          <mxGeometry y="-60" width="180" height="180" as="geometry" />
        </mxCell>
        <mxCell id="Nqbd7N0HCV10yQmwLvFE-312" value="" style="edgeStyle=orthogonalEdgeStyle;rounded=0;orthogonalLoop=1;jettySize=auto;html=1;fontSize=10;endArrow=classicThin;endFill=1;exitX=1;exitY=0.5;exitDx=0;exitDy=0;" edge="1" parent="Nqbd7N0HCV10yQmwLvFE-329" source="Nqbd7N0HCV10yQmwLvFE-308">
          <mxGeometry relative="1" as="geometry">
            <mxPoint x="170" y="22" as="targetPoint" />
            <Array as="points">
              <mxPoint x="97" y="22" />
              <mxPoint x="97" y="22" />
            </Array>
          </mxGeometry>
        </mxCell>
        <mxCell id="Nqbd7N0HCV10yQmwLvFE-308" value="LETTER" style="rounded=0;whiteSpace=wrap;html=1;strokeWidth=1;fillColor=none;" vertex="1" parent="Nqbd7N0HCV10yQmwLvFE-329">
          <mxGeometry x="27" y="12" width="60" height="20" as="geometry" />
        </mxCell>
        <mxCell id="Nqbd7N0HCV10yQmwLvFE-309" value="DIGIT" style="rounded=0;whiteSpace=wrap;html=1;strokeWidth=1;fillColor=none;" vertex="1" parent="Nqbd7N0HCV10yQmwLvFE-329">
          <mxGeometry x="105" y="42" width="40" height="20" as="geometry" />
        </mxCell>
        <mxCell id="Nqbd7N0HCV10yQmwLvFE-311" value="" style="edgeStyle=orthogonalEdgeStyle;rounded=0;orthogonalLoop=1;jettySize=auto;html=1;fontSize=10;endArrow=classicThin;endFill=1;entryX=0;entryY=0.5;entryDx=0;entryDy=0;" edge="1" parent="Nqbd7N0HCV10yQmwLvFE-329" target="Nqbd7N0HCV10yQmwLvFE-308">
          <mxGeometry relative="1" as="geometry">
            <mxPoint x="7" y="22" as="sourcePoint" />
            <mxPoint x="157" y="-22.279999999999745" as="targetPoint" />
            <Array as="points" />
          </mxGeometry>
        </mxCell>
        <mxCell id="Nqbd7N0HCV10yQmwLvFE-313" value="" style="edgeStyle=orthogonalEdgeStyle;rounded=0;orthogonalLoop=1;jettySize=auto;html=1;fontSize=10;endArrow=classicThin;endFill=1;entryX=0;entryY=0.5;entryDx=0;entryDy=0;" edge="1" parent="Nqbd7N0HCV10yQmwLvFE-329" target="Nqbd7N0HCV10yQmwLvFE-309">
          <mxGeometry relative="1" as="geometry">
            <mxPoint x="100" y="22" as="sourcePoint" />
            <mxPoint x="167" y="32" as="targetPoint" />
            <Array as="points">
              <mxPoint x="90" y="22" />
              <mxPoint x="90" y="52" />
            </Array>
          </mxGeometry>
        </mxCell>
        <mxCell id="Nqbd7N0HCV10yQmwLvFE-315" value="" style="endArrow=none;html=1;rounded=0;fontSize=10;entryX=1;entryY=0.5;entryDx=0;entryDy=0;" edge="1" parent="Nqbd7N0HCV10yQmwLvFE-329" target="Nqbd7N0HCV10yQmwLvFE-309">
          <mxGeometry width="50" height="50" relative="1" as="geometry">
            <mxPoint x="154" y="-8" as="sourcePoint" />
            <mxPoint x="154" y="52" as="targetPoint" />
            <Array as="points">
              <mxPoint x="154" y="52" />
            </Array>
          </mxGeometry>
        </mxCell>
        <mxCell id="Nqbd7N0HCV10yQmwLvFE-316" value="" style="endArrow=none;html=1;rounded=0;fontSize=10;endFill=0;startArrow=classicThin;startFill=1;" edge="1" parent="Nqbd7N0HCV10yQmwLvFE-329">
          <mxGeometry width="50" height="50" relative="1" as="geometry">
            <mxPoint x="14" y="22" as="sourcePoint" />
            <mxPoint x="154" y="-8" as="targetPoint" />
            <Array as="points">
              <mxPoint x="14" y="-8" />
            </Array>
          </mxGeometry>
        </mxCell>
        <mxCell id="Nqbd7N0HCV10yQmwLvFE-331" value="" style="group" vertex="1" connectable="0" parent="Nqbd7N0HCV10yQmwLvFE-1">
          <mxGeometry x="20" y="200" width="360" height="520" as="geometry" />
        </mxCell>
        <mxCell id="Nqbd7N0HCV10yQmwLvFE-226" value="&amp;nbsp;&amp;nbsp; LETTER" style="rounded=0;whiteSpace=wrap;html=1;strokeWidth=1;fillColor=none;align=left;verticalAlign=top;fontStyle=1;strokeColor=#B3B3B3;" vertex="1" parent="Nqbd7N0HCV10yQmwLvFE-331">
          <mxGeometry x="180" width="180" height="520" as="geometry" />
        </mxCell>
        <mxCell id="Nqbd7N0HCV10yQmwLvFE-144" value="" style="group" vertex="1" connectable="0" parent="Nqbd7N0HCV10yQmwLvFE-331">
          <mxGeometry x="40" y="20" width="110" height="481" as="geometry" />
        </mxCell>
        <mxCell id="Nqbd7N0HCV10yQmwLvFE-22" value="&lt;b style=&quot;font-size: 10px;&quot;&gt;&#39;&lt;/b&gt;a&lt;b style=&quot;font-size: 10px;&quot;&gt;&#39;&lt;/b&gt;" style="strokeWidth=1;html=1;shape=mxgraph.flowchart.terminator;whiteSpace=wrap;fillColor=none;fontSize=10;" vertex="1" parent="Nqbd7N0HCV10yQmwLvFE-144">
          <mxGeometry x="30" width="50" height="10" as="geometry" />
        </mxCell>
        <mxCell id="Nqbd7N0HCV10yQmwLvFE-32" value="&lt;b style=&quot;font-size: 10px&quot;&gt;&#39;&lt;/b&gt;&lt;span style=&quot;font-size: 10px&quot;&gt;b&lt;/span&gt;&lt;b style=&quot;font-size: 10px&quot;&gt;&#39;&lt;/b&gt;" style="strokeWidth=1;html=1;shape=mxgraph.flowchart.terminator;whiteSpace=wrap;fillColor=none;fontSize=10;" vertex="1" parent="Nqbd7N0HCV10yQmwLvFE-144">
          <mxGeometry x="30" y="19" width="50" height="10" as="geometry" />
        </mxCell>
        <mxCell id="Nqbd7N0HCV10yQmwLvFE-42" value="&lt;b style=&quot;font-size: 10px&quot;&gt;&#39;&lt;/b&gt;&lt;span style=&quot;font-size: 10px&quot;&gt;d&lt;/span&gt;&lt;b style=&quot;font-size: 10px&quot;&gt;&#39;&lt;/b&gt;" style="strokeWidth=1;html=1;shape=mxgraph.flowchart.terminator;whiteSpace=wrap;fillColor=none;fontSize=10;" vertex="1" parent="Nqbd7N0HCV10yQmwLvFE-144">
          <mxGeometry x="30" y="57" width="50" height="10" as="geometry" />
        </mxCell>
        <mxCell id="Nqbd7N0HCV10yQmwLvFE-43" value="&lt;b style=&quot;font-size: 10px&quot;&gt;&#39;&lt;/b&gt;c&lt;b style=&quot;font-size: 10px&quot;&gt;&#39;&lt;/b&gt;" style="strokeWidth=1;html=1;shape=mxgraph.flowchart.terminator;whiteSpace=wrap;fillColor=none;fontSize=10;" vertex="1" parent="Nqbd7N0HCV10yQmwLvFE-144">
          <mxGeometry x="30" y="38" width="50" height="10" as="geometry" />
        </mxCell>
        <mxCell id="Nqbd7N0HCV10yQmwLvFE-44" value="&lt;b style=&quot;font-size: 10px&quot;&gt;&#39;&lt;/b&gt;e&lt;b style=&quot;font-size: 10px&quot;&gt;&#39;&lt;/b&gt;" style="strokeWidth=1;html=1;shape=mxgraph.flowchart.terminator;whiteSpace=wrap;fillColor=none;fontSize=10;" vertex="1" parent="Nqbd7N0HCV10yQmwLvFE-144">
          <mxGeometry x="30" y="75" width="50" height="10" as="geometry" />
        </mxCell>
        <mxCell id="Nqbd7N0HCV10yQmwLvFE-45" value="&lt;b style=&quot;font-size: 10px&quot;&gt;&#39;&lt;/b&gt;&lt;span style=&quot;font-size: 10px&quot;&gt;f&lt;/span&gt;&lt;b style=&quot;font-size: 10px&quot;&gt;&#39;&lt;/b&gt;" style="strokeWidth=1;html=1;shape=mxgraph.flowchart.terminator;whiteSpace=wrap;fillColor=none;fontSize=10;" vertex="1" parent="Nqbd7N0HCV10yQmwLvFE-144">
          <mxGeometry x="30" y="94" width="50" height="10" as="geometry" />
        </mxCell>
        <mxCell id="Nqbd7N0HCV10yQmwLvFE-46" value="&lt;b style=&quot;font-size: 10px&quot;&gt;&#39;&lt;/b&gt;h&lt;b style=&quot;font-size: 10px&quot;&gt;&#39;&lt;/b&gt;" style="strokeWidth=1;html=1;shape=mxgraph.flowchart.terminator;whiteSpace=wrap;fillColor=none;fontSize=10;" vertex="1" parent="Nqbd7N0HCV10yQmwLvFE-144">
          <mxGeometry x="30" y="132" width="50" height="10" as="geometry" />
        </mxCell>
        <mxCell id="Nqbd7N0HCV10yQmwLvFE-47" value="&lt;b style=&quot;font-size: 10px&quot;&gt;&#39;&lt;/b&gt;&lt;span style=&quot;font-size: 10px&quot;&gt;g&lt;/span&gt;&lt;b style=&quot;font-size: 10px&quot;&gt;&#39;&lt;/b&gt;" style="strokeWidth=1;html=1;shape=mxgraph.flowchart.terminator;whiteSpace=wrap;fillColor=none;fontSize=10;" vertex="1" parent="Nqbd7N0HCV10yQmwLvFE-144">
          <mxGeometry x="30" y="113" width="50" height="10" as="geometry" />
        </mxCell>
        <mxCell id="Nqbd7N0HCV10yQmwLvFE-48" value="&lt;b style=&quot;font-size: 10px&quot;&gt;&#39;&lt;/b&gt;&lt;span style=&quot;font-size: 10px&quot;&gt;i&lt;/span&gt;&lt;b style=&quot;font-size: 10px&quot;&gt;&#39;&lt;/b&gt;" style="strokeWidth=1;html=1;shape=mxgraph.flowchart.terminator;whiteSpace=wrap;fillColor=none;fontSize=10;" vertex="1" parent="Nqbd7N0HCV10yQmwLvFE-144">
          <mxGeometry x="30" y="151" width="50" height="10" as="geometry" />
        </mxCell>
        <mxCell id="Nqbd7N0HCV10yQmwLvFE-49" value="&lt;b style=&quot;font-size: 10px&quot;&gt;&#39;&lt;/b&gt;&lt;span style=&quot;font-size: 10px&quot;&gt;j&lt;/span&gt;&lt;span style=&quot;font-size: 10px&quot;&gt;&lt;/span&gt;&lt;b style=&quot;font-size: 10px&quot;&gt;&#39;&lt;/b&gt;" style="strokeWidth=1;html=1;shape=mxgraph.flowchart.terminator;whiteSpace=wrap;fillColor=none;fontSize=10;" vertex="1" parent="Nqbd7N0HCV10yQmwLvFE-144">
          <mxGeometry x="30" y="170" width="50" height="10" as="geometry" />
        </mxCell>
        <mxCell id="Nqbd7N0HCV10yQmwLvFE-50" value="&lt;b style=&quot;font-size: 10px&quot;&gt;&#39;&lt;/b&gt;&lt;span style=&quot;font-size: 10px&quot;&gt;l&lt;/span&gt;&lt;b style=&quot;font-size: 10px&quot;&gt;&#39;&lt;/b&gt;" style="strokeWidth=1;html=1;shape=mxgraph.flowchart.terminator;whiteSpace=wrap;fillColor=none;fontSize=10;" vertex="1" parent="Nqbd7N0HCV10yQmwLvFE-144">
          <mxGeometry x="30" y="207" width="50" height="10" as="geometry" />
        </mxCell>
        <mxCell id="Nqbd7N0HCV10yQmwLvFE-51" value="&lt;b style=&quot;font-size: 10px&quot;&gt;&#39;&lt;/b&gt;&lt;span style=&quot;font-size: 10px&quot;&gt;k&lt;/span&gt;&lt;b style=&quot;font-size: 10px&quot;&gt;&#39;&lt;/b&gt;" style="strokeWidth=1;html=1;shape=mxgraph.flowchart.terminator;whiteSpace=wrap;fillColor=none;fontSize=10;" vertex="1" parent="Nqbd7N0HCV10yQmwLvFE-144">
          <mxGeometry x="30" y="188" width="50" height="10" as="geometry" />
        </mxCell>
        <mxCell id="Nqbd7N0HCV10yQmwLvFE-52" value="&lt;b style=&quot;font-size: 10px&quot;&gt;&#39;&lt;/b&gt;&lt;span style=&quot;font-size: 10px&quot;&gt;m&lt;/span&gt;&lt;b style=&quot;font-size: 10px&quot;&gt;&#39;&lt;/b&gt;" style="strokeWidth=1;html=1;shape=mxgraph.flowchart.terminator;whiteSpace=wrap;fillColor=none;fontSize=10;" vertex="1" parent="Nqbd7N0HCV10yQmwLvFE-144">
          <mxGeometry x="30" y="226" width="50" height="10" as="geometry" />
        </mxCell>
        <mxCell id="Nqbd7N0HCV10yQmwLvFE-53" value="&lt;b style=&quot;font-size: 10px&quot;&gt;&#39;&lt;/b&gt;&lt;span style=&quot;font-size: 10px&quot;&gt;n&lt;/span&gt;&lt;b style=&quot;font-size: 10px&quot;&gt;&#39;&lt;/b&gt;" style="strokeWidth=1;html=1;shape=mxgraph.flowchart.terminator;whiteSpace=wrap;fillColor=none;fontSize=10;" vertex="1" parent="Nqbd7N0HCV10yQmwLvFE-144">
          <mxGeometry x="30" y="245" width="50" height="10" as="geometry" />
        </mxCell>
        <mxCell id="Nqbd7N0HCV10yQmwLvFE-54" value="&lt;b style=&quot;font-size: 10px&quot;&gt;&#39;&lt;/b&gt;&lt;span style=&quot;font-size: 10px&quot;&gt;p&lt;/span&gt;&lt;b style=&quot;font-size: 10px&quot;&gt;&#39;&lt;/b&gt;" style="strokeWidth=1;html=1;shape=mxgraph.flowchart.terminator;whiteSpace=wrap;fillColor=none;fontSize=10;" vertex="1" parent="Nqbd7N0HCV10yQmwLvFE-144">
          <mxGeometry x="30" y="283" width="50" height="10" as="geometry" />
        </mxCell>
        <mxCell id="Nqbd7N0HCV10yQmwLvFE-55" value="&lt;b style=&quot;font-size: 10px&quot;&gt;&#39;&lt;/b&gt;&lt;span style=&quot;font-size: 10px&quot;&gt;o&lt;/span&gt;&lt;b style=&quot;font-size: 10px&quot;&gt;&#39;&lt;/b&gt;" style="strokeWidth=1;html=1;shape=mxgraph.flowchart.terminator;whiteSpace=wrap;fillColor=none;fontSize=10;" vertex="1" parent="Nqbd7N0HCV10yQmwLvFE-144">
          <mxGeometry x="30" y="264" width="50" height="10" as="geometry" />
        </mxCell>
        <mxCell id="Nqbd7N0HCV10yQmwLvFE-56" value="&lt;b style=&quot;font-size: 10px&quot;&gt;&#39;&lt;/b&gt;&lt;span style=&quot;font-size: 10px&quot;&gt;q&lt;/span&gt;&lt;b style=&quot;font-size: 10px&quot;&gt;&#39;&lt;/b&gt;" style="strokeWidth=1;html=1;shape=mxgraph.flowchart.terminator;whiteSpace=wrap;fillColor=none;fontSize=10;" vertex="1" parent="Nqbd7N0HCV10yQmwLvFE-144">
          <mxGeometry x="30" y="301" width="50" height="10" as="geometry" />
        </mxCell>
        <mxCell id="Nqbd7N0HCV10yQmwLvFE-57" value="&lt;b style=&quot;font-size: 10px&quot;&gt;&#39;&lt;/b&gt;&lt;span style=&quot;font-size: 10px&quot;&gt;r&lt;/span&gt;&lt;b style=&quot;font-size: 10px&quot;&gt;&#39;&lt;/b&gt;" style="strokeWidth=1;html=1;shape=mxgraph.flowchart.terminator;whiteSpace=wrap;fillColor=none;fontSize=10;" vertex="1" parent="Nqbd7N0HCV10yQmwLvFE-144">
          <mxGeometry x="30" y="320" width="50" height="10" as="geometry" />
        </mxCell>
        <mxCell id="Nqbd7N0HCV10yQmwLvFE-58" value="&lt;b style=&quot;font-size: 10px&quot;&gt;&#39;&lt;/b&gt;&lt;span style=&quot;font-size: 10px&quot;&gt;t&lt;/span&gt;&lt;b style=&quot;font-size: 10px&quot;&gt;&#39;&lt;/b&gt;" style="strokeWidth=1;html=1;shape=mxgraph.flowchart.terminator;whiteSpace=wrap;fillColor=none;fontSize=10;" vertex="1" parent="Nqbd7N0HCV10yQmwLvFE-144">
          <mxGeometry x="30" y="358" width="50" height="10" as="geometry" />
        </mxCell>
        <mxCell id="Nqbd7N0HCV10yQmwLvFE-59" value="&lt;b style=&quot;font-size: 10px&quot;&gt;&#39;&lt;/b&gt;s&lt;b style=&quot;font-size: 10px&quot;&gt;&#39;&lt;/b&gt;" style="strokeWidth=1;html=1;shape=mxgraph.flowchart.terminator;whiteSpace=wrap;fillColor=none;fontSize=10;" vertex="1" parent="Nqbd7N0HCV10yQmwLvFE-144">
          <mxGeometry x="30" y="339" width="50" height="10" as="geometry" />
        </mxCell>
        <mxCell id="Nqbd7N0HCV10yQmwLvFE-60" value="&lt;div&gt;&lt;b style=&quot;font-size: 10px&quot;&gt;&#39;&lt;/b&gt;u&lt;b style=&quot;font-size: 10px&quot;&gt;&#39;&lt;/b&gt;&lt;/div&gt;" style="strokeWidth=1;html=1;shape=mxgraph.flowchart.terminator;whiteSpace=wrap;fillColor=none;fontSize=10;" vertex="1" parent="Nqbd7N0HCV10yQmwLvFE-144">
          <mxGeometry x="30" y="377" width="50" height="10" as="geometry" />
        </mxCell>
        <mxCell id="Nqbd7N0HCV10yQmwLvFE-61" value="&lt;b style=&quot;font-size: 10px&quot;&gt;&#39;&lt;/b&gt;&lt;span style=&quot;font-size: 10px&quot;&gt;v&lt;/span&gt;&lt;b style=&quot;font-size: 10px&quot;&gt;&#39;&lt;/b&gt;" style="strokeWidth=1;html=1;shape=mxgraph.flowchart.terminator;whiteSpace=wrap;fillColor=none;fontSize=10;" vertex="1" parent="Nqbd7N0HCV10yQmwLvFE-144">
          <mxGeometry x="30" y="396" width="50" height="10" as="geometry" />
        </mxCell>
        <mxCell id="Nqbd7N0HCV10yQmwLvFE-62" value="&lt;b style=&quot;font-size: 10px&quot;&gt;&#39;&lt;/b&gt;x&lt;b style=&quot;font-size: 10px&quot;&gt;&#39;&lt;/b&gt;" style="strokeWidth=1;html=1;shape=mxgraph.flowchart.terminator;whiteSpace=wrap;fillColor=none;fontSize=10;" vertex="1" parent="Nqbd7N0HCV10yQmwLvFE-144">
          <mxGeometry x="30" y="433" width="50" height="10" as="geometry" />
        </mxCell>
        <mxCell id="Nqbd7N0HCV10yQmwLvFE-63" value="&lt;b style=&quot;font-size: 10px&quot;&gt;&#39;&lt;/b&gt;&lt;span style=&quot;font-size: 10px&quot;&gt;w&lt;/span&gt;&lt;b style=&quot;font-size: 10px&quot;&gt;&#39;&lt;/b&gt;" style="strokeWidth=1;html=1;shape=mxgraph.flowchart.terminator;whiteSpace=wrap;fillColor=none;fontSize=10;" vertex="1" parent="Nqbd7N0HCV10yQmwLvFE-144">
          <mxGeometry x="30" y="414" width="50" height="10" as="geometry" />
        </mxCell>
        <mxCell id="Nqbd7N0HCV10yQmwLvFE-64" value="&lt;b style=&quot;font-size: 10px&quot;&gt;&#39;&lt;/b&gt;z&lt;b style=&quot;font-size: 10px&quot;&gt;&#39;&lt;/b&gt;" style="strokeWidth=1;html=1;shape=mxgraph.flowchart.terminator;whiteSpace=wrap;fillColor=none;fontSize=10;" vertex="1" parent="Nqbd7N0HCV10yQmwLvFE-144">
          <mxGeometry x="30" y="471" width="50" height="10" as="geometry" />
        </mxCell>
        <mxCell id="Nqbd7N0HCV10yQmwLvFE-65" value="&lt;b style=&quot;font-size: 10px&quot;&gt;&#39;&lt;/b&gt;&lt;span style=&quot;font-size: 10px&quot;&gt;y&lt;/span&gt;&lt;b style=&quot;font-size: 10px&quot;&gt;&#39;&lt;/b&gt;" style="strokeWidth=1;html=1;shape=mxgraph.flowchart.terminator;whiteSpace=wrap;fillColor=none;fontSize=10;" vertex="1" parent="Nqbd7N0HCV10yQmwLvFE-144">
          <mxGeometry x="30" y="452" width="50" height="10" as="geometry" />
        </mxCell>
        <mxCell id="Nqbd7N0HCV10yQmwLvFE-68" value="" style="edgeStyle=orthogonalEdgeStyle;rounded=0;orthogonalLoop=1;jettySize=auto;html=1;fontSize=10;endArrow=classic;endFill=1;entryX=0;entryY=0.5;entryDx=0;entryDy=0;entryPerimeter=0;" edge="1" parent="Nqbd7N0HCV10yQmwLvFE-144" target="Nqbd7N0HCV10yQmwLvFE-22">
          <mxGeometry relative="1" as="geometry">
            <mxPoint x="-10" y="5" as="sourcePoint" />
            <Array as="points">
              <mxPoint y="5" />
              <mxPoint y="5" />
            </Array>
          </mxGeometry>
        </mxCell>
        <mxCell id="Nqbd7N0HCV10yQmwLvFE-71" value="" style="edgeStyle=orthogonalEdgeStyle;rounded=0;orthogonalLoop=1;jettySize=auto;html=1;fontSize=10;endArrow=classic;endFill=1;entryX=0;entryY=0.5;entryDx=0;entryDy=0;entryPerimeter=0;exitX=1;exitY=0.5;exitDx=0;exitDy=0;" edge="1" parent="Nqbd7N0HCV10yQmwLvFE-144" target="Nqbd7N0HCV10yQmwLvFE-32">
          <mxGeometry relative="1" as="geometry">
            <mxPoint x="-10" y="5" as="sourcePoint" />
            <mxPoint x="40" y="15" as="targetPoint" />
            <Array as="points">
              <mxPoint y="5" />
              <mxPoint y="24" />
            </Array>
          </mxGeometry>
        </mxCell>
        <mxCell id="Nqbd7N0HCV10yQmwLvFE-74" value="" style="edgeStyle=orthogonalEdgeStyle;rounded=0;orthogonalLoop=1;jettySize=auto;html=1;fontSize=10;endArrow=classic;endFill=1;entryX=0;entryY=0.5;entryDx=0;entryDy=0;entryPerimeter=0;" edge="1" parent="Nqbd7N0HCV10yQmwLvFE-144" target="Nqbd7N0HCV10yQmwLvFE-64">
          <mxGeometry relative="1" as="geometry">
            <mxPoint y="10" as="sourcePoint" />
            <mxPoint x="-10" y="490" as="targetPoint" />
            <Array as="points">
              <mxPoint y="476" />
            </Array>
          </mxGeometry>
        </mxCell>
        <mxCell id="Nqbd7N0HCV10yQmwLvFE-87" value="" style="edgeStyle=orthogonalEdgeStyle;rounded=0;orthogonalLoop=1;jettySize=auto;html=1;fontSize=10;endArrow=classic;endFill=1;entryX=0;entryY=0.5;entryDx=0;entryDy=0;entryPerimeter=0;" edge="1" parent="Nqbd7N0HCV10yQmwLvFE-144">
          <mxGeometry relative="1" as="geometry">
            <mxPoint y="401.0000000000001" as="sourcePoint" />
            <mxPoint x="30" y="401.0000000000001" as="targetPoint" />
            <Array as="points">
              <mxPoint y="401" />
            </Array>
          </mxGeometry>
        </mxCell>
        <mxCell id="Nqbd7N0HCV10yQmwLvFE-88" value="" style="edgeStyle=orthogonalEdgeStyle;rounded=0;orthogonalLoop=1;jettySize=auto;html=1;fontSize=10;endArrow=classic;endFill=1;entryX=0;entryY=0.5;entryDx=0;entryDy=0;entryPerimeter=0;" edge="1" parent="Nqbd7N0HCV10yQmwLvFE-144">
          <mxGeometry relative="1" as="geometry">
            <mxPoint y="418.55000000000007" as="sourcePoint" />
            <mxPoint x="30" y="418.55000000000007" as="targetPoint" />
            <Array as="points">
              <mxPoint y="418.54999999999995" />
            </Array>
          </mxGeometry>
        </mxCell>
        <mxCell id="Nqbd7N0HCV10yQmwLvFE-89" value="" style="edgeStyle=orthogonalEdgeStyle;rounded=0;orthogonalLoop=1;jettySize=auto;html=1;fontSize=10;endArrow=classic;endFill=1;entryX=0;entryY=0.5;entryDx=0;entryDy=0;entryPerimeter=0;" edge="1" parent="Nqbd7N0HCV10yQmwLvFE-144">
          <mxGeometry relative="1" as="geometry">
            <mxPoint y="438.45000000000016" as="sourcePoint" />
            <mxPoint x="30" y="438.45000000000016" as="targetPoint" />
            <Array as="points">
              <mxPoint y="438.44999999999993" />
            </Array>
          </mxGeometry>
        </mxCell>
        <mxCell id="Nqbd7N0HCV10yQmwLvFE-90" value="" style="edgeStyle=orthogonalEdgeStyle;rounded=0;orthogonalLoop=1;jettySize=auto;html=1;fontSize=10;endArrow=classic;endFill=1;entryX=0;entryY=0.5;entryDx=0;entryDy=0;entryPerimeter=0;" edge="1" parent="Nqbd7N0HCV10yQmwLvFE-144">
          <mxGeometry relative="1" as="geometry">
            <mxPoint y="457.45000000000016" as="sourcePoint" />
            <mxPoint x="30" y="457.45000000000016" as="targetPoint" />
            <Array as="points">
              <mxPoint y="457.44999999999993" />
            </Array>
          </mxGeometry>
        </mxCell>
        <mxCell id="Nqbd7N0HCV10yQmwLvFE-91" value="" style="edgeStyle=orthogonalEdgeStyle;rounded=0;orthogonalLoop=1;jettySize=auto;html=1;fontSize=10;endArrow=classic;endFill=1;entryX=0;entryY=0.5;entryDx=0;entryDy=0;entryPerimeter=0;" edge="1" parent="Nqbd7N0HCV10yQmwLvFE-144">
          <mxGeometry relative="1" as="geometry">
            <mxPoint y="325.2700000000001" as="sourcePoint" />
            <mxPoint x="30" y="325.2700000000001" as="targetPoint" />
            <Array as="points">
              <mxPoint y="325.27" />
            </Array>
          </mxGeometry>
        </mxCell>
        <mxCell id="Nqbd7N0HCV10yQmwLvFE-92" value="" style="edgeStyle=orthogonalEdgeStyle;rounded=0;orthogonalLoop=1;jettySize=auto;html=1;fontSize=10;endArrow=classic;endFill=1;entryX=0;entryY=0.5;entryDx=0;entryDy=0;entryPerimeter=0;" edge="1" parent="Nqbd7N0HCV10yQmwLvFE-144">
          <mxGeometry relative="1" as="geometry">
            <mxPoint y="343.82000000000005" as="sourcePoint" />
            <mxPoint x="30" y="343.82000000000005" as="targetPoint" />
            <Array as="points">
              <mxPoint y="343.81999999999994" />
            </Array>
          </mxGeometry>
        </mxCell>
        <mxCell id="Nqbd7N0HCV10yQmwLvFE-93" value="" style="edgeStyle=orthogonalEdgeStyle;rounded=0;orthogonalLoop=1;jettySize=auto;html=1;fontSize=10;endArrow=classic;endFill=1;entryX=0;entryY=0.5;entryDx=0;entryDy=0;entryPerimeter=0;" edge="1" parent="Nqbd7N0HCV10yQmwLvFE-144">
          <mxGeometry relative="1" as="geometry">
            <mxPoint y="362.72000000000014" as="sourcePoint" />
            <mxPoint x="30" y="362.72000000000014" as="targetPoint" />
            <Array as="points">
              <mxPoint y="362.7199999999999" />
            </Array>
          </mxGeometry>
        </mxCell>
        <mxCell id="Nqbd7N0HCV10yQmwLvFE-94" value="" style="edgeStyle=orthogonalEdgeStyle;rounded=0;orthogonalLoop=1;jettySize=auto;html=1;fontSize=10;endArrow=classic;endFill=1;entryX=0;entryY=0.5;entryDx=0;entryDy=0;entryPerimeter=0;" edge="1" parent="Nqbd7N0HCV10yQmwLvFE-144">
          <mxGeometry relative="1" as="geometry">
            <mxPoint y="381.72000000000014" as="sourcePoint" />
            <mxPoint x="30" y="381.72000000000014" as="targetPoint" />
            <Array as="points">
              <mxPoint y="381.7199999999999" />
            </Array>
          </mxGeometry>
        </mxCell>
        <mxCell id="Nqbd7N0HCV10yQmwLvFE-103" value="" style="edgeStyle=orthogonalEdgeStyle;rounded=0;orthogonalLoop=1;jettySize=auto;html=1;fontSize=10;endArrow=classic;endFill=1;entryX=0;entryY=0.5;entryDx=0;entryDy=0;entryPerimeter=0;" edge="1" parent="Nqbd7N0HCV10yQmwLvFE-144">
          <mxGeometry relative="1" as="geometry">
            <mxPoint y="249.27000000000004" as="sourcePoint" />
            <mxPoint x="30" y="249.27000000000004" as="targetPoint" />
            <Array as="points">
              <mxPoint y="249.27000000000004" />
            </Array>
          </mxGeometry>
        </mxCell>
        <mxCell id="Nqbd7N0HCV10yQmwLvFE-104" value="" style="edgeStyle=orthogonalEdgeStyle;rounded=0;orthogonalLoop=1;jettySize=auto;html=1;fontSize=10;endArrow=classic;endFill=1;entryX=0;entryY=0.5;entryDx=0;entryDy=0;entryPerimeter=0;" edge="1" parent="Nqbd7N0HCV10yQmwLvFE-144">
          <mxGeometry relative="1" as="geometry">
            <mxPoint y="268.82000000000016" as="sourcePoint" />
            <mxPoint x="30" y="268.82000000000016" as="targetPoint" />
            <Array as="points">
              <mxPoint y="268.81999999999994" />
            </Array>
          </mxGeometry>
        </mxCell>
        <mxCell id="Nqbd7N0HCV10yQmwLvFE-105" value="" style="edgeStyle=orthogonalEdgeStyle;rounded=0;orthogonalLoop=1;jettySize=auto;html=1;fontSize=10;endArrow=classic;endFill=1;entryX=0;entryY=0.5;entryDx=0;entryDy=0;entryPerimeter=0;" edge="1" parent="Nqbd7N0HCV10yQmwLvFE-144">
          <mxGeometry relative="1" as="geometry">
            <mxPoint y="287.72000000000025" as="sourcePoint" />
            <mxPoint x="30" y="287.72000000000025" as="targetPoint" />
            <Array as="points">
              <mxPoint y="287.7199999999999" />
            </Array>
          </mxGeometry>
        </mxCell>
        <mxCell id="Nqbd7N0HCV10yQmwLvFE-106" value="" style="edgeStyle=orthogonalEdgeStyle;rounded=0;orthogonalLoop=1;jettySize=auto;html=1;fontSize=10;endArrow=classic;endFill=1;entryX=0;entryY=0.5;entryDx=0;entryDy=0;entryPerimeter=0;" edge="1" parent="Nqbd7N0HCV10yQmwLvFE-144">
          <mxGeometry relative="1" as="geometry">
            <mxPoint y="305.72000000000025" as="sourcePoint" />
            <mxPoint x="30" y="305.72000000000025" as="targetPoint" />
            <Array as="points">
              <mxPoint y="305.7199999999999" />
            </Array>
          </mxGeometry>
        </mxCell>
        <mxCell id="Nqbd7N0HCV10yQmwLvFE-107" value="" style="edgeStyle=orthogonalEdgeStyle;rounded=0;orthogonalLoop=1;jettySize=auto;html=1;fontSize=10;endArrow=classic;endFill=1;entryX=0;entryY=0.5;entryDx=0;entryDy=0;entryPerimeter=0;" edge="1" parent="Nqbd7N0HCV10yQmwLvFE-144">
          <mxGeometry relative="1" as="geometry">
            <mxPoint y="174.54000000000013" as="sourcePoint" />
            <mxPoint x="30" y="174.54000000000013" as="targetPoint" />
            <Array as="points">
              <mxPoint y="174.54000000000002" />
            </Array>
          </mxGeometry>
        </mxCell>
        <mxCell id="Nqbd7N0HCV10yQmwLvFE-108" value="" style="edgeStyle=orthogonalEdgeStyle;rounded=0;orthogonalLoop=1;jettySize=auto;html=1;fontSize=10;endArrow=classic;endFill=1;entryX=0;entryY=0.5;entryDx=0;entryDy=0;entryPerimeter=0;" edge="1" parent="Nqbd7N0HCV10yQmwLvFE-144">
          <mxGeometry relative="1" as="geometry">
            <mxPoint y="193.0900000000001" as="sourcePoint" />
            <mxPoint x="30" y="193.0900000000001" as="targetPoint" />
            <Array as="points">
              <mxPoint y="193.08999999999997" />
            </Array>
          </mxGeometry>
        </mxCell>
        <mxCell id="Nqbd7N0HCV10yQmwLvFE-109" value="" style="edgeStyle=orthogonalEdgeStyle;rounded=0;orthogonalLoop=1;jettySize=auto;html=1;fontSize=10;endArrow=classic;endFill=1;entryX=0;entryY=0.5;entryDx=0;entryDy=0;entryPerimeter=0;" edge="1" parent="Nqbd7N0HCV10yQmwLvFE-144">
          <mxGeometry relative="1" as="geometry">
            <mxPoint y="211.99000000000007" as="sourcePoint" />
            <mxPoint x="30" y="211.99000000000007" as="targetPoint" />
            <Array as="points">
              <mxPoint y="211.98999999999995" />
            </Array>
          </mxGeometry>
        </mxCell>
        <mxCell id="Nqbd7N0HCV10yQmwLvFE-110" value="" style="edgeStyle=orthogonalEdgeStyle;rounded=0;orthogonalLoop=1;jettySize=auto;html=1;fontSize=10;endArrow=classic;endFill=1;entryX=0;entryY=0.5;entryDx=0;entryDy=0;entryPerimeter=0;" edge="1" parent="Nqbd7N0HCV10yQmwLvFE-144">
          <mxGeometry relative="1" as="geometry">
            <mxPoint y="229.99000000000018" as="sourcePoint" />
            <mxPoint x="30" y="229.99000000000018" as="targetPoint" />
            <Array as="points">
              <mxPoint y="229.98999999999995" />
            </Array>
          </mxGeometry>
        </mxCell>
        <mxCell id="Nqbd7N0HCV10yQmwLvFE-111" value="" style="edgeStyle=orthogonalEdgeStyle;rounded=0;orthogonalLoop=1;jettySize=auto;html=1;fontSize=10;endArrow=classic;endFill=1;entryX=0;entryY=0.5;entryDx=0;entryDy=0;entryPerimeter=0;" edge="1" parent="Nqbd7N0HCV10yQmwLvFE-144">
          <mxGeometry relative="1" as="geometry">
            <mxPoint y="117.26999999999998" as="sourcePoint" />
            <mxPoint x="30" y="117.26999999999998" as="targetPoint" />
            <Array as="points">
              <mxPoint y="117.27000000000004" />
            </Array>
          </mxGeometry>
        </mxCell>
        <mxCell id="Nqbd7N0HCV10yQmwLvFE-112" value="" style="edgeStyle=orthogonalEdgeStyle;rounded=0;orthogonalLoop=1;jettySize=auto;html=1;fontSize=10;endArrow=classic;endFill=1;entryX=0;entryY=0.5;entryDx=0;entryDy=0;entryPerimeter=0;" edge="1" parent="Nqbd7N0HCV10yQmwLvFE-144">
          <mxGeometry relative="1" as="geometry">
            <mxPoint y="136.82000000000016" as="sourcePoint" />
            <mxPoint x="30" y="136.82000000000016" as="targetPoint" />
            <Array as="points">
              <mxPoint y="136.81999999999994" />
            </Array>
          </mxGeometry>
        </mxCell>
        <mxCell id="Nqbd7N0HCV10yQmwLvFE-113" value="" style="edgeStyle=orthogonalEdgeStyle;rounded=0;orthogonalLoop=1;jettySize=auto;html=1;fontSize=10;endArrow=classic;endFill=1;entryX=0;entryY=0.5;entryDx=0;entryDy=0;entryPerimeter=0;" edge="1" parent="Nqbd7N0HCV10yQmwLvFE-144">
          <mxGeometry relative="1" as="geometry">
            <mxPoint y="155.72000000000025" as="sourcePoint" />
            <mxPoint x="30" y="155.72000000000025" as="targetPoint" />
            <Array as="points">
              <mxPoint y="155.7199999999999" />
            </Array>
          </mxGeometry>
        </mxCell>
        <mxCell id="Nqbd7N0HCV10yQmwLvFE-114" value="" style="edgeStyle=orthogonalEdgeStyle;rounded=0;orthogonalLoop=1;jettySize=auto;html=1;fontSize=10;endArrow=classic;endFill=1;entryX=0;entryY=0.5;entryDx=0;entryDy=0;entryPerimeter=0;" edge="1" parent="Nqbd7N0HCV10yQmwLvFE-144">
          <mxGeometry relative="1" as="geometry">
            <mxPoint y="42.54000000000019" as="sourcePoint" />
            <mxPoint x="30" y="42.54000000000019" as="targetPoint" />
            <Array as="points">
              <mxPoint y="42.54000000000002" />
            </Array>
          </mxGeometry>
        </mxCell>
        <mxCell id="Nqbd7N0HCV10yQmwLvFE-115" value="" style="edgeStyle=orthogonalEdgeStyle;rounded=0;orthogonalLoop=1;jettySize=auto;html=1;fontSize=10;endArrow=classic;endFill=1;entryX=0;entryY=0.5;entryDx=0;entryDy=0;entryPerimeter=0;" edge="1" parent="Nqbd7N0HCV10yQmwLvFE-144">
          <mxGeometry relative="1" as="geometry">
            <mxPoint y="61.090000000000146" as="sourcePoint" />
            <mxPoint x="30" y="61.090000000000146" as="targetPoint" />
            <Array as="points">
              <mxPoint y="61.089999999999975" />
            </Array>
          </mxGeometry>
        </mxCell>
        <mxCell id="Nqbd7N0HCV10yQmwLvFE-116" value="" style="edgeStyle=orthogonalEdgeStyle;rounded=0;orthogonalLoop=1;jettySize=auto;html=1;fontSize=10;endArrow=classic;endFill=1;entryX=0;entryY=0.5;entryDx=0;entryDy=0;entryPerimeter=0;" edge="1" parent="Nqbd7N0HCV10yQmwLvFE-144">
          <mxGeometry relative="1" as="geometry">
            <mxPoint y="79.99000000000001" as="sourcePoint" />
            <mxPoint x="30" y="79.99000000000001" as="targetPoint" />
            <Array as="points">
              <mxPoint y="79.98999999999995" />
            </Array>
          </mxGeometry>
        </mxCell>
        <mxCell id="Nqbd7N0HCV10yQmwLvFE-117" value="" style="edgeStyle=orthogonalEdgeStyle;rounded=0;orthogonalLoop=1;jettySize=auto;html=1;fontSize=10;endArrow=classic;endFill=1;entryX=0;entryY=0.5;entryDx=0;entryDy=0;entryPerimeter=0;" edge="1" parent="Nqbd7N0HCV10yQmwLvFE-144">
          <mxGeometry relative="1" as="geometry">
            <mxPoint y="97.99000000000024" as="sourcePoint" />
            <mxPoint x="30" y="97.99000000000024" as="targetPoint" />
            <Array as="points">
              <mxPoint y="97.98999999999995" />
            </Array>
          </mxGeometry>
        </mxCell>
        <mxCell id="Nqbd7N0HCV10yQmwLvFE-118" value="" style="edgeStyle=orthogonalEdgeStyle;rounded=0;orthogonalLoop=1;jettySize=auto;html=1;fontSize=10;endArrow=none;endFill=0;entryX=0;entryY=0.5;entryDx=0;entryDy=0;entryPerimeter=0;" edge="1" parent="Nqbd7N0HCV10yQmwLvFE-144">
          <mxGeometry relative="1" as="geometry">
            <mxPoint x="80" y="401.0000000000002" as="sourcePoint" />
            <mxPoint x="110" y="401.0000000000002" as="targetPoint" />
            <Array as="points">
              <mxPoint x="80" y="401" />
            </Array>
          </mxGeometry>
        </mxCell>
        <mxCell id="Nqbd7N0HCV10yQmwLvFE-119" value="" style="edgeStyle=orthogonalEdgeStyle;rounded=0;orthogonalLoop=1;jettySize=auto;html=1;fontSize=10;endArrow=none;endFill=0;entryX=0;entryY=0.5;entryDx=0;entryDy=0;entryPerimeter=0;" edge="1" parent="Nqbd7N0HCV10yQmwLvFE-144">
          <mxGeometry relative="1" as="geometry">
            <mxPoint x="80" y="418.54999999999995" as="sourcePoint" />
            <mxPoint x="110" y="418.54999999999995" as="targetPoint" />
            <Array as="points">
              <mxPoint x="80" y="418.54999999999995" />
            </Array>
          </mxGeometry>
        </mxCell>
        <mxCell id="Nqbd7N0HCV10yQmwLvFE-120" value="" style="edgeStyle=orthogonalEdgeStyle;rounded=0;orthogonalLoop=1;jettySize=auto;html=1;fontSize=10;endArrow=none;endFill=0;entryX=0;entryY=0.5;entryDx=0;entryDy=0;entryPerimeter=0;" edge="1" parent="Nqbd7N0HCV10yQmwLvFE-144">
          <mxGeometry relative="1" as="geometry">
            <mxPoint x="80" y="438.45000000000016" as="sourcePoint" />
            <mxPoint x="110" y="438.45000000000016" as="targetPoint" />
            <Array as="points">
              <mxPoint x="80" y="438.44999999999993" />
            </Array>
          </mxGeometry>
        </mxCell>
        <mxCell id="Nqbd7N0HCV10yQmwLvFE-121" value="" style="edgeStyle=orthogonalEdgeStyle;rounded=0;orthogonalLoop=1;jettySize=auto;html=1;fontSize=10;endArrow=none;endFill=0;entryX=0;entryY=0.5;entryDx=0;entryDy=0;entryPerimeter=0;" edge="1" parent="Nqbd7N0HCV10yQmwLvFE-144">
          <mxGeometry relative="1" as="geometry">
            <mxPoint x="80" y="457.45000000000016" as="sourcePoint" />
            <mxPoint x="110" y="457.45000000000016" as="targetPoint" />
            <Array as="points">
              <mxPoint x="80" y="457.44999999999993" />
            </Array>
          </mxGeometry>
        </mxCell>
        <mxCell id="Nqbd7N0HCV10yQmwLvFE-122" value="" style="edgeStyle=orthogonalEdgeStyle;rounded=0;orthogonalLoop=1;jettySize=auto;html=1;fontSize=10;endArrow=none;endFill=0;entryX=0;entryY=0.5;entryDx=0;entryDy=0;entryPerimeter=0;" edge="1" parent="Nqbd7N0HCV10yQmwLvFE-144">
          <mxGeometry relative="1" as="geometry">
            <mxPoint x="80" y="325.2700000000001" as="sourcePoint" />
            <mxPoint x="110" y="325.2700000000001" as="targetPoint" />
            <Array as="points">
              <mxPoint x="80" y="325.27" />
            </Array>
          </mxGeometry>
        </mxCell>
        <mxCell id="Nqbd7N0HCV10yQmwLvFE-123" value="" style="edgeStyle=orthogonalEdgeStyle;rounded=0;orthogonalLoop=1;jettySize=auto;html=1;fontSize=10;endArrow=none;endFill=0;entryX=0;entryY=0.5;entryDx=0;entryDy=0;entryPerimeter=0;" edge="1" parent="Nqbd7N0HCV10yQmwLvFE-144">
          <mxGeometry relative="1" as="geometry">
            <mxPoint x="80" y="343.82000000000005" as="sourcePoint" />
            <mxPoint x="110" y="343.82000000000005" as="targetPoint" />
            <Array as="points">
              <mxPoint x="80" y="343.81999999999994" />
            </Array>
          </mxGeometry>
        </mxCell>
        <mxCell id="Nqbd7N0HCV10yQmwLvFE-124" value="" style="edgeStyle=orthogonalEdgeStyle;rounded=0;orthogonalLoop=1;jettySize=auto;html=1;fontSize=10;endArrow=none;endFill=0;entryX=0;entryY=0.5;entryDx=0;entryDy=0;entryPerimeter=0;" edge="1" parent="Nqbd7N0HCV10yQmwLvFE-144">
          <mxGeometry relative="1" as="geometry">
            <mxPoint x="80" y="362.72" as="sourcePoint" />
            <mxPoint x="110" y="362.72" as="targetPoint" />
            <Array as="points">
              <mxPoint x="80" y="362.7199999999999" />
            </Array>
          </mxGeometry>
        </mxCell>
        <mxCell id="Nqbd7N0HCV10yQmwLvFE-125" value="" style="edgeStyle=orthogonalEdgeStyle;rounded=0;orthogonalLoop=1;jettySize=auto;html=1;fontSize=10;endArrow=none;endFill=0;entryX=0;entryY=0.5;entryDx=0;entryDy=0;entryPerimeter=0;" edge="1" parent="Nqbd7N0HCV10yQmwLvFE-144">
          <mxGeometry relative="1" as="geometry">
            <mxPoint x="80" y="381.72" as="sourcePoint" />
            <mxPoint x="110" y="381.72" as="targetPoint" />
            <Array as="points">
              <mxPoint x="80" y="381.7199999999999" />
            </Array>
          </mxGeometry>
        </mxCell>
        <mxCell id="Nqbd7N0HCV10yQmwLvFE-126" value="" style="edgeStyle=orthogonalEdgeStyle;rounded=0;orthogonalLoop=1;jettySize=auto;html=1;fontSize=10;endArrow=none;endFill=0;entryX=0;entryY=0.5;entryDx=0;entryDy=0;entryPerimeter=0;" edge="1" parent="Nqbd7N0HCV10yQmwLvFE-144">
          <mxGeometry relative="1" as="geometry">
            <mxPoint x="80" y="249.26999999999998" as="sourcePoint" />
            <mxPoint x="110" y="249.26999999999998" as="targetPoint" />
            <Array as="points">
              <mxPoint x="80" y="249.27000000000004" />
            </Array>
          </mxGeometry>
        </mxCell>
        <mxCell id="Nqbd7N0HCV10yQmwLvFE-127" value="" style="edgeStyle=orthogonalEdgeStyle;rounded=0;orthogonalLoop=1;jettySize=auto;html=1;fontSize=10;endArrow=none;endFill=0;entryX=0;entryY=0.5;entryDx=0;entryDy=0;entryPerimeter=0;" edge="1" parent="Nqbd7N0HCV10yQmwLvFE-144">
          <mxGeometry relative="1" as="geometry">
            <mxPoint x="80" y="268.82000000000005" as="sourcePoint" />
            <mxPoint x="110" y="268.82000000000005" as="targetPoint" />
            <Array as="points">
              <mxPoint x="80" y="268.81999999999994" />
            </Array>
          </mxGeometry>
        </mxCell>
        <mxCell id="Nqbd7N0HCV10yQmwLvFE-128" value="" style="edgeStyle=orthogonalEdgeStyle;rounded=0;orthogonalLoop=1;jettySize=auto;html=1;fontSize=10;endArrow=none;endFill=0;entryX=0;entryY=0.5;entryDx=0;entryDy=0;entryPerimeter=0;" edge="1" parent="Nqbd7N0HCV10yQmwLvFE-144">
          <mxGeometry relative="1" as="geometry">
            <mxPoint x="80" y="287.72000000000025" as="sourcePoint" />
            <mxPoint x="110" y="287.72000000000025" as="targetPoint" />
            <Array as="points">
              <mxPoint x="80" y="287.7199999999999" />
            </Array>
          </mxGeometry>
        </mxCell>
        <mxCell id="Nqbd7N0HCV10yQmwLvFE-129" value="" style="edgeStyle=orthogonalEdgeStyle;rounded=0;orthogonalLoop=1;jettySize=auto;html=1;fontSize=10;endArrow=none;endFill=0;entryX=0;entryY=0.5;entryDx=0;entryDy=0;entryPerimeter=0;" edge="1" parent="Nqbd7N0HCV10yQmwLvFE-144">
          <mxGeometry relative="1" as="geometry">
            <mxPoint x="80" y="305.72000000000025" as="sourcePoint" />
            <mxPoint x="110" y="305.72000000000025" as="targetPoint" />
            <Array as="points">
              <mxPoint x="80" y="305.7199999999999" />
            </Array>
          </mxGeometry>
        </mxCell>
        <mxCell id="Nqbd7N0HCV10yQmwLvFE-130" value="" style="edgeStyle=orthogonalEdgeStyle;rounded=0;orthogonalLoop=1;jettySize=auto;html=1;fontSize=10;endArrow=none;endFill=0;entryX=0;entryY=0.5;entryDx=0;entryDy=0;entryPerimeter=0;" edge="1" parent="Nqbd7N0HCV10yQmwLvFE-144">
          <mxGeometry relative="1" as="geometry">
            <mxPoint x="80" y="174.5400000000002" as="sourcePoint" />
            <mxPoint x="110" y="174.5400000000002" as="targetPoint" />
            <Array as="points">
              <mxPoint x="80" y="174.54000000000002" />
            </Array>
          </mxGeometry>
        </mxCell>
        <mxCell id="Nqbd7N0HCV10yQmwLvFE-131" value="" style="edgeStyle=orthogonalEdgeStyle;rounded=0;orthogonalLoop=1;jettySize=auto;html=1;fontSize=10;endArrow=none;endFill=0;entryX=0;entryY=0.5;entryDx=0;entryDy=0;entryPerimeter=0;" edge="1" parent="Nqbd7N0HCV10yQmwLvFE-144">
          <mxGeometry relative="1" as="geometry">
            <mxPoint x="80" y="193.09000000000015" as="sourcePoint" />
            <mxPoint x="110" y="193.09000000000015" as="targetPoint" />
            <Array as="points">
              <mxPoint x="80" y="193.08999999999997" />
            </Array>
          </mxGeometry>
        </mxCell>
        <mxCell id="Nqbd7N0HCV10yQmwLvFE-132" value="" style="edgeStyle=orthogonalEdgeStyle;rounded=0;orthogonalLoop=1;jettySize=auto;html=1;fontSize=10;endArrow=none;endFill=0;entryX=0;entryY=0.5;entryDx=0;entryDy=0;entryPerimeter=0;" edge="1" parent="Nqbd7N0HCV10yQmwLvFE-144">
          <mxGeometry relative="1" as="geometry">
            <mxPoint x="80" y="211.99" as="sourcePoint" />
            <mxPoint x="110" y="211.99" as="targetPoint" />
            <Array as="points">
              <mxPoint x="80" y="211.98999999999995" />
            </Array>
          </mxGeometry>
        </mxCell>
        <mxCell id="Nqbd7N0HCV10yQmwLvFE-133" value="" style="edgeStyle=orthogonalEdgeStyle;rounded=0;orthogonalLoop=1;jettySize=auto;html=1;fontSize=10;endArrow=none;endFill=0;entryX=0;entryY=0.5;entryDx=0;entryDy=0;entryPerimeter=0;" edge="1" parent="Nqbd7N0HCV10yQmwLvFE-144">
          <mxGeometry relative="1" as="geometry">
            <mxPoint x="80" y="229.99000000000024" as="sourcePoint" />
            <mxPoint x="110" y="229.99000000000024" as="targetPoint" />
            <Array as="points">
              <mxPoint x="80" y="229.98999999999995" />
            </Array>
          </mxGeometry>
        </mxCell>
        <mxCell id="Nqbd7N0HCV10yQmwLvFE-134" value="" style="edgeStyle=orthogonalEdgeStyle;rounded=0;orthogonalLoop=1;jettySize=auto;html=1;fontSize=10;endArrow=none;endFill=0;entryX=0;entryY=0.5;entryDx=0;entryDy=0;entryPerimeter=0;" edge="1" parent="Nqbd7N0HCV10yQmwLvFE-144">
          <mxGeometry relative="1" as="geometry">
            <mxPoint x="80" y="117.26999999999998" as="sourcePoint" />
            <mxPoint x="110" y="117.26999999999998" as="targetPoint" />
            <Array as="points">
              <mxPoint x="80" y="117.27000000000004" />
            </Array>
          </mxGeometry>
        </mxCell>
        <mxCell id="Nqbd7N0HCV10yQmwLvFE-135" value="" style="edgeStyle=orthogonalEdgeStyle;rounded=0;orthogonalLoop=1;jettySize=auto;html=1;fontSize=10;endArrow=none;endFill=0;entryX=0;entryY=0.5;entryDx=0;entryDy=0;entryPerimeter=0;" edge="1" parent="Nqbd7N0HCV10yQmwLvFE-144">
          <mxGeometry relative="1" as="geometry">
            <mxPoint x="80" y="136.82000000000016" as="sourcePoint" />
            <mxPoint x="110" y="136.82000000000016" as="targetPoint" />
            <Array as="points">
              <mxPoint x="80" y="136.81999999999994" />
            </Array>
          </mxGeometry>
        </mxCell>
        <mxCell id="Nqbd7N0HCV10yQmwLvFE-136" value="" style="edgeStyle=orthogonalEdgeStyle;rounded=0;orthogonalLoop=1;jettySize=auto;html=1;fontSize=10;endArrow=none;endFill=0;entryX=0;entryY=0.5;entryDx=0;entryDy=0;entryPerimeter=0;" edge="1" parent="Nqbd7N0HCV10yQmwLvFE-144">
          <mxGeometry relative="1" as="geometry">
            <mxPoint x="80" y="155.72000000000025" as="sourcePoint" />
            <mxPoint x="110" y="155.72000000000025" as="targetPoint" />
            <Array as="points">
              <mxPoint x="80" y="155.7199999999999" />
            </Array>
          </mxGeometry>
        </mxCell>
        <mxCell id="Nqbd7N0HCV10yQmwLvFE-137" value="" style="edgeStyle=orthogonalEdgeStyle;rounded=0;orthogonalLoop=1;jettySize=auto;html=1;fontSize=10;endArrow=none;endFill=0;entryX=0;entryY=0.5;entryDx=0;entryDy=0;entryPerimeter=0;" edge="1" parent="Nqbd7N0HCV10yQmwLvFE-144">
          <mxGeometry relative="1" as="geometry">
            <mxPoint x="80" y="42.54000000000019" as="sourcePoint" />
            <mxPoint x="110" y="42.54000000000019" as="targetPoint" />
            <Array as="points">
              <mxPoint x="80" y="42.54000000000002" />
            </Array>
          </mxGeometry>
        </mxCell>
        <mxCell id="Nqbd7N0HCV10yQmwLvFE-138" value="" style="edgeStyle=orthogonalEdgeStyle;rounded=0;orthogonalLoop=1;jettySize=auto;html=1;fontSize=10;endArrow=none;endFill=0;entryX=0;entryY=0.5;entryDx=0;entryDy=0;entryPerimeter=0;" edge="1" parent="Nqbd7N0HCV10yQmwLvFE-144">
          <mxGeometry relative="1" as="geometry">
            <mxPoint x="80" y="61.090000000000146" as="sourcePoint" />
            <mxPoint x="110" y="61.090000000000146" as="targetPoint" />
            <Array as="points">
              <mxPoint x="80" y="61.089999999999975" />
            </Array>
          </mxGeometry>
        </mxCell>
        <mxCell id="Nqbd7N0HCV10yQmwLvFE-139" value="" style="edgeStyle=orthogonalEdgeStyle;rounded=0;orthogonalLoop=1;jettySize=auto;html=1;fontSize=10;endArrow=none;endFill=0;entryX=0;entryY=0.5;entryDx=0;entryDy=0;entryPerimeter=0;" edge="1" parent="Nqbd7N0HCV10yQmwLvFE-144">
          <mxGeometry relative="1" as="geometry">
            <mxPoint x="80" y="79.99000000000001" as="sourcePoint" />
            <mxPoint x="110" y="79.99000000000001" as="targetPoint" />
            <Array as="points">
              <mxPoint x="80" y="79.98999999999995" />
            </Array>
          </mxGeometry>
        </mxCell>
        <mxCell id="Nqbd7N0HCV10yQmwLvFE-140" value="" style="edgeStyle=orthogonalEdgeStyle;rounded=0;orthogonalLoop=1;jettySize=auto;html=1;fontSize=10;endArrow=none;endFill=0;entryX=0;entryY=0.5;entryDx=0;entryDy=0;entryPerimeter=0;" edge="1" parent="Nqbd7N0HCV10yQmwLvFE-144">
          <mxGeometry relative="1" as="geometry">
            <mxPoint x="80" y="97.99000000000024" as="sourcePoint" />
            <mxPoint x="110" y="97.99000000000024" as="targetPoint" />
            <Array as="points">
              <mxPoint x="80" y="97.98999999999995" />
            </Array>
          </mxGeometry>
        </mxCell>
        <mxCell id="Nqbd7N0HCV10yQmwLvFE-141" value="" style="edgeStyle=orthogonalEdgeStyle;rounded=0;orthogonalLoop=1;jettySize=auto;html=1;fontSize=10;endArrow=none;endFill=0;entryX=1;entryY=0.5;entryDx=0;entryDy=0;entryPerimeter=0;exitX=1;exitY=0.5;exitDx=0;exitDy=0;exitPerimeter=0;" edge="1" parent="Nqbd7N0HCV10yQmwLvFE-144" source="Nqbd7N0HCV10yQmwLvFE-32" target="Nqbd7N0HCV10yQmwLvFE-64">
          <mxGeometry relative="1" as="geometry">
            <mxPoint x="10" y="20" as="sourcePoint" />
            <mxPoint x="40" y="486" as="targetPoint" />
            <Array as="points">
              <mxPoint x="110" y="24" />
              <mxPoint x="110" y="476" />
            </Array>
          </mxGeometry>
        </mxCell>
        <mxCell id="Nqbd7N0HCV10yQmwLvFE-142" value="" style="edgeStyle=orthogonalEdgeStyle;rounded=0;orthogonalLoop=1;jettySize=auto;html=1;fontSize=10;endArrow=classic;endFill=1;" edge="1" parent="Nqbd7N0HCV10yQmwLvFE-144">
          <mxGeometry relative="1" as="geometry">
            <mxPoint x="80" y="5" as="sourcePoint" />
            <mxPoint x="130" y="5" as="targetPoint" />
            <Array as="points">
              <mxPoint x="90" y="5" />
              <mxPoint x="90" y="5" />
            </Array>
          </mxGeometry>
        </mxCell>
        <mxCell id="Nqbd7N0HCV10yQmwLvFE-143" value="" style="edgeStyle=orthogonalEdgeStyle;rounded=0;orthogonalLoop=1;jettySize=auto;html=1;fontSize=10;endArrow=none;endFill=0;entryX=1;entryY=0.5;entryDx=0;entryDy=0;entryPerimeter=0;" edge="1" parent="Nqbd7N0HCV10yQmwLvFE-144" target="Nqbd7N0HCV10yQmwLvFE-22">
          <mxGeometry relative="1" as="geometry">
            <mxPoint x="110" y="30" as="sourcePoint" />
            <mxPoint x="110" y="10" as="targetPoint" />
            <Array as="points">
              <mxPoint x="110" y="5" />
            </Array>
          </mxGeometry>
        </mxCell>
        <mxCell id="Nqbd7N0HCV10yQmwLvFE-146" value="&amp;nbsp;&amp;nbsp; LETTER" style="rounded=0;whiteSpace=wrap;html=1;strokeWidth=1;fillColor=none;align=left;verticalAlign=top;fontStyle=1;strokeColor=#B3B3B3;" vertex="1" parent="Nqbd7N0HCV10yQmwLvFE-331">
          <mxGeometry width="180" height="520" as="geometry" />
        </mxCell>
        <mxCell id="Nqbd7N0HCV10yQmwLvFE-147" value="" style="group" vertex="1" connectable="0" parent="Nqbd7N0HCV10yQmwLvFE-331">
          <mxGeometry x="220" y="20" width="110" height="481" as="geometry" />
        </mxCell>
        <mxCell id="Nqbd7N0HCV10yQmwLvFE-148" value="&lt;b style=&quot;font-size: 10px&quot;&gt;&#39;&lt;/b&gt;A&lt;b style=&quot;font-size: 10px&quot;&gt;&#39;&lt;/b&gt;" style="strokeWidth=1;html=1;shape=mxgraph.flowchart.terminator;whiteSpace=wrap;fillColor=none;fontSize=10;" vertex="1" parent="Nqbd7N0HCV10yQmwLvFE-147">
          <mxGeometry x="30" width="50" height="10" as="geometry" />
        </mxCell>
        <mxCell id="Nqbd7N0HCV10yQmwLvFE-149" value="&lt;b style=&quot;font-size: 10px&quot;&gt;&#39;&lt;/b&gt;&lt;span style=&quot;font-size: 10px&quot;&gt;B&lt;/span&gt;&lt;b style=&quot;font-size: 10px&quot;&gt;&#39;&lt;/b&gt;" style="strokeWidth=1;html=1;shape=mxgraph.flowchart.terminator;whiteSpace=wrap;fillColor=none;fontSize=10;" vertex="1" parent="Nqbd7N0HCV10yQmwLvFE-147">
          <mxGeometry x="30" y="19" width="50" height="10" as="geometry" />
        </mxCell>
        <mxCell id="Nqbd7N0HCV10yQmwLvFE-150" value="&lt;b style=&quot;font-size: 10px&quot;&gt;&#39;&lt;/b&gt;&lt;span style=&quot;font-size: 10px&quot;&gt;D&lt;/span&gt;&lt;b style=&quot;font-size: 10px&quot;&gt;&#39;&lt;/b&gt;" style="strokeWidth=1;html=1;shape=mxgraph.flowchart.terminator;whiteSpace=wrap;fillColor=none;fontSize=10;" vertex="1" parent="Nqbd7N0HCV10yQmwLvFE-147">
          <mxGeometry x="30" y="57" width="50" height="10" as="geometry" />
        </mxCell>
        <mxCell id="Nqbd7N0HCV10yQmwLvFE-151" value="&lt;b style=&quot;font-size: 10px&quot;&gt;&#39;&lt;/b&gt;C&lt;b style=&quot;font-size: 10px&quot;&gt;&#39;&lt;/b&gt;" style="strokeWidth=1;html=1;shape=mxgraph.flowchart.terminator;whiteSpace=wrap;fillColor=none;fontSize=10;" vertex="1" parent="Nqbd7N0HCV10yQmwLvFE-147">
          <mxGeometry x="30" y="38" width="50" height="10" as="geometry" />
        </mxCell>
        <mxCell id="Nqbd7N0HCV10yQmwLvFE-152" value="&lt;b style=&quot;font-size: 10px&quot;&gt;&#39;&lt;/b&gt;E&lt;b style=&quot;font-size: 10px&quot;&gt;&#39;&lt;/b&gt;" style="strokeWidth=1;html=1;shape=mxgraph.flowchart.terminator;whiteSpace=wrap;fillColor=none;fontSize=10;" vertex="1" parent="Nqbd7N0HCV10yQmwLvFE-147">
          <mxGeometry x="30" y="75" width="50" height="10" as="geometry" />
        </mxCell>
        <mxCell id="Nqbd7N0HCV10yQmwLvFE-153" value="&lt;div&gt;&lt;b style=&quot;font-size: 10px&quot;&gt;&#39;&lt;/b&gt;&lt;span style=&quot;font-size: 10px&quot;&gt;F&lt;/span&gt;&lt;b style=&quot;font-size: 10px&quot;&gt;&#39;&lt;/b&gt;&lt;/div&gt;" style="strokeWidth=1;html=1;shape=mxgraph.flowchart.terminator;whiteSpace=wrap;fillColor=none;fontSize=10;" vertex="1" parent="Nqbd7N0HCV10yQmwLvFE-147">
          <mxGeometry x="30" y="94" width="50" height="10" as="geometry" />
        </mxCell>
        <mxCell id="Nqbd7N0HCV10yQmwLvFE-154" value="&lt;b style=&quot;font-size: 10px&quot;&gt;&#39;&lt;/b&gt;H&lt;b style=&quot;font-size: 10px&quot;&gt;&#39;&lt;/b&gt;" style="strokeWidth=1;html=1;shape=mxgraph.flowchart.terminator;whiteSpace=wrap;fillColor=none;fontSize=10;" vertex="1" parent="Nqbd7N0HCV10yQmwLvFE-147">
          <mxGeometry x="30" y="132" width="50" height="10" as="geometry" />
        </mxCell>
        <mxCell id="Nqbd7N0HCV10yQmwLvFE-155" value="&lt;b style=&quot;font-size: 10px&quot;&gt;&#39;&lt;/b&gt;&lt;span style=&quot;font-size: 10px&quot;&gt;G&lt;/span&gt;&lt;b style=&quot;font-size: 10px&quot;&gt;&#39;&lt;/b&gt;" style="strokeWidth=1;html=1;shape=mxgraph.flowchart.terminator;whiteSpace=wrap;fillColor=none;fontSize=10;" vertex="1" parent="Nqbd7N0HCV10yQmwLvFE-147">
          <mxGeometry x="30" y="113" width="50" height="10" as="geometry" />
        </mxCell>
        <mxCell id="Nqbd7N0HCV10yQmwLvFE-156" value="&lt;b style=&quot;font-size: 10px&quot;&gt;&#39;&lt;/b&gt;&lt;span style=&quot;font-size: 10px&quot;&gt;I&lt;/span&gt;&lt;b style=&quot;font-size: 10px&quot;&gt;&#39;&lt;/b&gt;" style="strokeWidth=1;html=1;shape=mxgraph.flowchart.terminator;whiteSpace=wrap;fillColor=none;fontSize=10;" vertex="1" parent="Nqbd7N0HCV10yQmwLvFE-147">
          <mxGeometry x="30" y="151" width="50" height="10" as="geometry" />
        </mxCell>
        <mxCell id="Nqbd7N0HCV10yQmwLvFE-157" value="&lt;b style=&quot;font-size: 10px&quot;&gt;&#39;&lt;/b&gt;&lt;span style=&quot;font-size: 10px&quot;&gt;J&lt;/span&gt;&lt;b style=&quot;font-size: 10px&quot;&gt;&#39;&lt;/b&gt;" style="strokeWidth=1;html=1;shape=mxgraph.flowchart.terminator;whiteSpace=wrap;fillColor=none;fontSize=10;" vertex="1" parent="Nqbd7N0HCV10yQmwLvFE-147">
          <mxGeometry x="30" y="170" width="50" height="10" as="geometry" />
        </mxCell>
        <mxCell id="Nqbd7N0HCV10yQmwLvFE-158" value="&lt;b style=&quot;font-size: 10px&quot;&gt;&#39;&lt;/b&gt;&lt;span style=&quot;font-size: 10px&quot;&gt;L&lt;/span&gt;&lt;b style=&quot;font-size: 10px&quot;&gt;&#39;&lt;/b&gt;" style="strokeWidth=1;html=1;shape=mxgraph.flowchart.terminator;whiteSpace=wrap;fillColor=none;fontSize=10;" vertex="1" parent="Nqbd7N0HCV10yQmwLvFE-147">
          <mxGeometry x="30" y="207" width="50" height="10" as="geometry" />
        </mxCell>
        <mxCell id="Nqbd7N0HCV10yQmwLvFE-159" value="&lt;b style=&quot;font-size: 10px&quot;&gt;&#39;&lt;/b&gt;&lt;span style=&quot;font-size: 10px&quot;&gt;K&lt;/span&gt;&lt;b style=&quot;font-size: 10px&quot;&gt;&#39;&lt;/b&gt;" style="strokeWidth=1;html=1;shape=mxgraph.flowchart.terminator;whiteSpace=wrap;fillColor=none;fontSize=10;" vertex="1" parent="Nqbd7N0HCV10yQmwLvFE-147">
          <mxGeometry x="30" y="188" width="50" height="10" as="geometry" />
        </mxCell>
        <mxCell id="Nqbd7N0HCV10yQmwLvFE-160" value="&lt;b style=&quot;font-size: 10px&quot;&gt;&#39;&lt;/b&gt;&lt;span style=&quot;font-size: 10px&quot;&gt;M&lt;/span&gt;&lt;b style=&quot;font-size: 10px&quot;&gt;&#39;&lt;/b&gt;" style="strokeWidth=1;html=1;shape=mxgraph.flowchart.terminator;whiteSpace=wrap;fillColor=none;fontSize=10;" vertex="1" parent="Nqbd7N0HCV10yQmwLvFE-147">
          <mxGeometry x="30" y="226" width="50" height="10" as="geometry" />
        </mxCell>
        <mxCell id="Nqbd7N0HCV10yQmwLvFE-161" value="&lt;b style=&quot;font-size: 10px&quot;&gt;&#39;&lt;/b&gt;&lt;span style=&quot;font-size: 10px&quot;&gt;N&lt;/span&gt;&lt;b style=&quot;font-size: 10px&quot;&gt;&#39;&lt;/b&gt;" style="strokeWidth=1;html=1;shape=mxgraph.flowchart.terminator;whiteSpace=wrap;fillColor=none;fontSize=10;" vertex="1" parent="Nqbd7N0HCV10yQmwLvFE-147">
          <mxGeometry x="30" y="245" width="50" height="10" as="geometry" />
        </mxCell>
        <mxCell id="Nqbd7N0HCV10yQmwLvFE-162" value="&lt;b style=&quot;font-size: 10px&quot;&gt;&#39;&lt;/b&gt;&lt;span style=&quot;font-size: 10px&quot;&gt;P&lt;/span&gt;&lt;b style=&quot;font-size: 10px&quot;&gt;&#39;&lt;/b&gt;" style="strokeWidth=1;html=1;shape=mxgraph.flowchart.terminator;whiteSpace=wrap;fillColor=none;fontSize=10;" vertex="1" parent="Nqbd7N0HCV10yQmwLvFE-147">
          <mxGeometry x="30" y="283" width="50" height="10" as="geometry" />
        </mxCell>
        <mxCell id="Nqbd7N0HCV10yQmwLvFE-163" value="&lt;b style=&quot;font-size: 10px&quot;&gt;&#39;&lt;/b&gt;&lt;span style=&quot;font-size: 10px&quot;&gt;O&lt;/span&gt;&lt;b style=&quot;font-size: 10px&quot;&gt;&#39;&lt;/b&gt;" style="strokeWidth=1;html=1;shape=mxgraph.flowchart.terminator;whiteSpace=wrap;fillColor=none;fontSize=10;" vertex="1" parent="Nqbd7N0HCV10yQmwLvFE-147">
          <mxGeometry x="30" y="264" width="50" height="10" as="geometry" />
        </mxCell>
        <mxCell id="Nqbd7N0HCV10yQmwLvFE-164" value="&lt;b style=&quot;font-size: 10px&quot;&gt;&#39;&lt;/b&gt;&lt;span style=&quot;font-size: 10px&quot;&gt;Q&lt;/span&gt;&lt;b style=&quot;font-size: 10px&quot;&gt;&#39;&lt;/b&gt;" style="strokeWidth=1;html=1;shape=mxgraph.flowchart.terminator;whiteSpace=wrap;fillColor=none;fontSize=10;" vertex="1" parent="Nqbd7N0HCV10yQmwLvFE-147">
          <mxGeometry x="30" y="301" width="50" height="10" as="geometry" />
        </mxCell>
        <mxCell id="Nqbd7N0HCV10yQmwLvFE-165" value="&lt;b style=&quot;font-size: 10px&quot;&gt;&#39;&lt;/b&gt;&lt;span style=&quot;font-size: 10px&quot;&gt;R&lt;/span&gt;&lt;b style=&quot;font-size: 10px&quot;&gt;&#39;&lt;/b&gt;" style="strokeWidth=1;html=1;shape=mxgraph.flowchart.terminator;whiteSpace=wrap;fillColor=none;fontSize=10;" vertex="1" parent="Nqbd7N0HCV10yQmwLvFE-147">
          <mxGeometry x="30" y="320" width="50" height="10" as="geometry" />
        </mxCell>
        <mxCell id="Nqbd7N0HCV10yQmwLvFE-166" value="&lt;b style=&quot;font-size: 10px&quot;&gt;&#39;&lt;/b&gt;&lt;span style=&quot;font-size: 10px&quot;&gt;T&lt;/span&gt;&lt;b style=&quot;font-size: 10px&quot;&gt;&#39;&lt;/b&gt;" style="strokeWidth=1;html=1;shape=mxgraph.flowchart.terminator;whiteSpace=wrap;fillColor=none;fontSize=10;" vertex="1" parent="Nqbd7N0HCV10yQmwLvFE-147">
          <mxGeometry x="30" y="358" width="50" height="10" as="geometry" />
        </mxCell>
        <mxCell id="Nqbd7N0HCV10yQmwLvFE-167" value="&lt;b style=&quot;font-size: 10px&quot;&gt;&#39;&lt;/b&gt;S&lt;b style=&quot;font-size: 10px&quot;&gt;&#39;&lt;/b&gt;" style="strokeWidth=1;html=1;shape=mxgraph.flowchart.terminator;whiteSpace=wrap;fillColor=none;fontSize=10;" vertex="1" parent="Nqbd7N0HCV10yQmwLvFE-147">
          <mxGeometry x="30" y="339" width="50" height="10" as="geometry" />
        </mxCell>
        <mxCell id="Nqbd7N0HCV10yQmwLvFE-168" value="&lt;div&gt;&lt;b style=&quot;font-size: 10px&quot;&gt;&#39;&lt;/b&gt;U&lt;b style=&quot;font-size: 10px&quot;&gt;&#39;&lt;/b&gt;&lt;/div&gt;" style="strokeWidth=1;html=1;shape=mxgraph.flowchart.terminator;whiteSpace=wrap;fillColor=none;fontSize=10;" vertex="1" parent="Nqbd7N0HCV10yQmwLvFE-147">
          <mxGeometry x="30" y="377" width="50" height="10" as="geometry" />
        </mxCell>
        <mxCell id="Nqbd7N0HCV10yQmwLvFE-169" value="&lt;b style=&quot;font-size: 10px&quot;&gt;&#39;&lt;/b&gt;&lt;span style=&quot;font-size: 10px&quot;&gt;V&lt;/span&gt;&lt;b style=&quot;font-size: 10px&quot;&gt;&#39;&lt;/b&gt;" style="strokeWidth=1;html=1;shape=mxgraph.flowchart.terminator;whiteSpace=wrap;fillColor=none;fontSize=10;" vertex="1" parent="Nqbd7N0HCV10yQmwLvFE-147">
          <mxGeometry x="30" y="396" width="50" height="10" as="geometry" />
        </mxCell>
        <mxCell id="Nqbd7N0HCV10yQmwLvFE-170" value="&lt;b style=&quot;font-size: 10px&quot;&gt;&#39;&lt;/b&gt;X&lt;b style=&quot;font-size: 10px&quot;&gt;&#39;&lt;/b&gt;" style="strokeWidth=1;html=1;shape=mxgraph.flowchart.terminator;whiteSpace=wrap;fillColor=none;fontSize=10;" vertex="1" parent="Nqbd7N0HCV10yQmwLvFE-147">
          <mxGeometry x="30" y="433" width="50" height="10" as="geometry" />
        </mxCell>
        <mxCell id="Nqbd7N0HCV10yQmwLvFE-171" value="&lt;b style=&quot;font-size: 10px&quot;&gt;&#39;&lt;/b&gt;&lt;span style=&quot;font-size: 10px&quot;&gt;W&lt;/span&gt;&lt;b style=&quot;font-size: 10px&quot;&gt;&#39;&lt;/b&gt;" style="strokeWidth=1;html=1;shape=mxgraph.flowchart.terminator;whiteSpace=wrap;fillColor=none;fontSize=10;" vertex="1" parent="Nqbd7N0HCV10yQmwLvFE-147">
          <mxGeometry x="30" y="414" width="50" height="10" as="geometry" />
        </mxCell>
        <mxCell id="Nqbd7N0HCV10yQmwLvFE-172" value="&lt;b style=&quot;font-size: 10px&quot;&gt;&#39;&lt;/b&gt;Z&lt;b style=&quot;font-size: 10px&quot;&gt;&#39;&lt;/b&gt;" style="strokeWidth=1;html=1;shape=mxgraph.flowchart.terminator;whiteSpace=wrap;fillColor=none;fontSize=10;" vertex="1" parent="Nqbd7N0HCV10yQmwLvFE-147">
          <mxGeometry x="30" y="471" width="50" height="10" as="geometry" />
        </mxCell>
        <mxCell id="Nqbd7N0HCV10yQmwLvFE-173" value="&lt;b style=&quot;font-size: 10px&quot;&gt;&#39;&lt;/b&gt;&lt;span style=&quot;font-size: 10px&quot;&gt;Y&lt;/span&gt;&lt;b style=&quot;font-size: 10px&quot;&gt;&#39;&lt;/b&gt;" style="strokeWidth=1;html=1;shape=mxgraph.flowchart.terminator;whiteSpace=wrap;fillColor=none;fontSize=10;" vertex="1" parent="Nqbd7N0HCV10yQmwLvFE-147">
          <mxGeometry x="30" y="452" width="50" height="10" as="geometry" />
        </mxCell>
        <mxCell id="Nqbd7N0HCV10yQmwLvFE-174" value="" style="edgeStyle=orthogonalEdgeStyle;rounded=0;orthogonalLoop=1;jettySize=auto;html=1;fontSize=10;endArrow=classic;endFill=1;entryX=0;entryY=0.5;entryDx=0;entryDy=0;entryPerimeter=0;" edge="1" parent="Nqbd7N0HCV10yQmwLvFE-147" target="Nqbd7N0HCV10yQmwLvFE-148">
          <mxGeometry relative="1" as="geometry">
            <mxPoint x="-10" y="5" as="sourcePoint" />
            <Array as="points">
              <mxPoint y="5" />
              <mxPoint y="5" />
            </Array>
          </mxGeometry>
        </mxCell>
        <mxCell id="Nqbd7N0HCV10yQmwLvFE-175" value="" style="edgeStyle=orthogonalEdgeStyle;rounded=0;orthogonalLoop=1;jettySize=auto;html=1;fontSize=10;endArrow=classic;endFill=1;entryX=0;entryY=0.5;entryDx=0;entryDy=0;entryPerimeter=0;exitX=1;exitY=0.5;exitDx=0;exitDy=0;" edge="1" parent="Nqbd7N0HCV10yQmwLvFE-147" target="Nqbd7N0HCV10yQmwLvFE-149">
          <mxGeometry relative="1" as="geometry">
            <mxPoint x="-10" y="5" as="sourcePoint" />
            <mxPoint x="40" y="15" as="targetPoint" />
            <Array as="points">
              <mxPoint y="5" />
              <mxPoint y="24" />
            </Array>
          </mxGeometry>
        </mxCell>
        <mxCell id="Nqbd7N0HCV10yQmwLvFE-176" value="" style="edgeStyle=orthogonalEdgeStyle;rounded=0;orthogonalLoop=1;jettySize=auto;html=1;fontSize=10;endArrow=classic;endFill=1;entryX=0;entryY=0.5;entryDx=0;entryDy=0;entryPerimeter=0;" edge="1" parent="Nqbd7N0HCV10yQmwLvFE-147" target="Nqbd7N0HCV10yQmwLvFE-172">
          <mxGeometry relative="1" as="geometry">
            <mxPoint y="10" as="sourcePoint" />
            <mxPoint x="-10" y="490" as="targetPoint" />
            <Array as="points">
              <mxPoint y="476" />
            </Array>
          </mxGeometry>
        </mxCell>
        <mxCell id="Nqbd7N0HCV10yQmwLvFE-177" value="" style="edgeStyle=orthogonalEdgeStyle;rounded=0;orthogonalLoop=1;jettySize=auto;html=1;fontSize=10;endArrow=classic;endFill=1;entryX=0;entryY=0.5;entryDx=0;entryDy=0;entryPerimeter=0;" edge="1" parent="Nqbd7N0HCV10yQmwLvFE-147">
          <mxGeometry relative="1" as="geometry">
            <mxPoint y="401.0000000000001" as="sourcePoint" />
            <mxPoint x="30" y="401.0000000000001" as="targetPoint" />
            <Array as="points">
              <mxPoint y="401" />
            </Array>
          </mxGeometry>
        </mxCell>
        <mxCell id="Nqbd7N0HCV10yQmwLvFE-178" value="" style="edgeStyle=orthogonalEdgeStyle;rounded=0;orthogonalLoop=1;jettySize=auto;html=1;fontSize=10;endArrow=classic;endFill=1;entryX=0;entryY=0.5;entryDx=0;entryDy=0;entryPerimeter=0;" edge="1" parent="Nqbd7N0HCV10yQmwLvFE-147">
          <mxGeometry relative="1" as="geometry">
            <mxPoint y="418.55000000000007" as="sourcePoint" />
            <mxPoint x="30" y="418.55000000000007" as="targetPoint" />
            <Array as="points">
              <mxPoint y="418.54999999999995" />
            </Array>
          </mxGeometry>
        </mxCell>
        <mxCell id="Nqbd7N0HCV10yQmwLvFE-179" value="" style="edgeStyle=orthogonalEdgeStyle;rounded=0;orthogonalLoop=1;jettySize=auto;html=1;fontSize=10;endArrow=classic;endFill=1;entryX=0;entryY=0.5;entryDx=0;entryDy=0;entryPerimeter=0;" edge="1" parent="Nqbd7N0HCV10yQmwLvFE-147">
          <mxGeometry relative="1" as="geometry">
            <mxPoint y="438.45000000000016" as="sourcePoint" />
            <mxPoint x="30" y="438.45000000000016" as="targetPoint" />
            <Array as="points">
              <mxPoint y="438.44999999999993" />
            </Array>
          </mxGeometry>
        </mxCell>
        <mxCell id="Nqbd7N0HCV10yQmwLvFE-180" value="" style="edgeStyle=orthogonalEdgeStyle;rounded=0;orthogonalLoop=1;jettySize=auto;html=1;fontSize=10;endArrow=classic;endFill=1;entryX=0;entryY=0.5;entryDx=0;entryDy=0;entryPerimeter=0;" edge="1" parent="Nqbd7N0HCV10yQmwLvFE-147">
          <mxGeometry relative="1" as="geometry">
            <mxPoint y="457.45000000000016" as="sourcePoint" />
            <mxPoint x="30" y="457.45000000000016" as="targetPoint" />
            <Array as="points">
              <mxPoint y="457.44999999999993" />
            </Array>
          </mxGeometry>
        </mxCell>
        <mxCell id="Nqbd7N0HCV10yQmwLvFE-181" value="" style="edgeStyle=orthogonalEdgeStyle;rounded=0;orthogonalLoop=1;jettySize=auto;html=1;fontSize=10;endArrow=classic;endFill=1;entryX=0;entryY=0.5;entryDx=0;entryDy=0;entryPerimeter=0;" edge="1" parent="Nqbd7N0HCV10yQmwLvFE-147">
          <mxGeometry relative="1" as="geometry">
            <mxPoint y="325.2700000000001" as="sourcePoint" />
            <mxPoint x="30" y="325.2700000000001" as="targetPoint" />
            <Array as="points">
              <mxPoint y="325.27" />
            </Array>
          </mxGeometry>
        </mxCell>
        <mxCell id="Nqbd7N0HCV10yQmwLvFE-182" value="" style="edgeStyle=orthogonalEdgeStyle;rounded=0;orthogonalLoop=1;jettySize=auto;html=1;fontSize=10;endArrow=classic;endFill=1;entryX=0;entryY=0.5;entryDx=0;entryDy=0;entryPerimeter=0;" edge="1" parent="Nqbd7N0HCV10yQmwLvFE-147">
          <mxGeometry relative="1" as="geometry">
            <mxPoint y="343.82000000000005" as="sourcePoint" />
            <mxPoint x="30" y="343.82000000000005" as="targetPoint" />
            <Array as="points">
              <mxPoint y="343.81999999999994" />
            </Array>
          </mxGeometry>
        </mxCell>
        <mxCell id="Nqbd7N0HCV10yQmwLvFE-183" value="" style="edgeStyle=orthogonalEdgeStyle;rounded=0;orthogonalLoop=1;jettySize=auto;html=1;fontSize=10;endArrow=classic;endFill=1;entryX=0;entryY=0.5;entryDx=0;entryDy=0;entryPerimeter=0;" edge="1" parent="Nqbd7N0HCV10yQmwLvFE-147">
          <mxGeometry relative="1" as="geometry">
            <mxPoint y="362.72000000000014" as="sourcePoint" />
            <mxPoint x="30" y="362.72000000000014" as="targetPoint" />
            <Array as="points">
              <mxPoint y="362.7199999999999" />
            </Array>
          </mxGeometry>
        </mxCell>
        <mxCell id="Nqbd7N0HCV10yQmwLvFE-184" value="" style="edgeStyle=orthogonalEdgeStyle;rounded=0;orthogonalLoop=1;jettySize=auto;html=1;fontSize=10;endArrow=classic;endFill=1;entryX=0;entryY=0.5;entryDx=0;entryDy=0;entryPerimeter=0;" edge="1" parent="Nqbd7N0HCV10yQmwLvFE-147">
          <mxGeometry relative="1" as="geometry">
            <mxPoint y="381.72000000000014" as="sourcePoint" />
            <mxPoint x="30" y="381.72000000000014" as="targetPoint" />
            <Array as="points">
              <mxPoint y="381.7199999999999" />
            </Array>
          </mxGeometry>
        </mxCell>
        <mxCell id="Nqbd7N0HCV10yQmwLvFE-185" value="" style="edgeStyle=orthogonalEdgeStyle;rounded=0;orthogonalLoop=1;jettySize=auto;html=1;fontSize=10;endArrow=classic;endFill=1;entryX=0;entryY=0.5;entryDx=0;entryDy=0;entryPerimeter=0;" edge="1" parent="Nqbd7N0HCV10yQmwLvFE-147">
          <mxGeometry relative="1" as="geometry">
            <mxPoint y="249.27000000000004" as="sourcePoint" />
            <mxPoint x="30" y="249.27000000000004" as="targetPoint" />
            <Array as="points">
              <mxPoint y="249.27000000000004" />
            </Array>
          </mxGeometry>
        </mxCell>
        <mxCell id="Nqbd7N0HCV10yQmwLvFE-186" value="" style="edgeStyle=orthogonalEdgeStyle;rounded=0;orthogonalLoop=1;jettySize=auto;html=1;fontSize=10;endArrow=classic;endFill=1;entryX=0;entryY=0.5;entryDx=0;entryDy=0;entryPerimeter=0;" edge="1" parent="Nqbd7N0HCV10yQmwLvFE-147">
          <mxGeometry relative="1" as="geometry">
            <mxPoint y="268.82000000000016" as="sourcePoint" />
            <mxPoint x="30" y="268.82000000000016" as="targetPoint" />
            <Array as="points">
              <mxPoint y="268.81999999999994" />
            </Array>
          </mxGeometry>
        </mxCell>
        <mxCell id="Nqbd7N0HCV10yQmwLvFE-187" value="" style="edgeStyle=orthogonalEdgeStyle;rounded=0;orthogonalLoop=1;jettySize=auto;html=1;fontSize=10;endArrow=classic;endFill=1;entryX=0;entryY=0.5;entryDx=0;entryDy=0;entryPerimeter=0;" edge="1" parent="Nqbd7N0HCV10yQmwLvFE-147">
          <mxGeometry relative="1" as="geometry">
            <mxPoint y="287.72000000000025" as="sourcePoint" />
            <mxPoint x="30" y="287.72000000000025" as="targetPoint" />
            <Array as="points">
              <mxPoint y="287.7199999999999" />
            </Array>
          </mxGeometry>
        </mxCell>
        <mxCell id="Nqbd7N0HCV10yQmwLvFE-188" value="" style="edgeStyle=orthogonalEdgeStyle;rounded=0;orthogonalLoop=1;jettySize=auto;html=1;fontSize=10;endArrow=classic;endFill=1;entryX=0;entryY=0.5;entryDx=0;entryDy=0;entryPerimeter=0;" edge="1" parent="Nqbd7N0HCV10yQmwLvFE-147">
          <mxGeometry relative="1" as="geometry">
            <mxPoint y="305.72000000000025" as="sourcePoint" />
            <mxPoint x="30" y="305.72000000000025" as="targetPoint" />
            <Array as="points">
              <mxPoint y="305.7199999999999" />
            </Array>
          </mxGeometry>
        </mxCell>
        <mxCell id="Nqbd7N0HCV10yQmwLvFE-189" value="" style="edgeStyle=orthogonalEdgeStyle;rounded=0;orthogonalLoop=1;jettySize=auto;html=1;fontSize=10;endArrow=classic;endFill=1;entryX=0;entryY=0.5;entryDx=0;entryDy=0;entryPerimeter=0;" edge="1" parent="Nqbd7N0HCV10yQmwLvFE-147">
          <mxGeometry relative="1" as="geometry">
            <mxPoint y="174.54000000000013" as="sourcePoint" />
            <mxPoint x="30" y="174.54000000000013" as="targetPoint" />
            <Array as="points">
              <mxPoint y="174.54000000000002" />
            </Array>
          </mxGeometry>
        </mxCell>
        <mxCell id="Nqbd7N0HCV10yQmwLvFE-190" value="" style="edgeStyle=orthogonalEdgeStyle;rounded=0;orthogonalLoop=1;jettySize=auto;html=1;fontSize=10;endArrow=classic;endFill=1;entryX=0;entryY=0.5;entryDx=0;entryDy=0;entryPerimeter=0;" edge="1" parent="Nqbd7N0HCV10yQmwLvFE-147">
          <mxGeometry relative="1" as="geometry">
            <mxPoint y="193.0900000000001" as="sourcePoint" />
            <mxPoint x="30" y="193.0900000000001" as="targetPoint" />
            <Array as="points">
              <mxPoint y="193.08999999999997" />
            </Array>
          </mxGeometry>
        </mxCell>
        <mxCell id="Nqbd7N0HCV10yQmwLvFE-191" value="" style="edgeStyle=orthogonalEdgeStyle;rounded=0;orthogonalLoop=1;jettySize=auto;html=1;fontSize=10;endArrow=classic;endFill=1;entryX=0;entryY=0.5;entryDx=0;entryDy=0;entryPerimeter=0;" edge="1" parent="Nqbd7N0HCV10yQmwLvFE-147">
          <mxGeometry relative="1" as="geometry">
            <mxPoint y="211.99000000000007" as="sourcePoint" />
            <mxPoint x="30" y="211.99000000000007" as="targetPoint" />
            <Array as="points">
              <mxPoint y="211.98999999999995" />
            </Array>
          </mxGeometry>
        </mxCell>
        <mxCell id="Nqbd7N0HCV10yQmwLvFE-192" value="" style="edgeStyle=orthogonalEdgeStyle;rounded=0;orthogonalLoop=1;jettySize=auto;html=1;fontSize=10;endArrow=classic;endFill=1;entryX=0;entryY=0.5;entryDx=0;entryDy=0;entryPerimeter=0;" edge="1" parent="Nqbd7N0HCV10yQmwLvFE-147">
          <mxGeometry relative="1" as="geometry">
            <mxPoint y="229.99000000000018" as="sourcePoint" />
            <mxPoint x="30" y="229.99000000000018" as="targetPoint" />
            <Array as="points">
              <mxPoint y="229.98999999999995" />
            </Array>
          </mxGeometry>
        </mxCell>
        <mxCell id="Nqbd7N0HCV10yQmwLvFE-193" value="" style="edgeStyle=orthogonalEdgeStyle;rounded=0;orthogonalLoop=1;jettySize=auto;html=1;fontSize=10;endArrow=classic;endFill=1;entryX=0;entryY=0.5;entryDx=0;entryDy=0;entryPerimeter=0;" edge="1" parent="Nqbd7N0HCV10yQmwLvFE-147">
          <mxGeometry relative="1" as="geometry">
            <mxPoint y="117.26999999999998" as="sourcePoint" />
            <mxPoint x="30" y="117.26999999999998" as="targetPoint" />
            <Array as="points">
              <mxPoint y="117.27000000000004" />
            </Array>
          </mxGeometry>
        </mxCell>
        <mxCell id="Nqbd7N0HCV10yQmwLvFE-194" value="" style="edgeStyle=orthogonalEdgeStyle;rounded=0;orthogonalLoop=1;jettySize=auto;html=1;fontSize=10;endArrow=classic;endFill=1;entryX=0;entryY=0.5;entryDx=0;entryDy=0;entryPerimeter=0;" edge="1" parent="Nqbd7N0HCV10yQmwLvFE-147">
          <mxGeometry relative="1" as="geometry">
            <mxPoint y="136.82000000000016" as="sourcePoint" />
            <mxPoint x="30" y="136.82000000000016" as="targetPoint" />
            <Array as="points">
              <mxPoint y="136.81999999999994" />
            </Array>
          </mxGeometry>
        </mxCell>
        <mxCell id="Nqbd7N0HCV10yQmwLvFE-195" value="" style="edgeStyle=orthogonalEdgeStyle;rounded=0;orthogonalLoop=1;jettySize=auto;html=1;fontSize=10;endArrow=classic;endFill=1;entryX=0;entryY=0.5;entryDx=0;entryDy=0;entryPerimeter=0;" edge="1" parent="Nqbd7N0HCV10yQmwLvFE-147">
          <mxGeometry relative="1" as="geometry">
            <mxPoint y="155.72000000000025" as="sourcePoint" />
            <mxPoint x="30" y="155.72000000000025" as="targetPoint" />
            <Array as="points">
              <mxPoint y="155.7199999999999" />
            </Array>
          </mxGeometry>
        </mxCell>
        <mxCell id="Nqbd7N0HCV10yQmwLvFE-196" value="" style="edgeStyle=orthogonalEdgeStyle;rounded=0;orthogonalLoop=1;jettySize=auto;html=1;fontSize=10;endArrow=classic;endFill=1;entryX=0;entryY=0.5;entryDx=0;entryDy=0;entryPerimeter=0;" edge="1" parent="Nqbd7N0HCV10yQmwLvFE-147">
          <mxGeometry relative="1" as="geometry">
            <mxPoint y="42.54000000000019" as="sourcePoint" />
            <mxPoint x="30" y="42.54000000000019" as="targetPoint" />
            <Array as="points">
              <mxPoint y="42.54000000000002" />
            </Array>
          </mxGeometry>
        </mxCell>
        <mxCell id="Nqbd7N0HCV10yQmwLvFE-197" value="" style="edgeStyle=orthogonalEdgeStyle;rounded=0;orthogonalLoop=1;jettySize=auto;html=1;fontSize=10;endArrow=classic;endFill=1;entryX=0;entryY=0.5;entryDx=0;entryDy=0;entryPerimeter=0;" edge="1" parent="Nqbd7N0HCV10yQmwLvFE-147">
          <mxGeometry relative="1" as="geometry">
            <mxPoint y="61.090000000000146" as="sourcePoint" />
            <mxPoint x="30" y="61.090000000000146" as="targetPoint" />
            <Array as="points">
              <mxPoint y="61.089999999999975" />
            </Array>
          </mxGeometry>
        </mxCell>
        <mxCell id="Nqbd7N0HCV10yQmwLvFE-198" value="" style="edgeStyle=orthogonalEdgeStyle;rounded=0;orthogonalLoop=1;jettySize=auto;html=1;fontSize=10;endArrow=classic;endFill=1;entryX=0;entryY=0.5;entryDx=0;entryDy=0;entryPerimeter=0;" edge="1" parent="Nqbd7N0HCV10yQmwLvFE-147">
          <mxGeometry relative="1" as="geometry">
            <mxPoint y="79.99000000000001" as="sourcePoint" />
            <mxPoint x="30" y="79.99000000000001" as="targetPoint" />
            <Array as="points">
              <mxPoint y="79.98999999999995" />
            </Array>
          </mxGeometry>
        </mxCell>
        <mxCell id="Nqbd7N0HCV10yQmwLvFE-199" value="" style="edgeStyle=orthogonalEdgeStyle;rounded=0;orthogonalLoop=1;jettySize=auto;html=1;fontSize=10;endArrow=classic;endFill=1;entryX=0;entryY=0.5;entryDx=0;entryDy=0;entryPerimeter=0;" edge="1" parent="Nqbd7N0HCV10yQmwLvFE-147">
          <mxGeometry relative="1" as="geometry">
            <mxPoint y="97.99000000000024" as="sourcePoint" />
            <mxPoint x="30" y="97.99000000000024" as="targetPoint" />
            <Array as="points">
              <mxPoint y="97.98999999999995" />
            </Array>
          </mxGeometry>
        </mxCell>
        <mxCell id="Nqbd7N0HCV10yQmwLvFE-200" value="" style="edgeStyle=orthogonalEdgeStyle;rounded=0;orthogonalLoop=1;jettySize=auto;html=1;fontSize=10;endArrow=none;endFill=0;entryX=0;entryY=0.5;entryDx=0;entryDy=0;entryPerimeter=0;" edge="1" parent="Nqbd7N0HCV10yQmwLvFE-147">
          <mxGeometry relative="1" as="geometry">
            <mxPoint x="80" y="401.0000000000002" as="sourcePoint" />
            <mxPoint x="110" y="401.0000000000002" as="targetPoint" />
            <Array as="points">
              <mxPoint x="80" y="401" />
            </Array>
          </mxGeometry>
        </mxCell>
        <mxCell id="Nqbd7N0HCV10yQmwLvFE-201" value="" style="edgeStyle=orthogonalEdgeStyle;rounded=0;orthogonalLoop=1;jettySize=auto;html=1;fontSize=10;endArrow=none;endFill=0;entryX=0;entryY=0.5;entryDx=0;entryDy=0;entryPerimeter=0;" edge="1" parent="Nqbd7N0HCV10yQmwLvFE-147">
          <mxGeometry relative="1" as="geometry">
            <mxPoint x="80" y="418.54999999999995" as="sourcePoint" />
            <mxPoint x="110" y="418.54999999999995" as="targetPoint" />
            <Array as="points">
              <mxPoint x="80" y="418.54999999999995" />
            </Array>
          </mxGeometry>
        </mxCell>
        <mxCell id="Nqbd7N0HCV10yQmwLvFE-202" value="" style="edgeStyle=orthogonalEdgeStyle;rounded=0;orthogonalLoop=1;jettySize=auto;html=1;fontSize=10;endArrow=none;endFill=0;entryX=0;entryY=0.5;entryDx=0;entryDy=0;entryPerimeter=0;" edge="1" parent="Nqbd7N0HCV10yQmwLvFE-147">
          <mxGeometry relative="1" as="geometry">
            <mxPoint x="80" y="438.45000000000016" as="sourcePoint" />
            <mxPoint x="110" y="438.45000000000016" as="targetPoint" />
            <Array as="points">
              <mxPoint x="80" y="438.44999999999993" />
            </Array>
          </mxGeometry>
        </mxCell>
        <mxCell id="Nqbd7N0HCV10yQmwLvFE-203" value="" style="edgeStyle=orthogonalEdgeStyle;rounded=0;orthogonalLoop=1;jettySize=auto;html=1;fontSize=10;endArrow=none;endFill=0;entryX=0;entryY=0.5;entryDx=0;entryDy=0;entryPerimeter=0;" edge="1" parent="Nqbd7N0HCV10yQmwLvFE-147">
          <mxGeometry relative="1" as="geometry">
            <mxPoint x="80" y="457.45000000000016" as="sourcePoint" />
            <mxPoint x="110" y="457.45000000000016" as="targetPoint" />
            <Array as="points">
              <mxPoint x="80" y="457.44999999999993" />
            </Array>
          </mxGeometry>
        </mxCell>
        <mxCell id="Nqbd7N0HCV10yQmwLvFE-204" value="" style="edgeStyle=orthogonalEdgeStyle;rounded=0;orthogonalLoop=1;jettySize=auto;html=1;fontSize=10;endArrow=none;endFill=0;entryX=0;entryY=0.5;entryDx=0;entryDy=0;entryPerimeter=0;" edge="1" parent="Nqbd7N0HCV10yQmwLvFE-147">
          <mxGeometry relative="1" as="geometry">
            <mxPoint x="80" y="325.2700000000001" as="sourcePoint" />
            <mxPoint x="110" y="325.2700000000001" as="targetPoint" />
            <Array as="points">
              <mxPoint x="80" y="325.27" />
            </Array>
          </mxGeometry>
        </mxCell>
        <mxCell id="Nqbd7N0HCV10yQmwLvFE-205" value="" style="edgeStyle=orthogonalEdgeStyle;rounded=0;orthogonalLoop=1;jettySize=auto;html=1;fontSize=10;endArrow=none;endFill=0;entryX=0;entryY=0.5;entryDx=0;entryDy=0;entryPerimeter=0;" edge="1" parent="Nqbd7N0HCV10yQmwLvFE-147">
          <mxGeometry relative="1" as="geometry">
            <mxPoint x="80" y="343.82000000000005" as="sourcePoint" />
            <mxPoint x="110" y="343.82000000000005" as="targetPoint" />
            <Array as="points">
              <mxPoint x="80" y="343.81999999999994" />
            </Array>
          </mxGeometry>
        </mxCell>
        <mxCell id="Nqbd7N0HCV10yQmwLvFE-206" value="" style="edgeStyle=orthogonalEdgeStyle;rounded=0;orthogonalLoop=1;jettySize=auto;html=1;fontSize=10;endArrow=none;endFill=0;entryX=0;entryY=0.5;entryDx=0;entryDy=0;entryPerimeter=0;" edge="1" parent="Nqbd7N0HCV10yQmwLvFE-147">
          <mxGeometry relative="1" as="geometry">
            <mxPoint x="80" y="362.72" as="sourcePoint" />
            <mxPoint x="110" y="362.72" as="targetPoint" />
            <Array as="points">
              <mxPoint x="80" y="362.7199999999999" />
            </Array>
          </mxGeometry>
        </mxCell>
        <mxCell id="Nqbd7N0HCV10yQmwLvFE-207" value="" style="edgeStyle=orthogonalEdgeStyle;rounded=0;orthogonalLoop=1;jettySize=auto;html=1;fontSize=10;endArrow=none;endFill=0;entryX=0;entryY=0.5;entryDx=0;entryDy=0;entryPerimeter=0;" edge="1" parent="Nqbd7N0HCV10yQmwLvFE-147">
          <mxGeometry relative="1" as="geometry">
            <mxPoint x="80" y="381.72" as="sourcePoint" />
            <mxPoint x="110" y="381.72" as="targetPoint" />
            <Array as="points">
              <mxPoint x="80" y="381.7199999999999" />
            </Array>
          </mxGeometry>
        </mxCell>
        <mxCell id="Nqbd7N0HCV10yQmwLvFE-208" value="" style="edgeStyle=orthogonalEdgeStyle;rounded=0;orthogonalLoop=1;jettySize=auto;html=1;fontSize=10;endArrow=none;endFill=0;entryX=0;entryY=0.5;entryDx=0;entryDy=0;entryPerimeter=0;" edge="1" parent="Nqbd7N0HCV10yQmwLvFE-147">
          <mxGeometry relative="1" as="geometry">
            <mxPoint x="80" y="249.26999999999998" as="sourcePoint" />
            <mxPoint x="110" y="249.26999999999998" as="targetPoint" />
            <Array as="points">
              <mxPoint x="80" y="249.27000000000004" />
            </Array>
          </mxGeometry>
        </mxCell>
        <mxCell id="Nqbd7N0HCV10yQmwLvFE-209" value="" style="edgeStyle=orthogonalEdgeStyle;rounded=0;orthogonalLoop=1;jettySize=auto;html=1;fontSize=10;endArrow=none;endFill=0;entryX=0;entryY=0.5;entryDx=0;entryDy=0;entryPerimeter=0;" edge="1" parent="Nqbd7N0HCV10yQmwLvFE-147">
          <mxGeometry relative="1" as="geometry">
            <mxPoint x="80" y="268.82000000000005" as="sourcePoint" />
            <mxPoint x="110" y="268.82000000000005" as="targetPoint" />
            <Array as="points">
              <mxPoint x="80" y="268.81999999999994" />
            </Array>
          </mxGeometry>
        </mxCell>
        <mxCell id="Nqbd7N0HCV10yQmwLvFE-210" value="" style="edgeStyle=orthogonalEdgeStyle;rounded=0;orthogonalLoop=1;jettySize=auto;html=1;fontSize=10;endArrow=none;endFill=0;entryX=0;entryY=0.5;entryDx=0;entryDy=0;entryPerimeter=0;" edge="1" parent="Nqbd7N0HCV10yQmwLvFE-147">
          <mxGeometry relative="1" as="geometry">
            <mxPoint x="80" y="287.72000000000025" as="sourcePoint" />
            <mxPoint x="110" y="287.72000000000025" as="targetPoint" />
            <Array as="points">
              <mxPoint x="80" y="287.7199999999999" />
            </Array>
          </mxGeometry>
        </mxCell>
        <mxCell id="Nqbd7N0HCV10yQmwLvFE-211" value="" style="edgeStyle=orthogonalEdgeStyle;rounded=0;orthogonalLoop=1;jettySize=auto;html=1;fontSize=10;endArrow=none;endFill=0;entryX=0;entryY=0.5;entryDx=0;entryDy=0;entryPerimeter=0;" edge="1" parent="Nqbd7N0HCV10yQmwLvFE-147">
          <mxGeometry relative="1" as="geometry">
            <mxPoint x="80" y="305.72000000000025" as="sourcePoint" />
            <mxPoint x="110" y="305.72000000000025" as="targetPoint" />
            <Array as="points">
              <mxPoint x="80" y="305.7199999999999" />
            </Array>
          </mxGeometry>
        </mxCell>
        <mxCell id="Nqbd7N0HCV10yQmwLvFE-212" value="" style="edgeStyle=orthogonalEdgeStyle;rounded=0;orthogonalLoop=1;jettySize=auto;html=1;fontSize=10;endArrow=none;endFill=0;entryX=0;entryY=0.5;entryDx=0;entryDy=0;entryPerimeter=0;" edge="1" parent="Nqbd7N0HCV10yQmwLvFE-147">
          <mxGeometry relative="1" as="geometry">
            <mxPoint x="80" y="174.5400000000002" as="sourcePoint" />
            <mxPoint x="110" y="174.5400000000002" as="targetPoint" />
            <Array as="points">
              <mxPoint x="80" y="174.54000000000002" />
            </Array>
          </mxGeometry>
        </mxCell>
        <mxCell id="Nqbd7N0HCV10yQmwLvFE-213" value="" style="edgeStyle=orthogonalEdgeStyle;rounded=0;orthogonalLoop=1;jettySize=auto;html=1;fontSize=10;endArrow=none;endFill=0;entryX=0;entryY=0.5;entryDx=0;entryDy=0;entryPerimeter=0;" edge="1" parent="Nqbd7N0HCV10yQmwLvFE-147">
          <mxGeometry relative="1" as="geometry">
            <mxPoint x="80" y="193.09000000000015" as="sourcePoint" />
            <mxPoint x="110" y="193.09000000000015" as="targetPoint" />
            <Array as="points">
              <mxPoint x="80" y="193.08999999999997" />
            </Array>
          </mxGeometry>
        </mxCell>
        <mxCell id="Nqbd7N0HCV10yQmwLvFE-214" value="" style="edgeStyle=orthogonalEdgeStyle;rounded=0;orthogonalLoop=1;jettySize=auto;html=1;fontSize=10;endArrow=none;endFill=0;entryX=0;entryY=0.5;entryDx=0;entryDy=0;entryPerimeter=0;" edge="1" parent="Nqbd7N0HCV10yQmwLvFE-147">
          <mxGeometry relative="1" as="geometry">
            <mxPoint x="80" y="211.99" as="sourcePoint" />
            <mxPoint x="110" y="211.99" as="targetPoint" />
            <Array as="points">
              <mxPoint x="80" y="211.98999999999995" />
            </Array>
          </mxGeometry>
        </mxCell>
        <mxCell id="Nqbd7N0HCV10yQmwLvFE-215" value="" style="edgeStyle=orthogonalEdgeStyle;rounded=0;orthogonalLoop=1;jettySize=auto;html=1;fontSize=10;endArrow=none;endFill=0;entryX=0;entryY=0.5;entryDx=0;entryDy=0;entryPerimeter=0;" edge="1" parent="Nqbd7N0HCV10yQmwLvFE-147">
          <mxGeometry relative="1" as="geometry">
            <mxPoint x="80" y="229.99000000000024" as="sourcePoint" />
            <mxPoint x="110" y="229.99000000000024" as="targetPoint" />
            <Array as="points">
              <mxPoint x="80" y="229.98999999999995" />
            </Array>
          </mxGeometry>
        </mxCell>
        <mxCell id="Nqbd7N0HCV10yQmwLvFE-216" value="" style="edgeStyle=orthogonalEdgeStyle;rounded=0;orthogonalLoop=1;jettySize=auto;html=1;fontSize=10;endArrow=none;endFill=0;entryX=0;entryY=0.5;entryDx=0;entryDy=0;entryPerimeter=0;" edge="1" parent="Nqbd7N0HCV10yQmwLvFE-147">
          <mxGeometry relative="1" as="geometry">
            <mxPoint x="80" y="117.26999999999998" as="sourcePoint" />
            <mxPoint x="110" y="117.26999999999998" as="targetPoint" />
            <Array as="points">
              <mxPoint x="80" y="117.27000000000004" />
            </Array>
          </mxGeometry>
        </mxCell>
        <mxCell id="Nqbd7N0HCV10yQmwLvFE-217" value="" style="edgeStyle=orthogonalEdgeStyle;rounded=0;orthogonalLoop=1;jettySize=auto;html=1;fontSize=10;endArrow=none;endFill=0;entryX=0;entryY=0.5;entryDx=0;entryDy=0;entryPerimeter=0;" edge="1" parent="Nqbd7N0HCV10yQmwLvFE-147">
          <mxGeometry relative="1" as="geometry">
            <mxPoint x="80" y="136.82000000000016" as="sourcePoint" />
            <mxPoint x="110" y="136.82000000000016" as="targetPoint" />
            <Array as="points">
              <mxPoint x="80" y="136.81999999999994" />
            </Array>
          </mxGeometry>
        </mxCell>
        <mxCell id="Nqbd7N0HCV10yQmwLvFE-218" value="" style="edgeStyle=orthogonalEdgeStyle;rounded=0;orthogonalLoop=1;jettySize=auto;html=1;fontSize=10;endArrow=none;endFill=0;entryX=0;entryY=0.5;entryDx=0;entryDy=0;entryPerimeter=0;" edge="1" parent="Nqbd7N0HCV10yQmwLvFE-147">
          <mxGeometry relative="1" as="geometry">
            <mxPoint x="80" y="155.72000000000025" as="sourcePoint" />
            <mxPoint x="110" y="155.72000000000025" as="targetPoint" />
            <Array as="points">
              <mxPoint x="80" y="155.7199999999999" />
            </Array>
          </mxGeometry>
        </mxCell>
        <mxCell id="Nqbd7N0HCV10yQmwLvFE-219" value="" style="edgeStyle=orthogonalEdgeStyle;rounded=0;orthogonalLoop=1;jettySize=auto;html=1;fontSize=10;endArrow=none;endFill=0;entryX=0;entryY=0.5;entryDx=0;entryDy=0;entryPerimeter=0;" edge="1" parent="Nqbd7N0HCV10yQmwLvFE-147">
          <mxGeometry relative="1" as="geometry">
            <mxPoint x="80" y="42.54000000000019" as="sourcePoint" />
            <mxPoint x="110" y="42.54000000000019" as="targetPoint" />
            <Array as="points">
              <mxPoint x="80" y="42.54000000000002" />
            </Array>
          </mxGeometry>
        </mxCell>
        <mxCell id="Nqbd7N0HCV10yQmwLvFE-220" value="" style="edgeStyle=orthogonalEdgeStyle;rounded=0;orthogonalLoop=1;jettySize=auto;html=1;fontSize=10;endArrow=none;endFill=0;entryX=0;entryY=0.5;entryDx=0;entryDy=0;entryPerimeter=0;" edge="1" parent="Nqbd7N0HCV10yQmwLvFE-147">
          <mxGeometry relative="1" as="geometry">
            <mxPoint x="80" y="61.090000000000146" as="sourcePoint" />
            <mxPoint x="110" y="61.090000000000146" as="targetPoint" />
            <Array as="points">
              <mxPoint x="80" y="61.089999999999975" />
            </Array>
          </mxGeometry>
        </mxCell>
        <mxCell id="Nqbd7N0HCV10yQmwLvFE-221" value="" style="edgeStyle=orthogonalEdgeStyle;rounded=0;orthogonalLoop=1;jettySize=auto;html=1;fontSize=10;endArrow=none;endFill=0;entryX=0;entryY=0.5;entryDx=0;entryDy=0;entryPerimeter=0;" edge="1" parent="Nqbd7N0HCV10yQmwLvFE-147">
          <mxGeometry relative="1" as="geometry">
            <mxPoint x="80" y="79.99000000000001" as="sourcePoint" />
            <mxPoint x="110" y="79.99000000000001" as="targetPoint" />
            <Array as="points">
              <mxPoint x="80" y="79.98999999999995" />
            </Array>
          </mxGeometry>
        </mxCell>
        <mxCell id="Nqbd7N0HCV10yQmwLvFE-222" value="" style="edgeStyle=orthogonalEdgeStyle;rounded=0;orthogonalLoop=1;jettySize=auto;html=1;fontSize=10;endArrow=none;endFill=0;entryX=0;entryY=0.5;entryDx=0;entryDy=0;entryPerimeter=0;" edge="1" parent="Nqbd7N0HCV10yQmwLvFE-147">
          <mxGeometry relative="1" as="geometry">
            <mxPoint x="80" y="97.99000000000024" as="sourcePoint" />
            <mxPoint x="110" y="97.99000000000024" as="targetPoint" />
            <Array as="points">
              <mxPoint x="80" y="97.98999999999995" />
            </Array>
          </mxGeometry>
        </mxCell>
        <mxCell id="Nqbd7N0HCV10yQmwLvFE-223" value="" style="edgeStyle=orthogonalEdgeStyle;rounded=0;orthogonalLoop=1;jettySize=auto;html=1;fontSize=10;endArrow=none;endFill=0;entryX=1;entryY=0.5;entryDx=0;entryDy=0;entryPerimeter=0;exitX=1;exitY=0.5;exitDx=0;exitDy=0;exitPerimeter=0;" edge="1" parent="Nqbd7N0HCV10yQmwLvFE-147" source="Nqbd7N0HCV10yQmwLvFE-149" target="Nqbd7N0HCV10yQmwLvFE-172">
          <mxGeometry relative="1" as="geometry">
            <mxPoint x="10" y="20" as="sourcePoint" />
            <mxPoint x="40" y="486" as="targetPoint" />
            <Array as="points">
              <mxPoint x="110" y="24" />
              <mxPoint x="110" y="476" />
            </Array>
          </mxGeometry>
        </mxCell>
        <mxCell id="Nqbd7N0HCV10yQmwLvFE-224" value="" style="edgeStyle=orthogonalEdgeStyle;rounded=0;orthogonalLoop=1;jettySize=auto;html=1;fontSize=10;endArrow=classic;endFill=1;" edge="1" parent="Nqbd7N0HCV10yQmwLvFE-147">
          <mxGeometry relative="1" as="geometry">
            <mxPoint x="80" y="5" as="sourcePoint" />
            <mxPoint x="130" y="5" as="targetPoint" />
            <Array as="points">
              <mxPoint x="90" y="5" />
              <mxPoint x="90" y="5" />
            </Array>
          </mxGeometry>
        </mxCell>
        <mxCell id="Nqbd7N0HCV10yQmwLvFE-225" value="" style="edgeStyle=orthogonalEdgeStyle;rounded=0;orthogonalLoop=1;jettySize=auto;html=1;fontSize=10;endArrow=none;endFill=0;entryX=1;entryY=0.5;entryDx=0;entryDy=0;entryPerimeter=0;" edge="1" parent="Nqbd7N0HCV10yQmwLvFE-147" target="Nqbd7N0HCV10yQmwLvFE-148">
          <mxGeometry relative="1" as="geometry">
            <mxPoint x="110" y="30" as="sourcePoint" />
            <mxPoint x="110" y="10" as="targetPoint" />
            <Array as="points">
              <mxPoint x="110" y="5" />
            </Array>
          </mxGeometry>
        </mxCell>
        <mxCell id="Nqbd7N0HCV10yQmwLvFE-333" value="" style="group" vertex="1" connectable="0" parent="Nqbd7N0HCV10yQmwLvFE-1">
          <mxGeometry x="380" y="420" width="180" height="120" as="geometry" />
        </mxCell>
        <mxCell id="Nqbd7N0HCV10yQmwLvFE-321" value="&amp;nbsp;&amp;nbsp; const_value" style="rounded=0;whiteSpace=wrap;html=1;strokeWidth=1;fillColor=none;align=left;verticalAlign=top;fontStyle=1;strokeColor=#B3B3B3;" vertex="1" parent="Nqbd7N0HCV10yQmwLvFE-333">
          <mxGeometry width="180" height="120" as="geometry" />
        </mxCell>
        <mxCell id="Nqbd7N0HCV10yQmwLvFE-322" value="" style="edgeStyle=orthogonalEdgeStyle;rounded=0;orthogonalLoop=1;jettySize=auto;html=1;fontSize=10;endArrow=classicThin;endFill=1;exitX=1;exitY=0.5;exitDx=0;exitDy=0;" edge="1" source="Nqbd7N0HCV10yQmwLvFE-323" parent="Nqbd7N0HCV10yQmwLvFE-333">
          <mxGeometry relative="1" as="geometry">
            <mxPoint x="178" y="72" as="targetPoint" />
            <Array as="points" />
          </mxGeometry>
        </mxCell>
        <mxCell id="Nqbd7N0HCV10yQmwLvFE-323" value="DIGIT" style="rounded=0;whiteSpace=wrap;html=1;strokeWidth=1;fillColor=none;" vertex="1" parent="Nqbd7N0HCV10yQmwLvFE-333">
          <mxGeometry x="60" y="62" width="60" height="20" as="geometry" />
        </mxCell>
        <mxCell id="Nqbd7N0HCV10yQmwLvFE-325" value="" style="edgeStyle=orthogonalEdgeStyle;rounded=0;orthogonalLoop=1;jettySize=auto;html=1;fontSize=10;endArrow=classicThin;endFill=1;entryX=0;entryY=0.5;entryDx=0;entryDy=0;" edge="1" target="Nqbd7N0HCV10yQmwLvFE-323" parent="Nqbd7N0HCV10yQmwLvFE-333">
          <mxGeometry relative="1" as="geometry">
            <mxPoint x="15" y="72" as="sourcePoint" />
            <mxPoint x="165" y="27.720000000000255" as="targetPoint" />
            <Array as="points" />
          </mxGeometry>
        </mxCell>
        <mxCell id="Nqbd7N0HCV10yQmwLvFE-328" value="" style="endArrow=none;html=1;rounded=0;fontSize=10;endFill=0;startArrow=classicThin;startFill=1;" edge="1" parent="Nqbd7N0HCV10yQmwLvFE-333">
          <mxGeometry width="50" height="50" relative="1" as="geometry">
            <mxPoint x="41" y="72" as="sourcePoint" />
            <mxPoint x="137" y="42" as="targetPoint" />
            <Array as="points">
              <mxPoint x="41" y="42" />
            </Array>
          </mxGeometry>
        </mxCell>
        <mxCell id="Nqbd7N0HCV10yQmwLvFE-332" value="" style="endArrow=none;html=1;rounded=0;fontSize=10;exitX=1;exitY=0.5;exitDx=0;exitDy=0;" edge="1" parent="Nqbd7N0HCV10yQmwLvFE-333" source="Nqbd7N0HCV10yQmwLvFE-323">
          <mxGeometry width="50" height="50" relative="1" as="geometry">
            <mxPoint x="16" y="98" as="sourcePoint" />
            <mxPoint x="137" y="42" as="targetPoint" />
            <Array as="points">
              <mxPoint x="137" y="72" />
            </Array>
          </mxGeometry>
        </mxCell>
        <mxCell id="Nqbd7N0HCV10yQmwLvFE-228" value="&amp;nbsp;&amp;nbsp; DIGIT" style="rounded=0;whiteSpace=wrap;html=1;strokeWidth=1;fillColor=none;align=left;verticalAlign=top;fontStyle=1;strokeColor=#B3B3B3;" vertex="1" parent="Nqbd7N0HCV10yQmwLvFE-1">
          <mxGeometry x="380" y="200" width="180" height="220" as="geometry" />
        </mxCell>
        <mxCell id="Nqbd7N0HCV10yQmwLvFE-230" value="&lt;b style=&quot;font-size: 10px&quot;&gt;&#39;&lt;/b&gt;0&lt;span style=&quot;font-size: 10px&quot;&gt;&lt;/span&gt;&lt;b style=&quot;font-size: 10px&quot;&gt;&#39;&lt;/b&gt;" style="strokeWidth=1;html=1;shape=mxgraph.flowchart.terminator;whiteSpace=wrap;fillColor=none;fontSize=10;" vertex="1" parent="Nqbd7N0HCV10yQmwLvFE-1">
          <mxGeometry x="450" y="220" width="50" height="10" as="geometry" />
        </mxCell>
        <mxCell id="Nqbd7N0HCV10yQmwLvFE-231" value="&lt;b style=&quot;font-size: 10px&quot;&gt;&#39;&lt;/b&gt;1&lt;b style=&quot;font-size: 10px&quot;&gt;&#39;&lt;/b&gt;" style="strokeWidth=1;html=1;shape=mxgraph.flowchart.terminator;whiteSpace=wrap;fillColor=none;fontSize=10;" vertex="1" parent="Nqbd7N0HCV10yQmwLvFE-1">
          <mxGeometry x="450" y="239" width="50" height="10" as="geometry" />
        </mxCell>
        <mxCell id="Nqbd7N0HCV10yQmwLvFE-232" value="&lt;b style=&quot;font-size: 10px&quot;&gt;&#39;&lt;/b&gt;&lt;span style=&quot;font-size: 10px&quot;&gt;3&lt;/span&gt;&lt;b style=&quot;font-size: 10px&quot;&gt;&#39;&lt;/b&gt;" style="strokeWidth=1;html=1;shape=mxgraph.flowchart.terminator;whiteSpace=wrap;fillColor=none;fontSize=10;" vertex="1" parent="Nqbd7N0HCV10yQmwLvFE-1">
          <mxGeometry x="450" y="277" width="50" height="10" as="geometry" />
        </mxCell>
        <mxCell id="Nqbd7N0HCV10yQmwLvFE-233" value="&lt;b style=&quot;font-size: 10px&quot;&gt;&#39;&lt;/b&gt;2&lt;b style=&quot;font-size: 10px&quot;&gt;&#39;&lt;/b&gt;" style="strokeWidth=1;html=1;shape=mxgraph.flowchart.terminator;whiteSpace=wrap;fillColor=none;fontSize=10;" vertex="1" parent="Nqbd7N0HCV10yQmwLvFE-1">
          <mxGeometry x="450" y="258" width="50" height="10" as="geometry" />
        </mxCell>
        <mxCell id="Nqbd7N0HCV10yQmwLvFE-234" value="&lt;b style=&quot;font-size: 10px&quot;&gt;&#39;&lt;/b&gt;4&lt;b style=&quot;font-size: 10px&quot;&gt;&#39;&lt;/b&gt;" style="strokeWidth=1;html=1;shape=mxgraph.flowchart.terminator;whiteSpace=wrap;fillColor=none;fontSize=10;" vertex="1" parent="Nqbd7N0HCV10yQmwLvFE-1">
          <mxGeometry x="450" y="295" width="50" height="10" as="geometry" />
        </mxCell>
        <mxCell id="Nqbd7N0HCV10yQmwLvFE-235" value="&lt;div&gt;&lt;b style=&quot;font-size: 10px&quot;&gt;&#39;&lt;/b&gt;&lt;span style=&quot;font-size: 10px&quot;&gt;5&lt;/span&gt;&lt;b style=&quot;font-size: 10px&quot;&gt;&#39;&lt;/b&gt;&lt;/div&gt;" style="strokeWidth=1;html=1;shape=mxgraph.flowchart.terminator;whiteSpace=wrap;fillColor=none;fontSize=10;" vertex="1" parent="Nqbd7N0HCV10yQmwLvFE-1">
          <mxGeometry x="450" y="314" width="50" height="10" as="geometry" />
        </mxCell>
        <mxCell id="Nqbd7N0HCV10yQmwLvFE-236" value="&lt;b style=&quot;font-size: 10px&quot;&gt;&#39;&lt;/b&gt;7&lt;b style=&quot;font-size: 10px&quot;&gt;&#39;&lt;/b&gt;" style="strokeWidth=1;html=1;shape=mxgraph.flowchart.terminator;whiteSpace=wrap;fillColor=none;fontSize=10;" vertex="1" parent="Nqbd7N0HCV10yQmwLvFE-1">
          <mxGeometry x="450" y="352" width="50" height="10" as="geometry" />
        </mxCell>
        <mxCell id="Nqbd7N0HCV10yQmwLvFE-237" value="&lt;b style=&quot;font-size: 10px&quot;&gt;&#39;&lt;/b&gt;&lt;span style=&quot;font-size: 10px&quot;&gt;6&lt;/span&gt;&lt;b style=&quot;font-size: 10px&quot;&gt;&#39;&lt;/b&gt;" style="strokeWidth=1;html=1;shape=mxgraph.flowchart.terminator;whiteSpace=wrap;fillColor=none;fontSize=10;" vertex="1" parent="Nqbd7N0HCV10yQmwLvFE-1">
          <mxGeometry x="450" y="333" width="50" height="10" as="geometry" />
        </mxCell>
        <mxCell id="Nqbd7N0HCV10yQmwLvFE-238" value="&lt;b style=&quot;font-size: 10px&quot;&gt;&#39;&lt;/b&gt;&lt;span style=&quot;font-size: 10px&quot;&gt;8&lt;/span&gt;&lt;b style=&quot;font-size: 10px&quot;&gt;&#39;&lt;/b&gt;" style="strokeWidth=1;html=1;shape=mxgraph.flowchart.terminator;whiteSpace=wrap;fillColor=none;fontSize=10;" vertex="1" parent="Nqbd7N0HCV10yQmwLvFE-1">
          <mxGeometry x="450" y="371" width="50" height="10" as="geometry" />
        </mxCell>
        <mxCell id="Nqbd7N0HCV10yQmwLvFE-239" value="&lt;b style=&quot;font-size: 10px&quot;&gt;&#39;&lt;/b&gt;&lt;span style=&quot;font-size: 10px&quot;&gt;9&lt;/span&gt;&lt;b style=&quot;font-size: 10px&quot;&gt;&#39;&lt;/b&gt;" style="strokeWidth=1;html=1;shape=mxgraph.flowchart.terminator;whiteSpace=wrap;fillColor=none;fontSize=10;" vertex="1" parent="Nqbd7N0HCV10yQmwLvFE-1">
          <mxGeometry x="450" y="390" width="50" height="10" as="geometry" />
        </mxCell>
        <mxCell id="Nqbd7N0HCV10yQmwLvFE-256" value="" style="edgeStyle=orthogonalEdgeStyle;rounded=0;orthogonalLoop=1;jettySize=auto;html=1;fontSize=10;endArrow=classic;endFill=1;entryX=0;entryY=0.5;entryDx=0;entryDy=0;entryPerimeter=0;" edge="1" parent="Nqbd7N0HCV10yQmwLvFE-1" target="Nqbd7N0HCV10yQmwLvFE-230">
          <mxGeometry relative="1" as="geometry">
            <mxPoint x="410" y="225" as="sourcePoint" />
            <Array as="points">
              <mxPoint x="420" y="225" />
              <mxPoint x="420" y="225" />
            </Array>
          </mxGeometry>
        </mxCell>
        <mxCell id="Nqbd7N0HCV10yQmwLvFE-257" value="" style="edgeStyle=orthogonalEdgeStyle;rounded=0;orthogonalLoop=1;jettySize=auto;html=1;fontSize=10;endArrow=classic;endFill=1;entryX=0;entryY=0.5;entryDx=0;entryDy=0;entryPerimeter=0;exitX=1;exitY=0.5;exitDx=0;exitDy=0;" edge="1" parent="Nqbd7N0HCV10yQmwLvFE-1" target="Nqbd7N0HCV10yQmwLvFE-231">
          <mxGeometry relative="1" as="geometry">
            <mxPoint x="410" y="225" as="sourcePoint" />
            <mxPoint x="460" y="235" as="targetPoint" />
            <Array as="points">
              <mxPoint x="420" y="225" />
              <mxPoint x="420" y="244" />
            </Array>
          </mxGeometry>
        </mxCell>
        <mxCell id="Nqbd7N0HCV10yQmwLvFE-258" value="" style="edgeStyle=orthogonalEdgeStyle;rounded=0;orthogonalLoop=1;jettySize=auto;html=1;fontSize=10;endArrow=classic;endFill=1;entryX=0;entryY=0.5;entryDx=0;entryDy=0;entryPerimeter=0;" edge="1" parent="Nqbd7N0HCV10yQmwLvFE-1" target="Nqbd7N0HCV10yQmwLvFE-239">
          <mxGeometry relative="1" as="geometry">
            <mxPoint x="420" y="230" as="sourcePoint" />
            <mxPoint x="450" y="696" as="targetPoint" />
            <Array as="points">
              <mxPoint x="420" y="395" />
            </Array>
          </mxGeometry>
        </mxCell>
        <mxCell id="Nqbd7N0HCV10yQmwLvFE-275" value="" style="edgeStyle=orthogonalEdgeStyle;rounded=0;orthogonalLoop=1;jettySize=auto;html=1;fontSize=10;endArrow=classic;endFill=1;entryX=0;entryY=0.5;entryDx=0;entryDy=0;entryPerimeter=0;" edge="1" parent="Nqbd7N0HCV10yQmwLvFE-1">
          <mxGeometry relative="1" as="geometry">
            <mxPoint x="420" y="337.27" as="sourcePoint" />
            <mxPoint x="450" y="337.27" as="targetPoint" />
            <Array as="points">
              <mxPoint x="420" y="337.27000000000004" />
            </Array>
          </mxGeometry>
        </mxCell>
        <mxCell id="Nqbd7N0HCV10yQmwLvFE-276" value="" style="edgeStyle=orthogonalEdgeStyle;rounded=0;orthogonalLoop=1;jettySize=auto;html=1;fontSize=10;endArrow=classic;endFill=1;entryX=0;entryY=0.5;entryDx=0;entryDy=0;entryPerimeter=0;" edge="1" parent="Nqbd7N0HCV10yQmwLvFE-1">
          <mxGeometry relative="1" as="geometry">
            <mxPoint x="420" y="356.82000000000016" as="sourcePoint" />
            <mxPoint x="450" y="356.82000000000016" as="targetPoint" />
            <Array as="points">
              <mxPoint x="420" y="356.81999999999994" />
            </Array>
          </mxGeometry>
        </mxCell>
        <mxCell id="Nqbd7N0HCV10yQmwLvFE-277" value="" style="edgeStyle=orthogonalEdgeStyle;rounded=0;orthogonalLoop=1;jettySize=auto;html=1;fontSize=10;endArrow=classic;endFill=1;entryX=0;entryY=0.5;entryDx=0;entryDy=0;entryPerimeter=0;" edge="1" parent="Nqbd7N0HCV10yQmwLvFE-1">
          <mxGeometry relative="1" as="geometry">
            <mxPoint x="420" y="375.72000000000025" as="sourcePoint" />
            <mxPoint x="450" y="375.72000000000025" as="targetPoint" />
            <Array as="points">
              <mxPoint x="420" y="375.7199999999999" />
            </Array>
          </mxGeometry>
        </mxCell>
        <mxCell id="Nqbd7N0HCV10yQmwLvFE-278" value="" style="edgeStyle=orthogonalEdgeStyle;rounded=0;orthogonalLoop=1;jettySize=auto;html=1;fontSize=10;endArrow=classic;endFill=1;entryX=0;entryY=0.5;entryDx=0;entryDy=0;entryPerimeter=0;" edge="1" parent="Nqbd7N0HCV10yQmwLvFE-1">
          <mxGeometry relative="1" as="geometry">
            <mxPoint x="420" y="262.5400000000002" as="sourcePoint" />
            <mxPoint x="450" y="262.5400000000002" as="targetPoint" />
            <Array as="points">
              <mxPoint x="420" y="262.54" />
            </Array>
          </mxGeometry>
        </mxCell>
        <mxCell id="Nqbd7N0HCV10yQmwLvFE-279" value="" style="edgeStyle=orthogonalEdgeStyle;rounded=0;orthogonalLoop=1;jettySize=auto;html=1;fontSize=10;endArrow=classic;endFill=1;entryX=0;entryY=0.5;entryDx=0;entryDy=0;entryPerimeter=0;" edge="1" parent="Nqbd7N0HCV10yQmwLvFE-1">
          <mxGeometry relative="1" as="geometry">
            <mxPoint x="420" y="281.09000000000015" as="sourcePoint" />
            <mxPoint x="450" y="281.09000000000015" as="targetPoint" />
            <Array as="points">
              <mxPoint x="420" y="281.09" />
            </Array>
          </mxGeometry>
        </mxCell>
        <mxCell id="Nqbd7N0HCV10yQmwLvFE-280" value="" style="edgeStyle=orthogonalEdgeStyle;rounded=0;orthogonalLoop=1;jettySize=auto;html=1;fontSize=10;endArrow=classic;endFill=1;entryX=0;entryY=0.5;entryDx=0;entryDy=0;entryPerimeter=0;" edge="1" parent="Nqbd7N0HCV10yQmwLvFE-1">
          <mxGeometry relative="1" as="geometry">
            <mxPoint x="420" y="299.99" as="sourcePoint" />
            <mxPoint x="450" y="299.99" as="targetPoint" />
            <Array as="points">
              <mxPoint x="420" y="299.98999999999995" />
            </Array>
          </mxGeometry>
        </mxCell>
        <mxCell id="Nqbd7N0HCV10yQmwLvFE-281" value="" style="edgeStyle=orthogonalEdgeStyle;rounded=0;orthogonalLoop=1;jettySize=auto;html=1;fontSize=10;endArrow=classic;endFill=1;entryX=0;entryY=0.5;entryDx=0;entryDy=0;entryPerimeter=0;" edge="1" parent="Nqbd7N0HCV10yQmwLvFE-1">
          <mxGeometry relative="1" as="geometry">
            <mxPoint x="420" y="317.99000000000024" as="sourcePoint" />
            <mxPoint x="450" y="317.99000000000024" as="targetPoint" />
            <Array as="points">
              <mxPoint x="420" y="317.98999999999995" />
            </Array>
          </mxGeometry>
        </mxCell>
        <mxCell id="Nqbd7N0HCV10yQmwLvFE-298" value="" style="edgeStyle=orthogonalEdgeStyle;rounded=0;orthogonalLoop=1;jettySize=auto;html=1;fontSize=10;endArrow=none;endFill=0;entryX=0;entryY=0.5;entryDx=0;entryDy=0;entryPerimeter=0;" edge="1" parent="Nqbd7N0HCV10yQmwLvFE-1">
          <mxGeometry relative="1" as="geometry">
            <mxPoint x="500" y="337.27" as="sourcePoint" />
            <mxPoint x="530" y="337.27" as="targetPoint" />
            <Array as="points">
              <mxPoint x="500" y="337.27000000000004" />
            </Array>
          </mxGeometry>
        </mxCell>
        <mxCell id="Nqbd7N0HCV10yQmwLvFE-299" value="" style="edgeStyle=orthogonalEdgeStyle;rounded=0;orthogonalLoop=1;jettySize=auto;html=1;fontSize=10;endArrow=none;endFill=0;entryX=0;entryY=0.5;entryDx=0;entryDy=0;entryPerimeter=0;" edge="1" parent="Nqbd7N0HCV10yQmwLvFE-1">
          <mxGeometry relative="1" as="geometry">
            <mxPoint x="500" y="356.82000000000016" as="sourcePoint" />
            <mxPoint x="530" y="356.82000000000016" as="targetPoint" />
            <Array as="points">
              <mxPoint x="500" y="356.81999999999994" />
            </Array>
          </mxGeometry>
        </mxCell>
        <mxCell id="Nqbd7N0HCV10yQmwLvFE-300" value="" style="edgeStyle=orthogonalEdgeStyle;rounded=0;orthogonalLoop=1;jettySize=auto;html=1;fontSize=10;endArrow=none;endFill=0;entryX=0;entryY=0.5;entryDx=0;entryDy=0;entryPerimeter=0;" edge="1" parent="Nqbd7N0HCV10yQmwLvFE-1">
          <mxGeometry relative="1" as="geometry">
            <mxPoint x="500" y="375.72000000000025" as="sourcePoint" />
            <mxPoint x="530" y="375.72000000000025" as="targetPoint" />
            <Array as="points">
              <mxPoint x="500" y="375.7199999999999" />
            </Array>
          </mxGeometry>
        </mxCell>
        <mxCell id="Nqbd7N0HCV10yQmwLvFE-301" value="" style="edgeStyle=orthogonalEdgeStyle;rounded=0;orthogonalLoop=1;jettySize=auto;html=1;fontSize=10;endArrow=none;endFill=0;entryX=0;entryY=0.5;entryDx=0;entryDy=0;entryPerimeter=0;" edge="1" parent="Nqbd7N0HCV10yQmwLvFE-1">
          <mxGeometry relative="1" as="geometry">
            <mxPoint x="500" y="262.5400000000002" as="sourcePoint" />
            <mxPoint x="530" y="262.5400000000002" as="targetPoint" />
            <Array as="points">
              <mxPoint x="500" y="262.54" />
            </Array>
          </mxGeometry>
        </mxCell>
        <mxCell id="Nqbd7N0HCV10yQmwLvFE-302" value="" style="edgeStyle=orthogonalEdgeStyle;rounded=0;orthogonalLoop=1;jettySize=auto;html=1;fontSize=10;endArrow=none;endFill=0;entryX=0;entryY=0.5;entryDx=0;entryDy=0;entryPerimeter=0;" edge="1" parent="Nqbd7N0HCV10yQmwLvFE-1">
          <mxGeometry relative="1" as="geometry">
            <mxPoint x="500" y="281.09000000000015" as="sourcePoint" />
            <mxPoint x="530" y="281.09000000000015" as="targetPoint" />
            <Array as="points">
              <mxPoint x="500" y="281.09" />
            </Array>
          </mxGeometry>
        </mxCell>
        <mxCell id="Nqbd7N0HCV10yQmwLvFE-303" value="" style="edgeStyle=orthogonalEdgeStyle;rounded=0;orthogonalLoop=1;jettySize=auto;html=1;fontSize=10;endArrow=none;endFill=0;entryX=0;entryY=0.5;entryDx=0;entryDy=0;entryPerimeter=0;" edge="1" parent="Nqbd7N0HCV10yQmwLvFE-1">
          <mxGeometry relative="1" as="geometry">
            <mxPoint x="500" y="299.99" as="sourcePoint" />
            <mxPoint x="530" y="299.99" as="targetPoint" />
            <Array as="points">
              <mxPoint x="500" y="299.98999999999995" />
            </Array>
          </mxGeometry>
        </mxCell>
        <mxCell id="Nqbd7N0HCV10yQmwLvFE-304" value="" style="edgeStyle=orthogonalEdgeStyle;rounded=0;orthogonalLoop=1;jettySize=auto;html=1;fontSize=10;endArrow=none;endFill=0;entryX=0;entryY=0.5;entryDx=0;entryDy=0;entryPerimeter=0;" edge="1" parent="Nqbd7N0HCV10yQmwLvFE-1">
          <mxGeometry relative="1" as="geometry">
            <mxPoint x="500" y="317.99000000000024" as="sourcePoint" />
            <mxPoint x="530" y="317.99000000000024" as="targetPoint" />
            <Array as="points">
              <mxPoint x="500" y="317.98999999999995" />
            </Array>
          </mxGeometry>
        </mxCell>
        <mxCell id="Nqbd7N0HCV10yQmwLvFE-305" value="" style="edgeStyle=orthogonalEdgeStyle;rounded=0;orthogonalLoop=1;jettySize=auto;html=1;fontSize=10;endArrow=none;endFill=0;entryX=1;entryY=0.5;entryDx=0;entryDy=0;entryPerimeter=0;exitX=1;exitY=0.5;exitDx=0;exitDy=0;exitPerimeter=0;" edge="1" parent="Nqbd7N0HCV10yQmwLvFE-1" source="Nqbd7N0HCV10yQmwLvFE-231" target="Nqbd7N0HCV10yQmwLvFE-239">
          <mxGeometry relative="1" as="geometry">
            <mxPoint x="430" y="240" as="sourcePoint" />
            <mxPoint x="500" y="696" as="targetPoint" />
            <Array as="points">
              <mxPoint x="530" y="244" />
              <mxPoint x="530" y="395" />
            </Array>
          </mxGeometry>
        </mxCell>
        <mxCell id="Nqbd7N0HCV10yQmwLvFE-306" value="" style="edgeStyle=orthogonalEdgeStyle;rounded=0;orthogonalLoop=1;jettySize=auto;html=1;fontSize=10;endArrow=classic;endFill=1;" edge="1" parent="Nqbd7N0HCV10yQmwLvFE-1">
          <mxGeometry relative="1" as="geometry">
            <mxPoint x="500" y="225" as="sourcePoint" />
            <mxPoint x="550" y="225" as="targetPoint" />
            <Array as="points">
              <mxPoint x="510" y="225" />
              <mxPoint x="510" y="225" />
            </Array>
          </mxGeometry>
        </mxCell>
        <mxCell id="Nqbd7N0HCV10yQmwLvFE-307" value="" style="edgeStyle=orthogonalEdgeStyle;rounded=0;orthogonalLoop=1;jettySize=auto;html=1;fontSize=10;endArrow=none;endFill=0;entryX=1;entryY=0.5;entryDx=0;entryDy=0;entryPerimeter=0;" edge="1" parent="Nqbd7N0HCV10yQmwLvFE-1" target="Nqbd7N0HCV10yQmwLvFE-230">
          <mxGeometry relative="1" as="geometry">
            <mxPoint x="530" y="250" as="sourcePoint" />
            <mxPoint x="530" y="230" as="targetPoint" />
            <Array as="points">
              <mxPoint x="530" y="225" />
            </Array>
          </mxGeometry>
        </mxCell>
        <mxCell id="Nqbd7N0HCV10yQmwLvFE-351" value="&amp;nbsp;&amp;nbsp; factor" style="rounded=0;whiteSpace=wrap;html=1;strokeWidth=1;fillColor=none;align=left;verticalAlign=top;fontStyle=1;strokeColor=#B3B3B3;" vertex="1" parent="Nqbd7N0HCV10yQmwLvFE-1">
          <mxGeometry x="560" y="200" width="275" height="164" as="geometry" />
        </mxCell>
        <mxCell id="mw4mCr__2XpTh4b3JejW-22" value="&amp;nbsp;&amp;nbsp; read" style="rounded=0;whiteSpace=wrap;html=1;strokeWidth=1;fillColor=none;align=left;verticalAlign=top;fontStyle=1;strokeColor=#B3B3B3;" vertex="1" parent="Nqbd7N0HCV10yQmwLvFE-1">
          <mxGeometry x="560" y="364" width="275" height="130" as="geometry" />
        </mxCell>
        <mxCell id="NnhWNiQcymzqTvCkzZHk-12" value="" style="group" vertex="1" connectable="0" parent="Nqbd7N0HCV10yQmwLvFE-1">
          <mxGeometry x="583" y="669" width="255" height="50" as="geometry" />
        </mxCell>
        <mxCell id="NnhWNiQcymzqTvCkzZHk-1" value="var_name" style="rounded=0;whiteSpace=wrap;html=1;strokeWidth=1;fillColor=none;" vertex="1" parent="NnhWNiQcymzqTvCkzZHk-12">
          <mxGeometry x="8" y="-3" width="70" height="22" as="geometry" />
        </mxCell>
        <mxCell id="NnhWNiQcymzqTvCkzZHk-2" value="" style="edgeStyle=orthogonalEdgeStyle;rounded=0;orthogonalLoop=1;jettySize=auto;html=1;endArrow=classicThin;endFill=1;entryX=0;entryY=0.5;entryDx=0;entryDy=0;exitX=1;exitY=0.5;exitDx=0;exitDy=0;exitPerimeter=0;" edge="1" target="NnhWNiQcymzqTvCkzZHk-1" parent="NnhWNiQcymzqTvCkzZHk-12">
          <mxGeometry relative="1" as="geometry">
            <mxPoint x="-8.999999999999773" y="8" as="sourcePoint" />
            <mxPoint x="22" y="33.0344827586207" as="targetPoint" />
            <Array as="points">
              <mxPoint y="8" />
              <mxPoint y="8" />
            </Array>
          </mxGeometry>
        </mxCell>
        <mxCell id="NnhWNiQcymzqTvCkzZHk-3" value="" style="edgeStyle=orthogonalEdgeStyle;rounded=0;orthogonalLoop=1;jettySize=auto;html=1;fontSize=10;startArrow=none;startFill=0;endArrow=classicThin;endFill=1;exitX=1;exitY=0.5;exitDx=0;exitDy=0;entryX=0;entryY=0.5;entryDx=0;entryDy=0;entryPerimeter=0;" edge="1" source="NnhWNiQcymzqTvCkzZHk-1" target="NnhWNiQcymzqTvCkzZHk-6" parent="NnhWNiQcymzqTvCkzZHk-12">
          <mxGeometry relative="1" as="geometry">
            <mxPoint x="98" y="20" as="sourcePoint" />
            <mxPoint x="100" y="33" as="targetPoint" />
            <Array as="points">
              <mxPoint x="78" y="8" />
            </Array>
          </mxGeometry>
        </mxCell>
        <mxCell id="NnhWNiQcymzqTvCkzZHk-6" value="&lt;b style=&quot;font-size: 10px&quot;&gt;&#39;&lt;/b&gt;&lt;b style=&quot;font-size: 10px&quot;&gt;=&#39;&lt;/b&gt;" style="strokeWidth=1;html=1;shape=mxgraph.flowchart.terminator;whiteSpace=wrap;fillColor=none;fontSize=10;" vertex="1" parent="NnhWNiQcymzqTvCkzZHk-12">
          <mxGeometry x="94" y="1.5" width="29" height="13" as="geometry" />
        </mxCell>
        <mxCell id="NnhWNiQcymzqTvCkzZHk-8" value="factor" style="rounded=0;whiteSpace=wrap;html=1;strokeWidth=1;fillColor=none;" vertex="1" parent="NnhWNiQcymzqTvCkzZHk-12">
          <mxGeometry x="138" y="-3" width="42" height="22" as="geometry" />
        </mxCell>
        <mxCell id="NnhWNiQcymzqTvCkzZHk-5" value="" style="edgeStyle=orthogonalEdgeStyle;rounded=0;orthogonalLoop=1;jettySize=auto;html=1;fontSize=10;fontColor=#EA6B66;startArrow=none;startFill=0;endArrow=classicThin;endFill=1;entryX=0;entryY=0.5;entryDx=0;entryDy=0;exitX=1;exitY=0.5;exitDx=0;exitDy=0;exitPerimeter=0;" edge="1" source="NnhWNiQcymzqTvCkzZHk-6" parent="NnhWNiQcymzqTvCkzZHk-12" target="NnhWNiQcymzqTvCkzZHk-8">
          <mxGeometry relative="1" as="geometry">
            <mxPoint x="142" y="8" as="targetPoint" />
            <Array as="points">
              <mxPoint x="123" y="8" />
              <mxPoint x="123" y="8" />
            </Array>
          </mxGeometry>
        </mxCell>
        <mxCell id="NnhWNiQcymzqTvCkzZHk-9" value="&lt;b style=&quot;font-size: 10px&quot;&gt;&#39;&lt;/b&gt;&lt;b style=&quot;font-size: 10px&quot;&gt;;&#39;&lt;/b&gt;" style="strokeWidth=1;html=1;shape=mxgraph.flowchart.terminator;whiteSpace=wrap;fillColor=none;fontSize=10;" vertex="1" parent="NnhWNiQcymzqTvCkzZHk-12">
          <mxGeometry x="196" y="1.5" width="29" height="13" as="geometry" />
        </mxCell>
        <mxCell id="NnhWNiQcymzqTvCkzZHk-10" value="" style="edgeStyle=orthogonalEdgeStyle;rounded=0;orthogonalLoop=1;jettySize=auto;html=1;fontSize=10;fontColor=#EA6B66;startArrow=none;startFill=0;endArrow=classicThin;endFill=1;entryX=0;entryY=0.5;entryDx=0;entryDy=0;exitX=1;exitY=0.5;exitDx=0;exitDy=0;entryPerimeter=0;" edge="1" parent="NnhWNiQcymzqTvCkzZHk-12" source="NnhWNiQcymzqTvCkzZHk-8" target="NnhWNiQcymzqTvCkzZHk-9">
          <mxGeometry relative="1" as="geometry">
            <mxPoint x="181.00000000000023" y="7.999999999999886" as="sourcePoint" />
            <mxPoint x="196" y="8" as="targetPoint" />
            <Array as="points" />
          </mxGeometry>
        </mxCell>
        <mxCell id="NnhWNiQcymzqTvCkzZHk-11" value="" style="edgeStyle=orthogonalEdgeStyle;rounded=0;orthogonalLoop=1;jettySize=auto;html=1;fontSize=10;fontColor=#EA6B66;startArrow=none;startFill=0;endArrow=classicThin;endFill=1;entryX=0;entryY=0.5;entryDx=0;entryDy=0;exitX=1;exitY=0.5;exitDx=0;exitDy=0;entryPerimeter=0;exitPerimeter=0;" edge="1" parent="NnhWNiQcymzqTvCkzZHk-12" source="NnhWNiQcymzqTvCkzZHk-9">
          <mxGeometry relative="1" as="geometry">
            <mxPoint x="225" y="8" as="sourcePoint" />
            <mxPoint x="241" y="8" as="targetPoint" />
            <Array as="points" />
          </mxGeometry>
        </mxCell>
        <mxCell id="NnhWNiQcymzqTvCkzZHk-0" value="&amp;nbsp;&amp;nbsp; assign" style="rounded=0;whiteSpace=wrap;html=1;strokeWidth=1;fillColor=none;align=left;verticalAlign=top;fontStyle=1;strokeColor=#B3B3B3;" vertex="1" parent="NnhWNiQcymzqTvCkzZHk-12">
          <mxGeometry x="-23" y="-61" width="275" height="112" as="geometry" />
        </mxCell>
        <mxCell id="NnhWNiQcymzqTvCkzZHk-13" value="" style="group" vertex="1" connectable="0" parent="Nqbd7N0HCV10yQmwLvFE-1">
          <mxGeometry x="613" y="248" width="191" height="84" as="geometry" />
        </mxCell>
        <mxCell id="Nqbd7N0HCV10yQmwLvFE-339" value="expr" style="rounded=0;whiteSpace=wrap;html=1;strokeWidth=1;fillColor=none;container=0;" vertex="1" parent="NnhWNiQcymzqTvCkzZHk-13">
          <mxGeometry x="52" y="62" width="70" height="22" as="geometry" />
        </mxCell>
        <mxCell id="Nqbd7N0HCV10yQmwLvFE-17" value="" style="edgeStyle=orthogonalEdgeStyle;rounded=0;orthogonalLoop=1;jettySize=auto;html=1;endArrow=classicThin;endFill=1;entryX=0;entryY=0.5;entryDx=0;entryDy=0;exitX=1;exitY=0.5;exitDx=0;exitDy=0;exitPerimeter=0;" edge="1" parent="NnhWNiQcymzqTvCkzZHk-13" source="Nqbd7N0HCV10yQmwLvFE-338" target="Nqbd7N0HCV10yQmwLvFE-339">
          <mxGeometry relative="1" as="geometry">
            <mxPoint x="32" y="73" as="sourcePoint" />
            <mxPoint x="56" y="98.0344827586207" as="targetPoint" />
          </mxGeometry>
        </mxCell>
        <mxCell id="Nqbd7N0HCV10yQmwLvFE-341" value="" style="edgeStyle=orthogonalEdgeStyle;rounded=0;orthogonalLoop=1;jettySize=auto;html=1;fontSize=10;startArrow=none;startFill=0;endArrow=classicThin;endFill=1;exitX=1;exitY=0.5;exitDx=0;exitDy=0;entryX=0;entryY=0.5;entryDx=0;entryDy=0;entryPerimeter=0;" edge="1" parent="NnhWNiQcymzqTvCkzZHk-13" source="Nqbd7N0HCV10yQmwLvFE-339" target="Nqbd7N0HCV10yQmwLvFE-340">
          <mxGeometry relative="1" as="geometry">
            <mxPoint x="132" y="85" as="sourcePoint" />
            <mxPoint x="134" y="98" as="targetPoint" />
            <Array as="points">
              <mxPoint x="132" y="73" />
              <mxPoint x="132" y="73" />
            </Array>
          </mxGeometry>
        </mxCell>
        <mxCell id="Nqbd7N0HCV10yQmwLvFE-334" value="var_name" style="rounded=0;whiteSpace=wrap;html=1;strokeWidth=1;fillColor=none;container=0;" vertex="1" parent="NnhWNiQcymzqTvCkzZHk-13">
          <mxGeometry x="51" width="70" height="22" as="geometry" />
        </mxCell>
        <mxCell id="Nqbd7N0HCV10yQmwLvFE-337" value="const_value" style="rounded=0;whiteSpace=wrap;html=1;strokeWidth=1;fillColor=none;container=0;" vertex="1" parent="NnhWNiQcymzqTvCkzZHk-13">
          <mxGeometry x="52" y="30" width="70" height="22" as="geometry" />
        </mxCell>
        <mxCell id="Nqbd7N0HCV10yQmwLvFE-338" value="&lt;b style=&quot;font-size: 10px&quot;&gt;&#39;&lt;/b&gt;&lt;span style=&quot;font-size: 10px&quot;&gt;(&lt;/span&gt;&lt;b style=&quot;font-size: 10px&quot;&gt;&#39;&lt;/b&gt;" style="strokeWidth=1;html=1;shape=mxgraph.flowchart.terminator;whiteSpace=wrap;fillColor=none;fontSize=10;container=0;" vertex="1" parent="NnhWNiQcymzqTvCkzZHk-13">
          <mxGeometry x="8" y="68" width="28" height="10" as="geometry" />
        </mxCell>
        <mxCell id="Nqbd7N0HCV10yQmwLvFE-340" value="&lt;b style=&quot;font-size: 10px&quot;&gt;&#39;&lt;/b&gt;&lt;b&gt;)&lt;/b&gt;&lt;b style=&quot;font-size: 10px&quot;&gt;&#39;&lt;/b&gt;" style="strokeWidth=1;html=1;shape=mxgraph.flowchart.terminator;whiteSpace=wrap;fillColor=none;fontSize=10;container=0;" vertex="1" parent="NnhWNiQcymzqTvCkzZHk-13">
          <mxGeometry x="138" y="68" width="29" height="10" as="geometry" />
        </mxCell>
        <mxCell id="Nqbd7N0HCV10yQmwLvFE-342" value="" style="edgeStyle=orthogonalEdgeStyle;rounded=0;orthogonalLoop=1;jettySize=auto;html=1;fontSize=10;startArrow=none;startFill=0;endArrow=classicThin;endFill=1;exitX=1;exitY=0.5;exitDx=0;exitDy=0;" edge="1" parent="NnhWNiQcymzqTvCkzZHk-13" source="Nqbd7N0HCV10yQmwLvFE-334">
          <mxGeometry relative="1" as="geometry">
            <mxPoint x="132.00000000000023" y="83.00000000000011" as="sourcePoint" />
            <mxPoint x="191" y="11" as="targetPoint" />
          </mxGeometry>
        </mxCell>
        <mxCell id="Nqbd7N0HCV10yQmwLvFE-343" value="" style="edgeStyle=orthogonalEdgeStyle;rounded=0;orthogonalLoop=1;jettySize=auto;html=1;fontSize=10;startArrow=none;startFill=0;endArrow=classicThin;endFill=1;" edge="1" parent="NnhWNiQcymzqTvCkzZHk-13">
          <mxGeometry relative="1" as="geometry">
            <mxPoint x="-8" y="11" as="sourcePoint" />
            <mxPoint x="50.99999999999977" y="10.860000000000014" as="targetPoint" />
            <Array as="points">
              <mxPoint x="51" y="11" />
            </Array>
          </mxGeometry>
        </mxCell>
        <mxCell id="Nqbd7N0HCV10yQmwLvFE-344" value="" style="endArrow=none;html=1;rounded=0;fontSize=10;exitX=0;exitY=0.5;exitDx=0;exitDy=0;exitPerimeter=0;" edge="1" parent="NnhWNiQcymzqTvCkzZHk-13" source="Nqbd7N0HCV10yQmwLvFE-338">
          <mxGeometry width="50" height="50" relative="1" as="geometry">
            <mxPoint x="59" y="47" as="sourcePoint" />
            <mxPoint y="11" as="targetPoint" />
            <Array as="points">
              <mxPoint y="73" />
            </Array>
          </mxGeometry>
        </mxCell>
        <mxCell id="Nqbd7N0HCV10yQmwLvFE-347" value="" style="edgeStyle=orthogonalEdgeStyle;rounded=0;orthogonalLoop=1;jettySize=auto;html=1;fontSize=10;endArrow=classic;endFill=1;entryX=0;entryY=0.5;entryDx=0;entryDy=0;" edge="1" parent="NnhWNiQcymzqTvCkzZHk-13" target="Nqbd7N0HCV10yQmwLvFE-337">
          <mxGeometry relative="1" as="geometry">
            <mxPoint y="41" as="sourcePoint" />
            <mxPoint x="-122" y="76.72000000000025" as="targetPoint" />
            <Array as="points">
              <mxPoint x="9" y="41" />
              <mxPoint x="9" y="41" />
            </Array>
          </mxGeometry>
        </mxCell>
        <mxCell id="Nqbd7N0HCV10yQmwLvFE-348" value="" style="edgeStyle=orthogonalEdgeStyle;rounded=0;orthogonalLoop=1;jettySize=auto;html=1;fontSize=10;endArrow=none;endFill=0;exitX=1;exitY=0.5;exitDx=0;exitDy=0;exitPerimeter=0;entryX=1;entryY=0.5;entryDx=0;entryDy=0;" edge="1" parent="NnhWNiQcymzqTvCkzZHk-13" source="Nqbd7N0HCV10yQmwLvFE-340" target="Nqbd7N0HCV10yQmwLvFE-337">
          <mxGeometry relative="1" as="geometry">
            <mxPoint x="9.999999999999886" y="51" as="sourcePoint" />
            <mxPoint x="121" y="38" as="targetPoint" />
            <Array as="points">
              <mxPoint x="174" y="73" />
              <mxPoint x="174" y="41" />
            </Array>
          </mxGeometry>
        </mxCell>
        <mxCell id="Nqbd7N0HCV10yQmwLvFE-349" value="" style="edgeStyle=orthogonalEdgeStyle;rounded=0;orthogonalLoop=1;jettySize=auto;html=1;fontSize=10;endArrow=none;endFill=0;exitX=1;exitY=0.5;exitDx=0;exitDy=0;exitPerimeter=0;" edge="1" parent="NnhWNiQcymzqTvCkzZHk-13" source="Nqbd7N0HCV10yQmwLvFE-340">
          <mxGeometry relative="1" as="geometry">
            <mxPoint x="175" y="93" as="sourcePoint" />
            <mxPoint x="174" y="12" as="targetPoint" />
            <Array as="points">
              <mxPoint x="174" y="73" />
              <mxPoint x="174" y="51" />
            </Array>
          </mxGeometry>
        </mxCell>
        <mxCell id="NnhWNiQcymzqTvCkzZHk-14" value="" style="group" vertex="1" connectable="0" parent="Nqbd7N0HCV10yQmwLvFE-1">
          <mxGeometry x="592" y="546" width="197" height="22" as="geometry" />
        </mxCell>
        <mxCell id="mw4mCr__2XpTh4b3JejW-23" value="var_name" style="rounded=0;whiteSpace=wrap;html=1;strokeWidth=1;fillColor=none;" vertex="1" parent="NnhWNiQcymzqTvCkzZHk-14">
          <mxGeometry x="73" width="70" height="22" as="geometry" />
        </mxCell>
        <mxCell id="mw4mCr__2XpTh4b3JejW-24" value="" style="edgeStyle=orthogonalEdgeStyle;rounded=0;orthogonalLoop=1;jettySize=auto;html=1;endArrow=classicThin;endFill=1;entryX=0;entryY=0.5;entryDx=0;entryDy=0;exitX=1;exitY=0.5;exitDx=0;exitDy=0;exitPerimeter=0;" edge="1" source="mw4mCr__2XpTh4b3JejW-26" target="mw4mCr__2XpTh4b3JejW-23" parent="NnhWNiQcymzqTvCkzZHk-14">
          <mxGeometry relative="1" as="geometry">
            <mxPoint x="63" y="11" as="sourcePoint" />
            <mxPoint x="87" y="36.0344827586207" as="targetPoint" />
            <Array as="points">
              <mxPoint x="65" y="11" />
              <mxPoint x="65" y="11" />
            </Array>
          </mxGeometry>
        </mxCell>
        <mxCell id="mw4mCr__2XpTh4b3JejW-25" value="" style="edgeStyle=orthogonalEdgeStyle;rounded=0;orthogonalLoop=1;jettySize=auto;html=1;fontSize=10;startArrow=none;startFill=0;endArrow=classicThin;endFill=1;exitX=1;exitY=0.5;exitDx=0;exitDy=0;entryX=0;entryY=0.5;entryDx=0;entryDy=0;entryPerimeter=0;" edge="1" source="mw4mCr__2XpTh4b3JejW-23" target="mw4mCr__2XpTh4b3JejW-28" parent="NnhWNiQcymzqTvCkzZHk-14">
          <mxGeometry relative="1" as="geometry">
            <mxPoint x="163" y="23" as="sourcePoint" />
            <mxPoint x="165" y="36" as="targetPoint" />
            <Array as="points">
              <mxPoint x="143" y="11" />
            </Array>
          </mxGeometry>
        </mxCell>
        <mxCell id="mw4mCr__2XpTh4b3JejW-26" value="&lt;b style=&quot;font-size: 10px&quot;&gt;&#39;print&lt;/b&gt;&lt;b&gt;&lt;/b&gt;&lt;b style=&quot;font-size: 10px&quot;&gt;&#39;&lt;/b&gt;" style="strokeWidth=1;html=1;shape=mxgraph.flowchart.terminator;whiteSpace=wrap;fillColor=none;fontSize=10;" vertex="1" parent="NnhWNiQcymzqTvCkzZHk-14">
          <mxGeometry x="16" y="5" width="40" height="12" as="geometry" />
        </mxCell>
        <mxCell id="mw4mCr__2XpTh4b3JejW-27" value="" style="edgeStyle=orthogonalEdgeStyle;rounded=0;orthogonalLoop=1;jettySize=auto;html=1;fontSize=10;fontColor=#EA6B66;startArrow=none;startFill=0;endArrow=classicThin;endFill=1;" edge="1" source="mw4mCr__2XpTh4b3JejW-28" parent="NnhWNiQcymzqTvCkzZHk-14">
          <mxGeometry relative="1" as="geometry">
            <mxPoint x="207" y="11" as="targetPoint" />
            <Array as="points">
              <mxPoint x="197" y="11" />
            </Array>
          </mxGeometry>
        </mxCell>
        <mxCell id="mw4mCr__2XpTh4b3JejW-28" value="&lt;b style=&quot;font-size: 10px&quot;&gt;&#39;&lt;/b&gt;&lt;b style=&quot;font-size: 10px&quot;&gt;;&#39;&lt;/b&gt;" style="strokeWidth=1;html=1;shape=mxgraph.flowchart.terminator;whiteSpace=wrap;fillColor=none;fontSize=10;" vertex="1" parent="NnhWNiQcymzqTvCkzZHk-14">
          <mxGeometry x="159" y="4.5" width="29" height="13" as="geometry" />
        </mxCell>
        <mxCell id="mw4mCr__2XpTh4b3JejW-29" value="" style="endArrow=classicThin;html=1;rounded=0;fontSize=10;endFill=1;entryX=0;entryY=0.5;entryDx=0;entryDy=0;entryPerimeter=0;" edge="1" target="mw4mCr__2XpTh4b3JejW-26" parent="NnhWNiQcymzqTvCkzZHk-14">
          <mxGeometry width="50" height="50" relative="1" as="geometry">
            <mxPoint y="11" as="sourcePoint" />
            <mxPoint x="-36" y="11.949999999999932" as="targetPoint" />
            <Array as="points" />
          </mxGeometry>
        </mxCell>
        <mxCell id="NnhWNiQcymzqTvCkzZHk-15" value="" style="group" vertex="1" connectable="0" parent="Nqbd7N0HCV10yQmwLvFE-1">
          <mxGeometry x="598" y="424" width="197" height="22" as="geometry" />
        </mxCell>
        <mxCell id="mw4mCr__2XpTh4b3JejW-2" value="var_name" style="rounded=0;whiteSpace=wrap;html=1;strokeWidth=1;fillColor=none;" vertex="1" parent="NnhWNiQcymzqTvCkzZHk-15">
          <mxGeometry x="73" width="70" height="22" as="geometry" />
        </mxCell>
        <mxCell id="mw4mCr__2XpTh4b3JejW-3" value="" style="edgeStyle=orthogonalEdgeStyle;rounded=0;orthogonalLoop=1;jettySize=auto;html=1;endArrow=classicThin;endFill=1;entryX=0;entryY=0.5;entryDx=0;entryDy=0;exitX=1;exitY=0.5;exitDx=0;exitDy=0;exitPerimeter=0;" edge="1" parent="NnhWNiQcymzqTvCkzZHk-15" source="mw4mCr__2XpTh4b3JejW-8" target="mw4mCr__2XpTh4b3JejW-2">
          <mxGeometry relative="1" as="geometry">
            <mxPoint x="63" y="11" as="sourcePoint" />
            <mxPoint x="87" y="36.0344827586207" as="targetPoint" />
            <Array as="points">
              <mxPoint x="65" y="11" />
              <mxPoint x="65" y="11" />
            </Array>
          </mxGeometry>
        </mxCell>
        <mxCell id="mw4mCr__2XpTh4b3JejW-4" value="" style="edgeStyle=orthogonalEdgeStyle;rounded=0;orthogonalLoop=1;jettySize=auto;html=1;fontSize=10;startArrow=none;startFill=0;endArrow=classicThin;endFill=1;exitX=1;exitY=0.5;exitDx=0;exitDy=0;entryX=0;entryY=0.5;entryDx=0;entryDy=0;entryPerimeter=0;" edge="1" parent="NnhWNiQcymzqTvCkzZHk-15" source="mw4mCr__2XpTh4b3JejW-2" target="mw4mCr__2XpTh4b3JejW-9">
          <mxGeometry relative="1" as="geometry">
            <mxPoint x="163" y="23" as="sourcePoint" />
            <mxPoint x="165" y="36" as="targetPoint" />
            <Array as="points">
              <mxPoint x="143" y="11" />
            </Array>
          </mxGeometry>
        </mxCell>
        <mxCell id="mw4mCr__2XpTh4b3JejW-8" value="&lt;b style=&quot;font-size: 10px&quot;&gt;&#39;&lt;/b&gt;&lt;b&gt;read&lt;/b&gt;&lt;b style=&quot;font-size: 10px&quot;&gt;&#39;&lt;/b&gt;" style="strokeWidth=1;html=1;shape=mxgraph.flowchart.terminator;whiteSpace=wrap;fillColor=none;fontSize=10;" vertex="1" parent="NnhWNiQcymzqTvCkzZHk-15">
          <mxGeometry x="16" y="5" width="40" height="12" as="geometry" />
        </mxCell>
        <mxCell id="mw4mCr__2XpTh4b3JejW-21" value="" style="edgeStyle=orthogonalEdgeStyle;rounded=0;orthogonalLoop=1;jettySize=auto;html=1;fontSize=10;fontColor=#EA6B66;startArrow=none;startFill=0;endArrow=classicThin;endFill=1;" edge="1" parent="NnhWNiQcymzqTvCkzZHk-15" source="mw4mCr__2XpTh4b3JejW-9">
          <mxGeometry relative="1" as="geometry">
            <mxPoint x="207" y="11" as="targetPoint" />
            <Array as="points">
              <mxPoint x="197" y="11" />
            </Array>
          </mxGeometry>
        </mxCell>
        <mxCell id="mw4mCr__2XpTh4b3JejW-9" value="&lt;b style=&quot;font-size: 10px&quot;&gt;&#39;&lt;/b&gt;&lt;b style=&quot;font-size: 10px&quot;&gt;;&#39;&lt;/b&gt;" style="strokeWidth=1;html=1;shape=mxgraph.flowchart.terminator;whiteSpace=wrap;fillColor=none;fontSize=10;" vertex="1" parent="NnhWNiQcymzqTvCkzZHk-15">
          <mxGeometry x="159" y="4.5" width="29" height="13" as="geometry" />
        </mxCell>
        <mxCell id="mw4mCr__2XpTh4b3JejW-12" value="" style="endArrow=classicThin;html=1;rounded=0;fontSize=10;endFill=1;entryX=0;entryY=0.5;entryDx=0;entryDy=0;entryPerimeter=0;" edge="1" parent="NnhWNiQcymzqTvCkzZHk-15" target="mw4mCr__2XpTh4b3JejW-8">
          <mxGeometry width="50" height="50" relative="1" as="geometry">
            <mxPoint y="11" as="sourcePoint" />
            <mxPoint x="-36" y="11.949999999999932" as="targetPoint" />
            <Array as="points" />
          </mxGeometry>
        </mxCell>
      </root>
    </mxGraphModel>
  </diagram>
  <diagram id="B3vFACDqq2_OMB55cvlZ" name="SyntaxDiagramIt2">
    <mxGraphModel dx="1127" dy="791" grid="1" gridSize="10" guides="1" tooltips="1" connect="1" arrows="1" fold="1" page="1" pageScale="1" pageWidth="1169" pageHeight="827" math="0" shadow="0">
      <root>
        <mxCell id="G3h3eTl2SiQmyharPNOo-0" />
        <mxCell id="G3h3eTl2SiQmyharPNOo-1" parent="G3h3eTl2SiQmyharPNOo-0" />
        <mxCell id="p0LMakNuVA9YUf5y1D9H-0" value="" style="group" vertex="1" connectable="0" parent="G3h3eTl2SiQmyharPNOo-1">
          <mxGeometry x="40" y="330" width="225" height="193" as="geometry" />
        </mxCell>
        <mxCell id="G3h3eTl2SiQmyharPNOo-2" value="" style="group" vertex="1" connectable="0" parent="p0LMakNuVA9YUf5y1D9H-0">
          <mxGeometry x="21" y="40" width="191" height="117" as="geometry" />
        </mxCell>
        <mxCell id="G3h3eTl2SiQmyharPNOo-3" value="factor" style="rounded=0;whiteSpace=wrap;html=1;strokeWidth=1;fillColor=none;" vertex="1" parent="G3h3eTl2SiQmyharPNOo-2">
          <mxGeometry x="51" width="70" height="22" as="geometry" />
        </mxCell>
        <mxCell id="G3h3eTl2SiQmyharPNOo-4" value="&lt;b style=&quot;font-size: 10px&quot;&gt;&#39;&lt;/b&gt;&lt;span style=&quot;font-size: 10px&quot;&gt;*&lt;/span&gt;&lt;b style=&quot;font-size: 10px&quot;&gt;&#39;&lt;/b&gt;" style="strokeWidth=1;html=1;shape=mxgraph.flowchart.terminator;whiteSpace=wrap;fillColor=none;fontSize=10;" vertex="1" parent="G3h3eTl2SiQmyharPNOo-2">
          <mxGeometry x="73" y="43" width="29" height="10" as="geometry" />
        </mxCell>
        <mxCell id="G3h3eTl2SiQmyharPNOo-5" value="" style="edgeStyle=orthogonalEdgeStyle;rounded=0;orthogonalLoop=1;jettySize=auto;html=1;fontSize=10;startArrow=none;startFill=0;endArrow=classicThin;endFill=1;exitX=1;exitY=0.5;exitDx=0;exitDy=0;" edge="1" parent="G3h3eTl2SiQmyharPNOo-2" source="G3h3eTl2SiQmyharPNOo-3">
          <mxGeometry relative="1" as="geometry">
            <mxPoint x="132.00000000000023" y="83.00000000000011" as="sourcePoint" />
            <mxPoint x="191" y="11" as="targetPoint" />
          </mxGeometry>
        </mxCell>
        <mxCell id="G3h3eTl2SiQmyharPNOo-6" value="" style="edgeStyle=orthogonalEdgeStyle;rounded=0;orthogonalLoop=1;jettySize=auto;html=1;fontSize=10;startArrow=none;startFill=0;endArrow=classicThin;endFill=1;" edge="1" parent="G3h3eTl2SiQmyharPNOo-2">
          <mxGeometry relative="1" as="geometry">
            <mxPoint x="-8" y="11" as="sourcePoint" />
            <mxPoint x="50.99999999999977" y="10.860000000000014" as="targetPoint" />
            <Array as="points">
              <mxPoint x="51" y="11" />
            </Array>
          </mxGeometry>
        </mxCell>
        <mxCell id="G3h3eTl2SiQmyharPNOo-7" value="" style="endArrow=none;html=1;rounded=0;fontSize=10;exitX=0;exitY=0.5;exitDx=0;exitDy=0;" edge="1" parent="G3h3eTl2SiQmyharPNOo-2" source="G3h3eTl2SiQmyharPNOo-10">
          <mxGeometry width="50" height="50" relative="1" as="geometry">
            <mxPoint x="59" y="47" as="sourcePoint" />
            <mxPoint y="11" as="targetPoint" />
            <Array as="points">
              <mxPoint y="48" />
            </Array>
          </mxGeometry>
        </mxCell>
        <mxCell id="G3h3eTl2SiQmyharPNOo-8" value="" style="edgeStyle=orthogonalEdgeStyle;rounded=0;orthogonalLoop=1;jettySize=auto;html=1;fontSize=10;endArrow=none;endFill=0;exitX=1;exitY=0.5;exitDx=0;exitDy=0;" edge="1" parent="G3h3eTl2SiQmyharPNOo-2" source="G3h3eTl2SiQmyharPNOo-11">
          <mxGeometry relative="1" as="geometry">
            <mxPoint x="157" y="96" as="sourcePoint" />
            <mxPoint x="174" y="12" as="targetPoint" />
            <Array as="points">
              <mxPoint x="174" y="48" />
            </Array>
          </mxGeometry>
        </mxCell>
        <mxCell id="G3h3eTl2SiQmyharPNOo-9" value="" style="edgeStyle=orthogonalEdgeStyle;rounded=0;orthogonalLoop=1;jettySize=auto;html=1;fontSize=10;startArrow=none;startFill=0;endArrow=classicThin;endFill=1;entryX=0;entryY=0.5;entryDx=0;entryDy=0;entryPerimeter=0;exitX=1;exitY=0.5;exitDx=0;exitDy=0;" edge="1" parent="G3h3eTl2SiQmyharPNOo-2" source="G3h3eTl2SiQmyharPNOo-10" target="G3h3eTl2SiQmyharPNOo-4">
          <mxGeometry relative="1" as="geometry">
            <mxPoint x="102" y="44" as="targetPoint" />
            <Array as="points">
              <mxPoint x="61" y="48" />
              <mxPoint x="61" y="48" />
            </Array>
          </mxGeometry>
        </mxCell>
        <mxCell id="G3h3eTl2SiQmyharPNOo-10" value="term" style="rounded=0;whiteSpace=wrap;html=1;strokeWidth=1;fillColor=none;" vertex="1" parent="G3h3eTl2SiQmyharPNOo-2">
          <mxGeometry x="17" y="37" width="38" height="22" as="geometry" />
        </mxCell>
        <mxCell id="G3h3eTl2SiQmyharPNOo-11" value="factor" style="rounded=0;whiteSpace=wrap;html=1;strokeWidth=1;fillColor=none;" vertex="1" parent="G3h3eTl2SiQmyharPNOo-2">
          <mxGeometry x="119" y="37" width="43" height="22" as="geometry" />
        </mxCell>
        <mxCell id="G3h3eTl2SiQmyharPNOo-12" value="" style="edgeStyle=orthogonalEdgeStyle;rounded=0;orthogonalLoop=1;jettySize=auto;html=1;fontSize=10;startArrow=none;startFill=0;endArrow=classicThin;endFill=1;exitX=1;exitY=0.5;exitDx=0;exitDy=0;exitPerimeter=0;entryX=0;entryY=0.5;entryDx=0;entryDy=0;" edge="1" parent="G3h3eTl2SiQmyharPNOo-2" source="G3h3eTl2SiQmyharPNOo-4" target="G3h3eTl2SiQmyharPNOo-11">
          <mxGeometry relative="1" as="geometry">
            <Array as="points">
              <mxPoint x="104" y="48" />
              <mxPoint x="104" y="48" />
            </Array>
          </mxGeometry>
        </mxCell>
        <mxCell id="G3h3eTl2SiQmyharPNOo-13" value="&lt;b style=&quot;font-size: 10px&quot;&gt;&#39;&lt;/b&gt;&lt;b&gt;/&lt;/b&gt;&lt;b style=&quot;font-size: 10px&quot;&gt;&#39;&lt;/b&gt;" style="strokeWidth=1;html=1;shape=mxgraph.flowchart.terminator;whiteSpace=wrap;fillColor=none;fontSize=10;" vertex="1" parent="G3h3eTl2SiQmyharPNOo-2">
          <mxGeometry x="73" y="72" width="29" height="10" as="geometry" />
        </mxCell>
        <mxCell id="G3h3eTl2SiQmyharPNOo-14" value="" style="edgeStyle=orthogonalEdgeStyle;rounded=0;orthogonalLoop=1;jettySize=auto;html=1;fontSize=10;startArrow=none;startFill=0;endArrow=classicThin;endFill=1;entryX=0;entryY=0.5;entryDx=0;entryDy=0;entryPerimeter=0;exitX=1;exitY=0.5;exitDx=0;exitDy=0;" edge="1" parent="G3h3eTl2SiQmyharPNOo-2" source="G3h3eTl2SiQmyharPNOo-15" target="G3h3eTl2SiQmyharPNOo-13">
          <mxGeometry relative="1" as="geometry">
            <mxPoint x="102" y="73" as="targetPoint" />
            <Array as="points">
              <mxPoint x="61" y="77" />
              <mxPoint x="61" y="77" />
            </Array>
          </mxGeometry>
        </mxCell>
        <mxCell id="G3h3eTl2SiQmyharPNOo-15" value="term" style="rounded=0;whiteSpace=wrap;html=1;strokeWidth=1;fillColor=none;" vertex="1" parent="G3h3eTl2SiQmyharPNOo-2">
          <mxGeometry x="17" y="66" width="38" height="22" as="geometry" />
        </mxCell>
        <mxCell id="G3h3eTl2SiQmyharPNOo-16" value="factor" style="rounded=0;whiteSpace=wrap;html=1;strokeWidth=1;fillColor=none;" vertex="1" parent="G3h3eTl2SiQmyharPNOo-2">
          <mxGeometry x="119" y="66" width="43" height="22" as="geometry" />
        </mxCell>
        <mxCell id="G3h3eTl2SiQmyharPNOo-17" value="" style="edgeStyle=orthogonalEdgeStyle;rounded=0;orthogonalLoop=1;jettySize=auto;html=1;fontSize=10;startArrow=none;startFill=0;endArrow=classicThin;endFill=1;exitX=1;exitY=0.5;exitDx=0;exitDy=0;exitPerimeter=0;entryX=0;entryY=0.5;entryDx=0;entryDy=0;" edge="1" parent="G3h3eTl2SiQmyharPNOo-2" source="G3h3eTl2SiQmyharPNOo-13" target="G3h3eTl2SiQmyharPNOo-16">
          <mxGeometry relative="1" as="geometry">
            <Array as="points">
              <mxPoint x="104" y="77" />
              <mxPoint x="104" y="77" />
            </Array>
          </mxGeometry>
        </mxCell>
        <mxCell id="G3h3eTl2SiQmyharPNOo-18" value="&lt;b style=&quot;font-size: 10px&quot;&gt;&#39;&lt;/b&gt;%&lt;b style=&quot;font-size: 10px&quot;&gt;&#39;&lt;/b&gt;" style="strokeWidth=1;html=1;shape=mxgraph.flowchart.terminator;whiteSpace=wrap;fillColor=none;fontSize=10;" vertex="1" parent="G3h3eTl2SiQmyharPNOo-2">
          <mxGeometry x="73" y="101" width="29" height="10" as="geometry" />
        </mxCell>
        <mxCell id="G3h3eTl2SiQmyharPNOo-19" value="" style="edgeStyle=orthogonalEdgeStyle;rounded=0;orthogonalLoop=1;jettySize=auto;html=1;fontSize=10;startArrow=none;startFill=0;endArrow=classicThin;endFill=1;entryX=0;entryY=0.5;entryDx=0;entryDy=0;entryPerimeter=0;exitX=1;exitY=0.5;exitDx=0;exitDy=0;" edge="1" parent="G3h3eTl2SiQmyharPNOo-2" source="G3h3eTl2SiQmyharPNOo-20" target="G3h3eTl2SiQmyharPNOo-18">
          <mxGeometry relative="1" as="geometry">
            <mxPoint x="102" y="102" as="targetPoint" />
            <Array as="points">
              <mxPoint x="61" y="106" />
              <mxPoint x="61" y="106" />
            </Array>
          </mxGeometry>
        </mxCell>
        <mxCell id="G3h3eTl2SiQmyharPNOo-20" value="term" style="rounded=0;whiteSpace=wrap;html=1;strokeWidth=1;fillColor=none;" vertex="1" parent="G3h3eTl2SiQmyharPNOo-2">
          <mxGeometry x="17" y="95" width="38" height="22" as="geometry" />
        </mxCell>
        <mxCell id="G3h3eTl2SiQmyharPNOo-21" value="factor" style="rounded=0;whiteSpace=wrap;html=1;strokeWidth=1;fillColor=none;" vertex="1" parent="G3h3eTl2SiQmyharPNOo-2">
          <mxGeometry x="119" y="95" width="43" height="22" as="geometry" />
        </mxCell>
        <mxCell id="G3h3eTl2SiQmyharPNOo-22" value="" style="edgeStyle=orthogonalEdgeStyle;rounded=0;orthogonalLoop=1;jettySize=auto;html=1;fontSize=10;startArrow=none;startFill=0;endArrow=classicThin;endFill=1;exitX=1;exitY=0.5;exitDx=0;exitDy=0;exitPerimeter=0;entryX=0;entryY=0.5;entryDx=0;entryDy=0;" edge="1" parent="G3h3eTl2SiQmyharPNOo-2" source="G3h3eTl2SiQmyharPNOo-18" target="G3h3eTl2SiQmyharPNOo-21">
          <mxGeometry relative="1" as="geometry">
            <Array as="points">
              <mxPoint x="104" y="106" />
              <mxPoint x="104" y="106" />
            </Array>
          </mxGeometry>
        </mxCell>
        <mxCell id="G3h3eTl2SiQmyharPNOo-23" value="" style="endArrow=none;html=1;rounded=0;fontSize=10;exitX=0;exitY=0.5;exitDx=0;exitDy=0;" edge="1" parent="G3h3eTl2SiQmyharPNOo-2" source="G3h3eTl2SiQmyharPNOo-20">
          <mxGeometry width="50" height="50" relative="1" as="geometry">
            <mxPoint x="16" y="106" as="sourcePoint" />
            <mxPoint y="12" as="targetPoint" />
            <Array as="points">
              <mxPoint y="106" />
            </Array>
          </mxGeometry>
        </mxCell>
        <mxCell id="G3h3eTl2SiQmyharPNOo-24" value="" style="endArrow=none;html=1;rounded=0;fontSize=10;exitX=0;exitY=0.5;exitDx=0;exitDy=0;" edge="1" parent="G3h3eTl2SiQmyharPNOo-2" source="G3h3eTl2SiQmyharPNOo-15">
          <mxGeometry width="50" height="50" relative="1" as="geometry">
            <mxPoint x="-19" y="122" as="sourcePoint" />
            <mxPoint y="77" as="targetPoint" />
            <Array as="points" />
          </mxGeometry>
        </mxCell>
        <mxCell id="G3h3eTl2SiQmyharPNOo-25" value="" style="endArrow=none;html=1;rounded=0;fontSize=10;exitX=1;exitY=0.5;exitDx=0;exitDy=0;" edge="1" parent="G3h3eTl2SiQmyharPNOo-2" source="G3h3eTl2SiQmyharPNOo-21">
          <mxGeometry width="50" height="50" relative="1" as="geometry">
            <mxPoint x="222" y="112" as="sourcePoint" />
            <mxPoint x="174" y="11" as="targetPoint" />
            <Array as="points">
              <mxPoint x="174" y="106" />
            </Array>
          </mxGeometry>
        </mxCell>
        <mxCell id="G3h3eTl2SiQmyharPNOo-26" value="" style="endArrow=none;html=1;rounded=0;fontSize=10;" edge="1" parent="G3h3eTl2SiQmyharPNOo-2">
          <mxGeometry width="50" height="50" relative="1" as="geometry">
            <mxPoint x="174" y="77" as="sourcePoint" />
            <mxPoint x="162" y="76.88999999999999" as="targetPoint" />
            <Array as="points" />
          </mxGeometry>
        </mxCell>
        <mxCell id="G3h3eTl2SiQmyharPNOo-27" value="term" style="rounded=0;whiteSpace=wrap;html=1;strokeWidth=1;fillColor=none;align=left;verticalAlign=top;fontStyle=1;strokeColor=#B3B3B3;" vertex="1" parent="p0LMakNuVA9YUf5y1D9H-0">
          <mxGeometry width="225" height="193" as="geometry" />
        </mxCell>
        <mxCell id="p0LMakNuVA9YUf5y1D9H-1" value="&lt;span&gt;&lt;b&gt;program&lt;/b&gt;: procedure+&lt;/span&gt;&lt;span&gt;&lt;br&gt;&lt;b&gt;procedure&lt;/b&gt;: ‘procedure’ proc_name ‘{‘ stmtLst ‘}’&lt;/span&gt;&lt;span&gt;&lt;/span&gt;&lt;span&gt;&lt;br&gt;&lt;b&gt;stmtLst&lt;/b&gt;: stmt+&lt;/span&gt;&lt;span&gt;&lt;br&gt;&lt;b&gt;stmt&lt;/b&gt;: read | print | assign &lt;b&gt;&lt;font color=&quot;#EA6B66&quot;&gt;| while | if | call&lt;/font&gt;&lt;/b&gt;&lt;/span&gt;&lt;span&gt;&lt;/span&gt;&lt;br&gt;&lt;b&gt;&lt;br&gt;print&lt;/b&gt;: ‘print’ var_name;&lt;br&gt;&lt;b&gt;assign&lt;/b&gt;: var_name ‘=’ factor ‘;’&lt;br&gt;&lt;span&gt;&lt;b&gt;read&lt;/b&gt;: ‘read’ var_name’;’&lt;/span&gt;&lt;br&gt;&lt;span&gt;&lt;/span&gt;&lt;span&gt;&lt;b&gt;assign&lt;/b&gt;: var_name ‘=’&lt;font color=&quot;#EA6B66&quot;&gt; expr ‘;’&lt;/font&gt;&lt;/span&gt;&lt;span&gt;&lt;/span&gt;&lt;strong&gt;&lt;br&gt;&lt;font color=&quot;#EA6B66&quot;&gt;while: &lt;/font&gt;&lt;/strong&gt;&lt;font color=&quot;#EA6B66&quot;&gt;‘while’ ‘(’ rel_expr ‘)’ ‘{‘ stmtLst ‘}’&lt;br&gt;&lt;strong&gt;&lt;/strong&gt;&lt;strong&gt;if: &lt;/strong&gt;‘if’ ‘(’ rel_expr ‘)’ ‘then’ ‘{‘ stmtLst ‘}’ ‘else’ ‘{‘ stmtLst ‘}’&lt;br&gt;&lt;/font&gt;&lt;br&gt;&lt;span&gt;&lt;b&gt;&lt;font color=&quot;#EA6B66&quot;&gt;expr&lt;/font&gt;&lt;/b&gt;&lt;font color=&quot;#EA6B66&quot;&gt;: expr ‘+’ term | expr ‘-’ term | term&lt;/font&gt;&lt;/span&gt;&lt;font color=&quot;#EA6B66&quot;&gt;&lt;br&gt;&lt;span&gt;&lt;/span&gt;&lt;span&gt;&lt;b&gt;term&lt;/b&gt;: term ‘*’ factor | term ‘/’ factor | term ‘%’ factor | factor&lt;/span&gt;&lt;/font&gt;&lt;br&gt;&lt;span&gt;&lt;/span&gt;&lt;span&gt;&lt;b&gt;factor&lt;/b&gt;: var_name | const_value &lt;font color=&quot;#EA6B66&quot;&gt;| ‘(’ expr ‘)’&lt;/font&gt;&lt;/span&gt;&lt;strong&gt;&lt;br&gt;&lt;font color=&quot;#EA6B66&quot;&gt;rel_expr: &lt;/font&gt;&lt;/strong&gt;&lt;font color=&quot;#EA6B66&quot;&gt;rel_factor ‘&amp;gt;’ rel_factor | rel_factor ‘&amp;lt;’ rel_factor&lt;br&gt;&lt;span&gt;&lt;/span&gt;&lt;b&gt;rel_factor&lt;/b&gt;: var_name | const_value | expr&lt;/font&gt;&lt;span&gt;&lt;/span&gt;&lt;p&gt;&lt;span&gt;&lt;/span&gt;&lt;/p&gt;" style="text;html=1;strokeColor=default;fillColor=none;align=left;verticalAlign=top;whiteSpace=wrap;rounded=0;labelPosition=center;verticalLabelPosition=middle;" vertex="1" parent="G3h3eTl2SiQmyharPNOo-1">
          <mxGeometry x="20" y="10" width="347" height="260" as="geometry" />
        </mxCell>
        <mxCell id="p0LMakNuVA9YUf5y1D9H-2" value="&lt;span&gt;&lt;/span&gt;&lt;b&gt;NAME&lt;/b&gt; : LETTER (LETTER | DIGIT)* -- procedure names and variables are strings of letters, and digits, starting with a letter&lt;br&gt;&lt;b&gt;INTEGER&lt;/b&gt;: DIGIT+ -- constants are sequences of digits&lt;br&gt;&lt;b&gt;LETTER&lt;/b&gt; : A-Z | a-z -- capital or small letter&lt;br&gt;&lt;b&gt;DIGIT&lt;/b&gt; : 0-9&lt;br&gt;&lt;br&gt;&lt;div&gt;&lt;span&gt;&lt;b&gt;var_name&lt;/b&gt;,&lt;b&gt; proc_name&lt;/b&gt;: NAME&lt;/span&gt;&lt;/div&gt;&lt;div&gt;&lt;b&gt;const_value&lt;/b&gt;: INTEGER&lt;span&gt;&lt;/span&gt;&lt;br&gt;&lt;/div&gt;&lt;p&gt;&lt;span&gt;&lt;/span&gt;&lt;/p&gt;" style="text;html=1;strokeColor=default;fillColor=none;align=left;verticalAlign=top;whiteSpace=wrap;rounded=0;labelPosition=center;verticalLabelPosition=middle;" vertex="1" parent="G3h3eTl2SiQmyharPNOo-1">
          <mxGeometry x="367" y="10" width="347" height="260" as="geometry" />
        </mxCell>
      </root>
    </mxGraphModel>
  </diagram>
</mxfile>
